<svg xmlns="http://www.w3.org/2000/svg" width="9.588" height="10.573" viewBox="0 0 9.588 10.573">
  <g id="Grupo_282" data-name="Grupo 282" transform="translate(0)">
    <g id="Componente_4_7" data-name="Componente 4 – 7">
      <g id="Grupo_247" data-name="Grupo 247">
        <path id="Trazado_360" data-name="Trazado 360" d="M323.393,336.6c-1.037,0-2.931-.385-5.012-2.679-3.065-3.379-2.373-6.313-2.342-6.436a.352.352,0,0,1,.08-.151l1.094-1.206a.3.3,0,0,1,.228-.1l1.12.032a.319.319,0,0,1,.292.251l.684,2.708a.368.368,0,0,1-.08.335l-.853.941a6.93,6.93,0,0,0,1.277,1.972,6.263,6.263,0,0,0,1.789,1.408l.853-.941a.292.292,0,0,1,.3-.088l2.456.755a.339.339,0,0,1,.227.322l.029,1.235a.363.363,0,0,1-.091.251l-1.094,1.206a.306.306,0,0,1-.137.088A3.018,3.018,0,0,1,323.393,336.6Zm-6.77-8.851c-.085.473-.353,2.873,2.2,5.686s4.724,2.518,5.157,2.424l.936-1.032-.02-.834-2.059-.633-.871.96a.291.291,0,0,1-.319.083,6.249,6.249,0,0,1-2.2-1.652,7.054,7.054,0,0,1-1.5-2.43.368.368,0,0,1,.075-.352l.871-.96-.574-2.271-.757-.022Z" transform="translate(-315.952 -326.029)" fill="#642b80"/>
      </g>
      <g id="Grupo_248" data-name="Grupo 248" transform="translate(4.367 0.352)">
        <path id="Trazado_361" data-name="Trazado 361" d="M440.782,340.23a.328.328,0,0,1-.311-.343,4.192,4.192,0,0,0-3.968-4.376.345.345,0,0,1,0-.686,4.849,4.849,0,0,1,4.591,5.062A.328.328,0,0,1,440.782,340.23Z" transform="translate(-436.191 -334.825)" fill="#642b80"/>
      </g>
      <g id="Grupo_249" data-name="Grupo 249" transform="translate(4.367 1.676)">
        <path id="Trazado_362" data-name="Trazado 362" d="M439.582,371.945a.328.328,0,0,1-.311-.343,2.924,2.924,0,0,0-2.768-3.053.345.345,0,0,1,0-.686,3.582,3.582,0,0,1,3.391,3.739A.328.328,0,0,1,439.582,371.945Z" transform="translate(-436.191 -367.863)" fill="#642b80"/>
      </g>
      <g id="Grupo_250" data-name="Grupo 250" transform="translate(4.367 2.999)">
        <path id="Trazado_363" data-name="Trazado 363" d="M438.382,403.661a.328.328,0,0,1-.311-.343,1.657,1.657,0,0,0-1.568-1.73.345.345,0,0,1,0-.686,2.314,2.314,0,0,1,2.191,2.416A.328.328,0,0,1,438.382,403.661Z" transform="translate(-436.191 -400.902)" fill="#642b80"/>
      </g>
    </g>
  </g>
</svg>
