<svg xmlns="http://www.w3.org/2000/svg" width="19.354" height="15.448" viewBox="0 0 19.354 15.448">
  <g id="prev" transform="translate(19.354 15.448) rotate(180)">
    <path id="next" d="M8.6,15.2a.837.837,0,0,0,.076-1.123L8.6,13.99,3.01,8.581H18.475a.854.854,0,0,0,.107-1.7L.879,6.872A.88.88,0,0,0,.065,7.4a.837.837,0,0,0,.114.842l.078.086,7.1,6.871a.9.9,0,0,0,1.232.011L8.6,15.2ZM4.595,5.329l.087-.074L8.6,1.462A.838.838,0,0,0,8.6.253.9.9,0,0,0,7.446.173L7.354.251,3.44,4.039c-.343.336,0,1.21,0,1.21s.8.337,1.154.079Z" transform="translate(0 0)" fill="#fafafb"/>
    <path id="next-2" data-name="next" d="M8.55.246a.832.832,0,0,1,.076,1.116l-.076.087L2.991,6.825c15.862.008-2.118,1.7-2.118,1.7A.875.875,0,0,1,.065,8a.832.832,0,0,1,.114-.836l.078-.085L7.311.248A.893.893,0,0,1,8.535.238l.011.011ZM4.567,10.058l.087.074L8.55,13.9a.834.834,0,0,1,0,1.2.894.894,0,0,1-1.149.079L7.31,15.1,3.419,11.34c-.341-.334,0-1.2,0-1.2s.8-.335,1.147-.079Z" transform="translate(0.059 0)" fill="#fafafb"/>
  </g>
</svg>
