<svg xmlns="http://www.w3.org/2000/svg" width="15" height="16.503" viewBox="0 0 15 16.503">
  <g id="lock_icon" data-name="lock icon" transform="translate(0.75 0.75)" style="isolation: isolate">
    <path id="Unión_1" data-name="Unión 1" d="M-2490.463-2110.992h-10.827l-.008,0h-.016l-.008,0h-.017l-.008,0h-.016l-.008,0h-.008l-.008,0-.008,0h-.008l-.008,0h-.008l-.008,0-.008,0-.008,0-.008,0h-.008l-.008,0-.008,0-.008,0-.008,0-.008,0-.008,0-.008,0-.008,0-.008,0-.008,0-.008,0-.007,0-.008,0-.008,0-.008,0-.008,0-.008,0-.008,0-.008,0-.007,0-.008,0-.008,0-.008,0-.008,0-.007,0-.008,0-.008,0-.008,0-.008,0-.007,0-.008,0a.021.021,0,0,0-.008,0l-.007,0-.008,0-.008,0-.007,0-.008,0-.008,0-.007,0-.008,0-.008,0-.007,0-.008,0-.008,0-.007,0-.008,0-.007,0-.008,0-.007,0-.008,0-.007,0-.008,0-.007,0-.008,0-.007,0-.007,0-.008,0-.007,0-.008,0-.007,0-.007,0-.008,0-.007,0-.007,0-.007,0-.008,0-.007,0-.007,0-.008,0a.014.014,0,0,0-.007,0l-.007,0-.007,0-.007,0-.008,0-.007,0-.007,0-.007,0-.007,0-.007,0-.007,0-.007,0-.007,0-.007,0-.007,0-.007,0-.007,0-.007,0-.007,0-.007,0-.007,0-.007,0-.006,0-.007,0-.007,0-.007,0-.007,0-.006,0-.007,0-.007,0-.007,0-.006,0-.007,0-.006,0-.007,0-.007,0-.006,0-.007,0-.006,0-.007-.005-.007,0-.006,0-.007-.005-.006,0-.006,0-.007-.005-.006,0-.006,0,0,0,0,0-.006,0-.007-.005-.006,0,0,0,0,0-.006,0-.007-.005-.006-.006,0,0,0,0-.006-.005-.006-.005-.007-.005-.006,0-.006-.005,0,0,0,0-.006-.005-.006-.005-.006-.005-.006-.005-.006,0,0,0,0,0-.006-.006-.005,0-.006-.005s0,0,0,0l0,0-.006-.006-.006-.005-.005-.006,0,0,0,0-.006-.005,0,0,0,0-.005-.005,0,0,0,0-.006-.005,0,0,0,0-.006-.005,0,0,0,0-.006-.006-.005-.005-.006-.006,0,0,0,0-.006-.006,0,0,0,0-.005-.006,0,0,0,0-.005-.006,0,0,0,0-.005-.006,0,0,0,0-.006-.006,0,0,0,0-.005-.005,0,0,0,0-.006-.006,0,0s0,0,0,0l-.005-.006,0,0,0,0-.005-.005,0,0,0,0-.005-.006,0,0,0,0-.005-.006,0,0,0,0-.005-.006,0,0,0,0-.006-.006,0,0,0,0,0-.006,0,0,0,0-.005-.006,0,0,0,0,0-.007,0,0,0,0-.005-.006,0,0,0,0-.005-.006,0,0,0,0-.005-.006,0,0,0,0,0-.006s0,0,0,0l0,0-.005-.006,0,0,0,0-.005-.006a.006.006,0,0,1,0,0s0,0,0,0l0-.006,0,0,0,0,0-.007,0,0,0,0,0-.007,0,0,0,0,0-.007,0,0,0,0,0-.006,0,0,0,0,0-.006,0,0,0,0,0-.007,0,0,0,0,0-.007,0,0a0,0,0,0,1,0,0l0-.006,0,0,0,0,0-.007,0,0,0,0,0-.007,0,0,0,0,0-.007a.008.008,0,0,1,0,0l0,0,0-.007,0,0a0,0,0,0,0,0,0l0-.007,0,0,0,0,0-.007,0,0a.008.008,0,0,0,0,0l0-.007,0,0s0,0,0,0l0-.007a.006.006,0,0,0,0,0s0,0,0,0l0-.007a.008.008,0,0,0,0,0l0,0,0-.007,0,0s0,0,0,0l0-.007a.007.007,0,0,0,0,0l0,0,0-.007,0,0v0l0-.007,0,0,0,0,0-.008,0,0,0,0,0-.007v0l0,0,0-.008,0,0,0,0,0-.007,0,0s0,0,0,0l0-.007,0,0s0,0,0,0l0-.008,0,0s0,0,0,0l0-.007s0,0,0,0l0,0,0-.007a.018.018,0,0,0,0,0s0,0,0,0l0-.007,0,0v0l0-.008v0l0,0,0-.008,0,0s0,0,0,0l0-.007v0l0,0,0-.007a.04.04,0,0,0,0,0l0,0,0-.007,0,0s0,0,0,0l0-.008a0,0,0,0,0,0,0,.006.006,0,0,0,0,0l0-.008s0,0,0,0v0l0-.008a0,0,0,0,1,0,0,.035.035,0,0,0,0-.005l0-.007s0,0,0,0,0,0,0,0l0-.008s0,0,0,0a.005.005,0,0,0,0,0l0-.008s0,0,0,0,0,0,0,0l0-.008a.006.006,0,0,0,0,0,.005.005,0,0,1,0,0l0-.008s0,0,0,0,0,0,0,0l0-.008s0,0,0,0,0,0,0,0l0-.007a.012.012,0,0,0,0-.005,0,0,0,0,0,0,0l0-.008a.007.007,0,0,1,0,0l0,0,0-.008,0,0a.01.01,0,0,0,0,0l0-.007a.01.01,0,0,1,0,0l0,0,0-.008s0,0,0,0a.007.007,0,0,1,0,0l0-.008a.007.007,0,0,0,0,0v0l0-.008v0a.008.008,0,0,1,0,0l0-.008s0,0,0,0,0,0,0,0l0-.008v0a.009.009,0,0,1,0,0l0-.008s0,0,0,0,0,0,0,0l0-.008s0,0,0,0v0l0-.008a.008.008,0,0,0,0,0s0,0,0,0l0-.008a.011.011,0,0,0,0-.005v0l0-.008s0,0,0,0v0l0-.008v0a.008.008,0,0,1,0,0l0-.008v0s0,0,0,0v-.008s0,0,0,0,0,0,0,0v-.008s0,0,0-.005,0,0,0,0v-.008a0,0,0,0,0,0,0,.011.011,0,0,0,0-.005v-.011a.011.011,0,0,1,0-.005l0-.008v-.016a.006.006,0,0,0,0,0v-.013a.011.011,0,0,1,0-.005v-.031a.01.01,0,0,1,0,0v-.011a.011.011,0,0,1,0-.005v-.013s0,0,0,0v-.028s0,0,0-.005v-.008a.006.006,0,0,1,0,0v-.049s0,0,0,0v-.044a.008.008,0,0,1,0,0v-.025a0,0,0,0,1,0,0v-.038h0v-5.286a.011.011,0,0,1,0-.005v-.13a.007.007,0,0,0,0,0v-.008a.007.007,0,0,0,0,0v-.017s0,0,0,0v-.012a.009.009,0,0,1,0,0v-.008a.005.005,0,0,0,0,0,.007.007,0,0,1,0,0v-.008s0,0,0,0v0l0-.008v0s0,0,0,0v-.013s0,0,0,0v-.009s0,0,0,0v0l0-.008v0s0,0,0,0v-.008s0,0,0,0v0l0-.008s0,0,0,0v0l0-.008s0,0,0,0v0l0-.008s0,0,0,0v0l0-.008s0,0,0-.006a0,0,0,0,1,0,0v-.012s0,0,0-.005l0-.007a.008.008,0,0,1,0,0v0l0-.008a.01.01,0,0,0,0-.005s0,0,0,0l0-.008a.04.04,0,0,0,0,0,.007.007,0,0,1,0,0l0-.007a.008.008,0,0,1,0,0s0,0,0,0l0-.008v0l0,0,0-.008s0,0,0,0a.008.008,0,0,1,0,0l0-.008s0,0,0-.005a0,0,0,0,0,0,0l0-.008,0-.005a0,0,0,0,1,0,0l0-.008v0s0,0,0,0l0-.008s0,0,0,0a.007.007,0,0,1,0,0l0-.008s0,0,0,0,0,0,0,0l0-.008s0,0,0,0l0,0,0-.008v0s0,0,0-.005l0-.007s0,0,0,0,0,0,0,0l0-.008s0,0,0,0,0,0,0,0l0-.008s0,0,0,0a.007.007,0,0,0,0,0l0-.008,0,0v0l0-.008v0s0,0,0,0l0-.008s0,0,0,0l0,0,0-.008s0,0,0,0l0,0,0-.008v0l0,0,0-.008a.006.006,0,0,0,0,0l0,0,0-.007,0,0s0,0,0,0l0-.008s0,0,0,0,0,0,0,0l0-.008a.009.009,0,0,0,0,0l0,0,0-.008s0,0,0,0l0,0,0-.008v0s0,0,0,0l0-.007s0,0,0,0a.008.008,0,0,0,0,0l0-.007s0,0,0,0v0l0-.008s0,0,0,0,0,0,0,0l0-.007s0,0,0,0l0,0,0-.008s0,0,0,0a.006.006,0,0,0,0,0l0-.007,0,0,0,0,0-.007v0l0,0,0-.008,0,0,0,0,0-.007v0l0,0,0-.007,0,0,0,0,0-.007a0,0,0,0,1,0,0l0,0,0-.008,0,0s0,0,0,0l0-.007,0,0a0,0,0,0,1,0,0l0-.007s0,0,0,0,0,0,0,0l0-.007,0,0s0,0,0,0l0-.006,0,0,0,0,0-.006,0,0,0,0,0-.006,0-.006,0,0,0-.006,0,0,0,0,0-.007v0l0,0,0-.007,0,0,0,0,0-.007,0,0,0,0,0-.006,0,0,0,0,0-.007,0,0,0,0,0-.007,0,0s0,0,0,0l0-.007,0,0s0,0,0,0l0-.006,0,0,0,0,0-.007,0,0s0,0,0,0l0-.007,0,0,0,0,0-.007,0,0s0,0,0,0l0-.007,0,0,0,0,.005-.007,0,0,0,0,0-.007,0,0,0,0,0-.006,0,0,0,0,0-.006,0,0,0,0,0-.006,0,0,0,0,0-.006,0,0,0,0,.005-.006a.006.006,0,0,1,0,0l0,0,.005-.006,0,0a.006.006,0,0,1,0,0l0-.007,0,0,0,0,.005-.006,0,0,0,0,.005-.006,0,0,0,0,.005-.006s0,0,0,0l0,0,.005-.006,0,0,0,0,.005-.006,0,0,0,0,.006-.006,0,0,0,0,.005-.005,0,0,0,0,.005-.006,0,0,0,0,.005-.006,0,0a0,0,0,0,1,0,0l.005-.006,0,0,0,0,.005-.005,0,0,0,0,.005-.006,0,0,0,0,.006-.006,0,0,0,0,.006-.006s0,0,0,0l0,0,.005-.006,0,0,0,0,.005-.006a.006.006,0,0,0,0,0l0,0,.005-.006,0,0,0,0,.006-.005,0,0,0,0,.006-.005,0,0,0,0,.005-.005,0,0,0,0,.006-.005,0,0,0,0,.006-.005.006-.005.006-.005.006-.005.006-.006.006-.005.005-.005.006-.005.006-.005,0,0,0,0,.006-.005,0,0,0,0,.006-.006.007-.005.006-.005.006,0,.006-.005,0,0,0,0,.006,0,.006-.005.006-.005s0,0,0,0l0,0,.006-.005.006,0,.007-.005.006,0,.006-.005,0,0,0,0,.006-.005.006,0,.007-.005.006,0,.007,0,.006-.005.007,0,.006,0,.007,0,.006,0,.007,0,.006,0,.007-.006.007,0,.006,0,.007,0,.007,0,.007,0,.006,0,.007,0,.007,0,.007,0,.006,0,.007,0,.007,0,.007,0,.007,0,.006,0,.008,0,.006,0,.007,0,.007,0,.007,0,.007,0,.007,0,.007,0,.007,0a.014.014,0,0,0,.007,0l.007,0,.007,0,.008,0,.007,0,.007,0,.007,0,.007,0,.008,0,.007,0,.007,0,.007,0,.007,0,.008,0,.007,0,.007,0,.008,0,.007,0,.007,0,.007,0,.008,0,.007,0,.008,0,.007,0,.008,0,.007,0,.007,0,.008,0,.007,0,.008,0,.008,0,.007,0,.007,0,.008,0,.007,0,.008,0,.008,0,.007,0,.008,0,.008,0,.007,0,.008,0,.007,0,.008,0,.008,0,.007,0,.008,0,.008,0,.008,0,.007,0,.008,0,.008,0,.008,0,.007,0,.008,0,.008,0,.008,0,.008,0,.007,0,.008,0,.008,0,.008,0,.008,0,.008,0,.007,0,.008,0,.008,0,.008,0,.008,0,.008,0,.008,0,.008,0,.008,0,.008,0,.008,0,.008,0,.008,0,.008,0,.008,0,.007,0,.009,0,.008,0h.008l.008,0,.008,0,.008,0h.008l.008,0,.008,0h.008l.008,0h.016l.008,0h.008l.008,0h.024l.008,0h1.047v-2.339a0,0,0,0,1,0,0v-.041a0,0,0,0,0,0,0v-.046s0,0,0,0v-.039a.006.006,0,0,1,0,0v-.059a0,0,0,0,0,0,0v-.012a.015.015,0,0,0,0-.006v-.006a.006.006,0,0,1,0,0v-.01s0,0,0,0v-.009a.009.009,0,0,0,0,0v-.01s0,0,0,0v-.036a0,0,0,0,1,0,0v-.01a.008.008,0,0,0,0,0v-.021s0,0,0,0v-.01a.009.009,0,0,0,0,0v-.012a.005.005,0,0,0,0,0v-.006a.009.009,0,0,0,0,0v-.012a.008.008,0,0,0,0,0v-.049a0,0,0,0,1,0,0v-.007s0,0,0,0v-.009s0,0,0,0v-.009s0,0,0,0v-.013s0,0,0,0v-.006a.009.009,0,0,1,0,0v-.012s0,0,0,0v-.009a.008.008,0,0,0,0,0v-.006s0,0,0,0v-.01s0,0,0,0v-.022a0,0,0,0,1,0,0v0l0-.007v0a0,0,0,0,1,0,0v-.006a.01.01,0,0,1,0,0v-.008s0,0,0,0v-.009a0,0,0,0,0,0,0s0,0,0,0v-.01s0,0,0,0v-.006a0,0,0,0,0,0,0v0l0-.006v0a0,0,0,0,0,0,0v-.007s0,0,0,0a0,0,0,0,1,0,0v-.01a0,0,0,0,0,0,0v-.006a.01.01,0,0,0,0,0v-.015l0-.007v0a.008.008,0,0,0,0,0v-.006a0,0,0,0,0,0,0v-.013s0,0,0,0v-.006a0,0,0,0,1,0,0,.005.005,0,0,1,0,0v-.006a.007.007,0,0,1,0,0,0,0,0,0,1,0,0v-.006s0,0,0,0v0l0-.006a0,0,0,0,1,0,0v0l0-.006s0,0,0,0v0l0-.007a.008.008,0,0,1,0,0v0l0-.006a0,0,0,0,1,0,0v0l0-.006v0s0,0,0,0v-.01a.006.006,0,0,1,0,0v-.006a0,0,0,0,0,0,0v0l0-.006a.01.01,0,0,1,0,0v0l0-.007a0,0,0,0,1,0,0,.007.007,0,0,1,0,0v-.006a0,0,0,0,0,0,0v0l0-.006v0a0,0,0,0,0,0,0l0-.006a0,0,0,0,1,0,0s0,0,0,0v-.006a.01.01,0,0,0,0,0,0,0,0,0,0,0,0l0-.006v-.013l0,0v0l0-.006v-.006l0-.006s0,0,0,0v0l0-.006a0,0,0,0,0,0,0s0,0,0,0l0-.006a.032.032,0,0,0,0,0v0l0-.006a.007.007,0,0,1,0,0v0l0-.006s0,0,0,0a0,0,0,0,1,0,0v-.006l0,0v0l0-.006,0,0v0l0-.006v0s0,0,0,0l0-.006v0s0,0,0,0l0-.006v0a.007.007,0,0,0,0,0l0-.006s0,0,0,0a0,0,0,0,0,0,0l0-.006a.007.007,0,0,0,0,0,0,0,0,0,0,0,0l0-.006,0,0v0l0-.006,0,0a0,0,0,0,1,0,0l0-.006a0,0,0,0,1,0,0s0,0,0,0l0-.006v-.006l0-.006a.007.007,0,0,0,0,0,0,0,0,0,0,0,0l0-.006a.005.005,0,0,1,0,0,0,0,0,0,1,0,0l0-.006a0,0,0,0,1,0,0v0l0-.006,0,0v0l0-.006a0,0,0,0,1,0,0s0,0,0,0l0-.006v0a.006.006,0,0,0,0,0l0-.006v-.006l0-.006,0,0a0,0,0,0,1,0,0l0-.006s0,0,0,0a0,0,0,0,0,0,0l0-.006v0l0,0,0-.006a0,0,0,0,0,0,0s0,0,0,0l0-.006,0,0v0l0-.006v0s0,0,0,0l0-.005s0,0,0,0v0l0-.006s0,0,0,0a0,0,0,0,1,0,0l0-.006a0,0,0,0,0,0,0l0,0,0-.006a0,0,0,0,0,0,0s0,0,0,0l0-.006,0,0a.008.008,0,0,1,0,0l0-.006a0,0,0,0,0,0,0l0,0,0-.006,0,0a0,0,0,0,1,0,0l0-.006a0,0,0,0,0,0,0l0,0,0-.006s0,0,0,0,0,0,0,0l0-.006v-.006l0-.006s0,0,0,0l0,0,0-.006s0,0,0,0a0,0,0,0,1,0,0l0-.006,0,0v0l0-.006v0l0,0,0-.006,0,0v0l0-.006v0a0,0,0,0,0,0,0l0-.006s0,0,0,0l0,0,0-.006a.032.032,0,0,0,0,0v0l0-.006,0,0a0,0,0,0,1,0,0l0-.006a0,0,0,0,1,0,0s0,0,0,0l0-.005s0,0,0,0v0l0-.006v0l0,0,0-.005,0,0s0,0,0,0l0-.006,0,0s0,0,0,0l0-.006,0,0v0l0-.006a.032.032,0,0,0,0,0l0,0,0-.005s0,0,0,0l0,0,0-.006v0s0,0,0,0l0-.005,0,0v0l0-.006,0,0,0,0,0-.006a0,0,0,0,1,0,0l0,0,0-.005a0,0,0,0,1,0,0l0,0,0-.006v0l0,0,0-.006v0l0,0,0-.005s0,0,0,0v0l0-.006,0,0v0l0-.006a0,0,0,0,1,0,0l0,0,0-.006v0l0,0,0-.005,0,0v0l0-.006s0,0,0,0l0,0,0-.006v0l0,0,0-.006s0,0,0,0l0,0,0-.006a.006.006,0,0,1,0,0v0l0-.005s0,0,0,0l0,0,0-.005v0l0,0,0-.005s0,0,0,0l0,0,0-.005s0,0,0,0v0l0-.006,0,0v0l0-.006,0,0,0,0,0-.006,0,0v0l0-.006v0l0,0,0-.006,0,0v0l0-.006,0,0v0l0-.006,0,0a0,0,0,0,1,0,0l0-.006,0,0a0,0,0,0,1,0,0l0-.006,0-.006,0-.005,0,0,0,0,0-.005a0,0,0,0,1,0,0v0l0-.005,0-.005,0-.006v0l0,0,0-.006,0,0,0,0,0-.005a.009.009,0,0,0,0,0l0,0,0-.005,0,0,0,0,0-.006,0,0v0l0-.006a.015.015,0,0,1,0-.005l0-.005,0,0a.006.006,0,0,1,0,0l0-.005,0-.005,0-.006a.015.015,0,0,1,0-.005l0-.006v0l0,0,0-.005a0,0,0,0,0,0,0l0,0,0-.005,0-.006,0-.006,0-.005,0-.006,0-.005,0-.005,0-.005,0-.006,0,0,0,0,0-.005v0l0,0,0-.006v0a0,0,0,0,0,0,0l0-.005a.018.018,0,0,0,0-.005l0-.005,0,0v0l0-.006,0,0a.006.006,0,0,1,0,0l0-.005,0-.006,0-.005,0-.006,0-.005,0-.005,0-.005,0,0,0,0,0-.005,0-.005,0-.005,0-.006,0-.005,0,0v0l0-.006a.015.015,0,0,0,0-.005l0-.005,0,0v0l0-.005v0l0,0,0-.005,0,0,0,0,0-.005,0-.006,0-.006,0-.005,0-.006,0-.005,0,0,0,0,0,0,0-.006,0-.005,0-.005,0,0v0l0-.006,0-.005,0-.005h0l0,0,0-.005,0,0h0l0-.006,0-.005,0-.005,0-.005,0-.005,0,0v0l0-.005,0-.005,0,0,0,0,0,0,0-.005a.018.018,0,0,0,0-.005l0-.005,0-.005,0-.006a.013.013,0,0,0,0-.005l0,0s0,0,0,0v0l0-.005s0,0,0,0l0,0,0-.006s0,0,0,0l0-.005,0,0,0,0,0-.005v0l0,0,0-.005,0-.005,0-.005s0,0,0,0l0-.005,0-.005,0-.005a.01.01,0,0,1,0,0l0-.005,0-.006,0-.005,0,0,0-.005,0-.005,0,0,0-.005,0,0,0-.005,0-.006,0,0v0l0,0,0,0,0,0,0,0a.018.018,0,0,0,0-.005l0,0a.018.018,0,0,1,0-.005l0-.005,0,0,0,0,0-.005,0,0,0,0,0-.006,0-.005,0,0,0-.005,0,0,0-.005,0,0,0,0v0l0,0,0-.005,0,0,0,0v0l0,0,0,0,0-.005,0-.006,0,0,0,0,0-.006,0,0,0,0,0-.005,0,0,0-.005,0,0,0,0,0-.005,0,0,0,0,0,0,0-.005,0,0,0,0a.022.022,0,0,1,0-.006l0,0,0,0,0-.006,0,0,0,0,0,0,0-.006,0,0,0,0,0-.006,0,0,.005,0,0,0,0,0,0-.005,0,0,0,0,0,0,0-.005.005,0s0,0,0,0l0,0,0,0,0-.005.005,0,0,0,0,0,0,0,.005,0,0,0,0,0,0-.005.005,0,0,0,0,0,.005,0,0,0,0,0,0,0,.005,0,0,0,0,0,.005,0,0,0,.005,0,0,0,0,0,.005,0,0,0,.005,0,0,0,0,0,.005,0,0,0,.005,0,0,0,0,0,.005,0,0,0,.005,0s0,0,0,0l.005,0,0,0,.005,0,0,0,.005,0,0,0,.005,0,0,0,.006,0,.005,0,0,0,.005,0,0,0,.005,0,0,0,.005,0,.005,0,0,0,.005,0s0,0,0,0l.006,0,.005,0,0,0,.005,0,.005,0,0,0,.005,0,.005,0,0,0,.006,0,.005,0,.005,0,0,0,.005,0,.005,0,0,0,.005,0,.005,0,.005,0,0,0,.005,0,.005,0,.005,0,0,0,.006,0,.005,0,.005,0,0,0,.005,0,.006,0,.005,0,.005,0,.005,0,.005,0,0,0,.006,0,.005,0,.005,0,.005,0,.005,0,.005,0,.005,0,.005,0,0,0,.005,0,.005,0,.005,0,.005,0,.005,0,.006,0,.005,0,.005,0,.005,0,.005,0,.005,0,.005,0,.005,0,.005,0,.006,0,.005,0,.005,0,.005,0,.005,0,.005,0,.005,0,.005,0,.006,0,.005,0,.005,0,.005,0,.006,0,.005,0,0,0,.006,0,.005,0,.005,0,.005,0,.006,0,.005,0,.005,0,.006,0,.005,0,.005,0,.005,0,.005,0,.005,0,.005,0,.006,0,.005,0,.005,0,.005,0,.006,0,.006,0,.005,0,.006,0,.005,0,.006,0,.005,0,.005,0,.005,0,.006,0,.005,0,.005,0,.005,0,.006,0,.005,0,.005,0,.005,0,.006,0,.005,0,.005,0,.006,0,.005,0,.005,0,.006,0,.005,0,.005,0,.006,0,.005,0,.005,0,.006,0,.005,0,.005,0,.006,0,.005,0,.006,0,.005,0,.005,0,.006,0,.005,0,.006,0,.005,0,.005,0,.006,0,.005,0,.006,0,.005,0,.006,0,.005,0,.006,0,.005,0,.006,0,.005,0,.006,0,.005,0,.006,0,.005,0,.006,0,.005,0,.006,0,.005,0,.006,0,.006,0,.006,0,.005,0,.006,0,.005,0,.006,0,.005,0,.006,0,.005,0,.006,0,.006,0,.005,0,.006,0,.006,0,.005,0,.006,0,.005,0,.006,0,.006,0,.006,0,.006,0,.005,0,.006,0,.005,0,.006,0,.006,0,.006,0,.005,0,.006,0,.006,0,.005,0s0,0,.006,0l.005,0,.006,0,.006,0,.006,0,.005,0,.006,0,.006,0,.005,0,.006,0s0,0,.006,0l.005,0,.006,0,.006,0,.006,0,.006,0,.005,0,.006,0,.006,0,.005,0,.006,0,.006,0,.006,0,.006,0,.005,0,.006,0,.006,0,.006,0,.005,0,.006,0,.006,0,.006,0,.006,0,.005,0,.006,0,.006,0,.006,0,.006,0,.006,0,.005,0,.006,0,.006,0,.006,0,.006,0,.006,0,.006,0,.005,0,.006,0,.006,0,.006,0,.006,0,.006,0,.006,0,.006,0,.005,0,.006,0,.006,0,.006,0,.006,0,.006,0,.006,0,.006,0,.006,0,.006,0,.006,0,.005,0,.006,0,.006,0,.006,0,.006,0,.006,0,.006,0,.006,0,.006,0,.006,0,.006,0,.006,0,.006,0,.006,0,.006,0,.006,0,.006,0,.006,0,.006,0,.006,0,.006,0,.006,0,.006,0,.006,0,.006,0,.006,0,.006,0,.006,0,.006,0,.006,0,.006,0,.006,0,.006,0,.006,0,.006,0,.006,0,.006,0,.006,0,.006,0,.007,0,.006,0,.006,0,.006,0,.006,0,.006,0,.006,0,.006,0,.006,0,.006,0,.006,0h.006l.006,0,.006,0,.007,0,.006,0,.006,0,.006,0h.006l.006,0,.006,0,.006,0,.007,0h.006l.006,0,.006,0,.006,0h.006l.006,0,.006,0h.006l.007,0,.006,0h.006l.006,0,.006,0h.006l.006,0h.007l.006,0,.006,0h.006l.006,0h.007l.006,0h.006l.006,0h.006l.006,0h.007l.006,0h.006l.006,0h.006l.006,0h.014l.006,0h.006l.007,0h.019l.006,0h.013l.006,0h.013l.007,0h.019l.006,0h.033l.006,0h.026l.006,0h.118l.006,0h1.23l.007,0h.045l.006,0h.02l.006,0h.02l.006,0h.012l.007,0h.019l.007,0h.012l.006,0h.007l.006,0h.006l.006,0h.006l.006,0h.007l.006,0h.013l.006,0h.006l.007,0h.006l.006,0h.006l.006,0,.007,0h.006l.006,0,.006,0h.006l.006,0h.006l.007,0,.006,0h.006l.006,0,.006,0h.006l.006,0,.006,0h.007l.006,0,.006,0,.006,0h.006l.006,0,.006,0,.006,0,.006,0,.007,0h.006l.006,0,.006,0,.006,0,.006,0,.006,0,.006,0,.006,0h.007l.006,0,.006,0,.006,0,.006,0,.006,0,.006,0,.006,0,.006,0,.006,0,.006,0,.006,0,.006,0,.006,0,.006,0,.006,0,.006,0,.006,0,.007,0,.005,0,.006,0,.006,0,.006,0,.006,0,.007,0,.005,0,.006,0,.006,0,.006,0,.007,0,.005,0,.006,0,.006,0,.006,0,.006,0,.006,0,.006,0,.006,0,.006,0,.006,0,.006,0,.006,0,.006,0,.006,0,.006,0,.006,0,.006,0,.006,0,.006,0,.005,0,.006,0,.006,0,.006,0,.006,0,.006,0,.006,0,.006,0,.006,0,.006,0,.006,0,.006,0,.006,0,.006,0,.006,0,.006,0,.006,0,.006,0,.006,0,.006,0,.006,0,.006,0,.006,0,.006,0,.006,0,.005,0,.006,0,.006,0,.006,0,.006,0,.006,0,.005,0,.006,0,.006,0,.006,0,.006,0,.005,0,.006,0,.006,0,.006,0,.005,0,.006,0,.006,0,.006,0,.005,0,.006,0,.006,0,.006,0,.006,0,.006,0,.006,0,.005,0,.006,0,.006,0,.006,0,.005,0,.006,0,.006,0,.006,0,.006,0,.006,0,.005,0,.006,0,.006,0,.006,0,.005,0,.006,0,.006,0,.006,0,.006,0,.005,0,.006,0,.006,0,.005,0,.006,0,.006,0,.005,0,.006,0,.005,0,.006,0,.006,0,.006,0,.006,0,.005,0,.006,0,.005,0,.006,0,.005,0,.006,0,.006,0,.005,0,.006,0,.005,0,.006,0,.005,0,.006,0,.005,0,.006,0,.005,0,.006,0,.005,0,.006,0,.006,0,.006,0,.006,0,.006,0,.005,0,.006,0,.005,0,.006,0,.005,0,.005,0,.006,0,.005,0,.006,0,.005,0,.006,0,.005,0,.005,0,.006,0,.005,0,.005,0,.006,0,.005,0,.006,0,.005,0,.005,0,.006,0,.005,0,.005,0,.006,0,.005,0,.005,0,.006,0,.005,0,.005,0,.006,0,.005,0,.005,0,.006,0,.005,0,.006,0,.005,0,.006,0,.006,0,.005,0,.006,0a.011.011,0,0,0,.006,0l.005,0,.005,0,.006,0,.005,0,.005,0,.005,0,.005,0,.005,0,.006,0,.005,0,.005,0,.005,0,.006,0,.006,0,.005,0,.006,0,.005,0,.005,0,.005,0,.006,0,.005,0,.005,0,.005,0,.005,0,.005,0,.005,0,.006,0,.005,0,.005,0,.005,0,.006,0,.005,0,0,0,.005,0,.006,0,.005,0,.005,0,.006,0,.005,0,.005,0,.005,0,.005,0,.005,0,.005,0,.005,0,.005,0,.006,0,.005,0,.005,0,0,0,.005,0,.006,0,.005,0,.005,0,.005,0,.005,0,.005,0,.005,0,.005,0,.005,0,.006,0,0,0,.005,0,.005,0,.005,0,.005,0,.006,0s0,0,0,0l.005,0,.005,0,.005,0,.005,0,.006,0,0,0,.005,0,.005,0,.005,0,0,0,.005,0,.005,0,.005,0,0,0,.005,0,.005,0,0,0,.005,0,.006,0,.005,0,0,0,.005,0,.005,0,0,0,.005,0,.005,0,0,0,.006,0,.005,0s0,0,0,0l.005,0,0,0,.005,0,.005,0,0,0,.005,0,0,0,.005,0,0,0,.006,0,.005,0s0,0,0,0l.005,0,0,0,.005,0,0,0,.005,0,0,0,.005,0s0,0,0,0l.005,0,0,0,.005,0,0,0,.005,0,0,0,0,0,.005,0,0,0,.005,0,0,0,.006,0,0,0,0,0,.006,0,0,0,0,0,.006,0,0,0,.005,0,0,0,0,0,0,0,.006,0,0,0,0,0,.005,0,0,0,0,0,.005,0,0,0,0,.005,0,0,0,0,.005,0,0,0,0,0,0,.005.005,0,0,0,0,0,0,0,0,0,.006.005,0,0,0,0,0,0,0,.005,0,0,0,0,.005,0a.01.01,0,0,0,0,0l0,.005,0,0,0,0,0,.005,0,0,0,0,0,.005,0,0,0,0,0,.005,0,0,0,0,0,.005,0,0,0,.005s0,0,0,0l0,0a.018.018,0,0,1,0,.005l0,0,0,0,0,.005,0,0,0,.005s0,0,0,0l0,0,0,.005,0,.005,0,0,0,0,0,.005,0,.006s0,0,0,0l0,0,0,.005,0,.006s0,0,0,0l0,.005,0,0,0,.005,0,0,0,.005,0,0,0,0,0,.005v0l0,0,0,.005,0,.005,0,0,0,0v0l0,.005,0,0,0,.005,0,0,0,0,0,0,0,.005,0,0,0,.005,0,.005,0,0,0,0,0,.006,0,0v0l0,.005,0,0,0,.005,0,.005,0,.006h0l0,0,0,.005,0,0,0,0,0,0,0,.005,0,.005,0,.005,0,0s0,0,0,.005l0,.005v0l0,0,0,.005s0,0,0,0l0,.006,0,0s0,0,0,0l0,.005,0,.005,0,.005,0,0,0,.006,0,0v0l0,.005,0,.005,0,.005,0,0,0,0,0,.005,0,.005,0,.005a.016.016,0,0,1,0,.006l0,0v0l0,0,0,.005,0,0v0l0,.006,0,.005,0,.005,0,.005,0,.005v0l0,0,0,.005,0,0,0,0,0,.005v0l0,0,0,.005,0,.005,0,.005,0,0,0,0,0,.005,0,.005,0,.005,0,.006,0,.005,0,0,0,0,0,.006h0l0,0,0,.005a.018.018,0,0,0,0,.005l0,.005,0,0,0,0,0,.005,0,.005,0,.006,0,0,0,0,0,.006,0,.006,0,.005,0,.005,0,.005,0,0a0,0,0,0,0,0,0l0,.005,0,0,0,0,0,.005,0,0a0,0,0,0,0,0,0l0,.005,0,.005,0,.006,0,0,0,0,0,.005a.006.006,0,0,0,0,0v0l0,.005,0,.006,0,.005,0,0,0,0,0,.005a0,0,0,0,0,0,0,0,0,0,0,1,0,0l0,.005,0,.005,0,.006v0l0,0,0,.005,0,0,0,0,0,.005a.014.014,0,0,0,0,.006l0,.005,0,0v0l0,.006,0,0,0,0,0,.005v0l0,0,0,.005,0,0,0,0,0,.006,0,0,0,0,0,.005s0,0,0,0l0,0,0,.005v0l0,0,0,.005,0,0,0,0,0,.006,0,.005,0,.006v0l0,0,0,.005v0l0,0,0,.005v0a0,0,0,0,1,0,0l0,.005,0,.005,0,.006,0,0v0l0,.006,0,0v0l0,.006v0l0,0,0,.006,0,0a0,0,0,0,0,0,0l0,.006,0,0v0l0,.006,0,0,0,0,0,.006,0,0,0,0,0,.006v0l0,0,0,.006a.032.032,0,0,1,0,0l0,0,0,.006,0,0,0,0,0,.006a.006.006,0,0,0,0,0v0l0,.006,0,0,0,0,0,.006,0,0a.032.032,0,0,1,0,0l0,.005a.005.005,0,0,1,0,0l0,0,0,.005,0,0v0l0,.006,0,0,0,0,0,.006v0l0,0,0,.006v0a.008.008,0,0,1,0,0l0,.005,0,0,0,0,0,.005s0,0,0,0v0l0,.006,0,0v0l0,.006,0,0a0,0,0,0,1,0,0l0,.005a0,0,0,0,1,0,0l0,0,0,.006s0,0,0,0l0,0,0,.006v0l0,0,0,.005v0l0,0,0,.006v0l0,0,0,.006v0l0,0,0,.006v0l0,0,0,.006a0,0,0,0,0,0,0,.007.007,0,0,1,0,0l0,.005v0l0,0,0,.006,0,0s0,0,0,0l0,.005v0s0,0,0,0l0,.006v0l0,0,0,.005,0,0v0l0,.006s0,0,0,0v0l0,.005a.032.032,0,0,0,0,0l0,0,0,.006a0,0,0,0,1,0,0l0,0,0,.005a0,0,0,0,0,0,0l0,0,0,.006,0,0v0l0,.006a.019.019,0,0,1,0,0s0,0,0,0l0,.005s0,0,0,0,0,0,0,0l0,.006a0,0,0,0,0,0,0s0,0,0,0l0,.006v0l0,0,0,.006s0,0,0,0l0,0,0,.006s0,0,0,0v0l0,.006s0,0,0,0,0,0,0,0l0,.006,0,0v0l0,.006v0l0,0,0,.006v0l0,0,0,.006,0,0a0,0,0,0,0,0,0l0,.006s0,0,0,0,0,0,0,0l0,.006v0l0,0,0,.006,0,0v0l0,.006s0,0,0,0a0,0,0,0,1,0,0l0,.006v.006l0,.006s0,0,0,0v0l0,.006a0,0,0,0,0,0,0s0,0,0,0l0,.007s0,0,0,0v0l0,.006v.006l0,.006,0,0v0l0,.006a.005.005,0,0,1,0,0,0,0,0,0,1,0,0l0,.006v.006l0,.006s0,0,0,0v0l0,.006a0,0,0,0,0,0,0v0l0,.006,0,0v0l0,.006a0,0,0,0,0,0,0s0,0,0,0l0,.006v0s0,0,0,0l0,.006s0,0,0,0v0l0,.006a.007.007,0,0,0,0,0,0,0,0,0,0,0,0l0,.006a0,0,0,0,0,0,0v0l0,.006v.006l0,.006,0,0v0l0,.006a.007.007,0,0,1,0,0,0,0,0,0,1,0,0l0,.006a0,0,0,0,1,0,0,.005.005,0,0,1,0,0l0,.006s0,0,0,0v0l0,.007s0,0,0,0,0,0,0,0v.006a0,0,0,0,1,0,0s0,0,0,0l0,.006v0s0,0,0,0l0,.006a0,0,0,0,1,0,0v0l0,.006v0s0,0,0,0l0,.006s0,0,0,0a0,0,0,0,0,0,0v.006a.009.009,0,0,1,0,0,0,0,0,0,1,0,0l0,.007v0s0,0,0,0l0,.006v0a0,0,0,0,0,0,0l0,.006v0a.007.007,0,0,1,0,0l0,.006v.006l0,.007a.007.007,0,0,0,0,0v0l0,.006v0s0,0,0,0l0,.006v0a.006.006,0,0,1,0,0l0,.006v.015s0,0,0,0l0,.006s0,0,0,0v0l0,.006s0,0,0,0v.008s0,0,0,0,0,0,0,0v.006a0,0,0,0,1,0,0,.005.005,0,0,1,0,0l0,.006v.006l0,.006v0s0,0,0,0l0,.006v0a.006.006,0,0,1,0,0l0,.006a.005.005,0,0,0,0,0v0l0,.006v0a.007.007,0,0,1,0,0l0,.006a.75.75,0,0,1-.585.885.75.75,0,0,1-.885-.585.008.008,0,0,1,0,0,.007.007,0,0,1,0,0,.014.014,0,0,1,0-.005,0,0,0,0,1,0,0s0,0,0,0a.007.007,0,0,1,0,0,.014.014,0,0,1,0-.005,0,0,0,0,1,0,0,.049.049,0,0,1,0-.006v0l0,0a.009.009,0,0,0,0,0,.008.008,0,0,0,0,0s0,0,0,0a.008.008,0,0,0,0,0,.007.007,0,0,0,0,0s0,0,0,0a.019.019,0,0,0,0,0,.036.036,0,0,0,0,0,.007.007,0,0,1,0,0,.008.008,0,0,1,0,0s0,0,0,0,0,0,0,0a.009.009,0,0,0,0,0s0,0,0,0a.006.006,0,0,1,0,0s0,0,0-.006l0,0a.013.013,0,0,0,0-.005,0,0,0,0,0,0,0,.036.036,0,0,0,0,0s0,0,0,0l0,0s0,0,0,0a.008.008,0,0,0,0,0s0,0,0,0a.008.008,0,0,1,0,0,.007.007,0,0,1,0,0s0,0,0,0,0,0,0,0,0,0,0,0a.007.007,0,0,0,0,0,.006.006,0,0,0,0,0s0,0,0,0a.009.009,0,0,1,0,0l0,0s0,0,0,0v0l0-.005a.009.009,0,0,0,0,0,.031.031,0,0,1,0,0s0,0,0,0,0,0,0-.005,0,0,0,0,0,0,0,0,0,0,0,0a.011.011,0,0,1,0,0l0,0a.04.04,0,0,1,0,0l0,0s0,0,0,0,0,0,0,0l0,0v0l0-.005v0s0,0,0,0,0,0,0,0a.007.007,0,0,0,0,0,.005.005,0,0,0,0,0s0,0,0-.005l0,0s0,0,0,0l0,0s0,0,0-.005l0,0s0,0,0,0l0,0s0,0,0,0l0,0s0,0,0,0l0,0a.012.012,0,0,0,0-.005.007.007,0,0,0,0,0s0,0,0,0a.005.005,0,0,0,0,0l0,0s0,0,0,0l0,0v0a.012.012,0,0,1,0-.005l0,0s0,0,0,0l0,0s0,0,0,0a.005.005,0,0,0,0,0l0,0s0,0,0,0l0,0,0,0v0s0,0,0,0,0,0,0,0a.005.005,0,0,1,0,0,.008.008,0,0,1,0,0l0,0s0,0,0,0l0,0a.017.017,0,0,1,0-.005l0,0s0,0,0,0a.006.006,0,0,1,0,0,.011.011,0,0,1,0-.005l0,0,0,0s0,0,0,0l0,0,0,0s0,0,0,0,0,0,0,0a.007.007,0,0,1,0,0l0,0a.035.035,0,0,0,0-.005l0,0s0,0,0,0l0,0,0,0s0,0,0,0a.012.012,0,0,1,0-.005l0,0s0,0,0,0l0,0a.014.014,0,0,0,0-.005v0l0,0,0,0s0,0,0-.005l0,0s0,0,0,0a.006.006,0,0,0,0,0s0,0,0,0,0,0,0,0l0,0a.006.006,0,0,0,0,0,.011.011,0,0,0,0-.005v0s0,0,0,0a0,0,0,0,1,0,0l0,0v0l0,0v0a.008.008,0,0,1,0,0l0,0,0,0a.019.019,0,0,1,0,0l0,0,0,0,0,0,0,0a.006.006,0,0,0,0,0l0,0s0,0,0,0,0,0,0,0l0,0,0,0a.007.007,0,0,1,0,0,0,0,0,0,1,0,0l0,0,0,0s0,0,0,0l0,0s0,0,0,0l0,0,0-.005v0l0,0s0,0,0,0,0,0,0,0v0l0,0s0,0,0,0,0,0,0,0l0,0s0,0,0,0a0,0,0,0,1,0,0l0,0,0,0,0,0v0l0,0,0,0,0,0,0,0s0,0,0,0,0,0,0,0a.006.006,0,0,1,0,0l0,0s0,0,0,0v0l0,0,0,0,0,0a0,0,0,0,0,0,0s0,0,0,0l0,0,0,0,0,0,0,0,0,0,0,0,0,0s0,0,0,0l0,0a.009.009,0,0,0,0,0,.006.006,0,0,1,0,0l0,0,0,0,0,0s0,0,0,0a0,0,0,0,1,0,0l0,0,0,0,0,0a.006.006,0,0,1,0,0l0,0,0,0,0,0,0,0,0,0,0,0,0,0,0,0,0,0,0,0a0,0,0,0,0,0,0l0,0a0,0,0,0,0,0,0l0,0a0,0,0,0,1,0,0l0,0s0,0,0,0l0,0v0l0,0,0,0a.009.009,0,0,0,0,0,.006.006,0,0,0,0,0l0,0,0,0,0,0,0,0,0,0,0,0,0,0s0,0,0,0l0,0,0,0,0,0,0,0s0,0,0,0l0,0,0,0,0,0s0,0,0,0l0,0,0,0a0,0,0,0,1,0,0,0,0,0,0,1,0,0l0,0,0,0,0,0,0,0,0,0,0,0a.006.006,0,0,1,0,0s0,0,0,0a0,0,0,0,0,0,0l0,0,0,0,0,0s0,0,0,0l0,0,0,0,0,0,0,0,0,0a0,0,0,0,1,0,0s0,0,0,0a0,0,0,0,0,0,0l0,0,0,0,0,0,0,0,0,0,0,0,0,0,0,0,0,0,0,0,0,0,0,0,0,0,0,0,0,0,0,0,0,0,0,0,0,0,0,0,0,0,0,0,0,0,0,0,0,0s0,0,0,0l0,0,0,0,0,0,0,0,0,0,0,0,0,0,0,0,0,0,0,0,0,0,0,0,0,0,0,0,0,0,0,0,0,0,0,0,0,0,0,0,0,0,0,0,0,0,0,0,0,0,0,0,0,0,0,0a.006.006,0,0,0,0,0l0,0,0,0,0,0,0,0,0,0,0,0,0,0,0,0,0,0,0,0,0,0,0,0,0,0,0,0,0,0,0,0,0,0a.006.006,0,0,0,0,0l0,0,0,0,0,0,0,0,0,0,0,0,0,0a.012.012,0,0,1,0,0l0,0,0,0,0,0,0,0,0,0,0,0,0,0,0,0,0,0,0,0,0,0,0,0,0,0,0,0,0,0,0,0,0,0,0,0,0,0,0,0,0,0,0,0s0,0,0,0,0,0,0,0l0,0,0,0,0,0s0,0,0,0l0,0,0,0,0,0,0,0,0,0,0,0-.005-.005,0,0,0,0,0,0,0,0,0,0,0,0,0,0,0,0,0,0,0,0,0,0,0,0,0,0s0,0,0,0,0,0,0,0l0,0,0,0s0,0,0,0l0,0,0,0,0,0,0,0,0,0,0,0-.005-.005,0,0a.006.006,0,0,0,0,0l0,0,0,0-.006-.005,0,0,0,0,0,0,0,0-.006-.005,0,0s0,0,0,0l-.006-.005,0,0,0,0,0,0,0,0,0,0,0,0-.005-.005,0,0,0,0,0,0,0,0,0,0,0,0,0,0,0,0,0,0,0,0s0,0,0,0l0,0,0,0,0,0-.006-.006,0,0,0,0,0,0,0,0,0,0,0,0-.006,0,0,0,0,0-.006,0-.007-.005-.007-.005,0,0,0,0,0,0,0,0-.006-.005-.007-.005,0,0s0,0,0,0l-.005,0,0,0,0,0-.007,0-.006-.005-.008,0,0,0,0,0-.006-.006-.007-.005,0,0,0,0-.006,0-.008,0-.007-.005-.007,0-.007-.005-.007,0-.007-.005-.007,0-.007-.005-.008,0-.006,0,0,0,0,0-.006,0-.008,0-.008-.005-.006,0-.008,0-.007,0-.008-.005-.007,0-.007,0-.008,0-.007,0-.007,0-.008,0-.006,0-.009,0-.007,0-.007,0-.008,0-.008,0-.006,0-.008,0-.008,0-.007,0-.008,0-.007,0-.008,0-.008,0-.007,0-.008,0-.007,0-.008,0-.008,0-.008,0-.007,0-.008,0-.008,0-.007,0-.008,0-.008,0-.008,0-.007,0-.008,0-.008,0-.008,0-.007,0-.009,0-.007,0-.008,0-.008,0-.008,0-.008,0-.008,0-.007,0-.008,0-.009,0a.016.016,0,0,0-.007,0l-.008,0-.009,0-.007,0-.008,0-.008,0-.008,0-.009,0-.007,0-.009,0-.008,0-.008,0-.008,0-.008,0-.008,0a.016.016,0,0,1-.007,0l-.01,0-.007,0-.009,0-.008,0-.007,0-.009,0-.009,0-.007,0-.008,0-.008,0-.009,0-.008,0-.008,0-.009,0-.008,0-.008,0-.008,0-.009,0-.008,0-.008,0-.008,0-.009,0-.009,0-.008,0-.007,0-.01,0-.008,0-.008,0-.009,0a.021.021,0,0,0-.008,0l-.009,0-.008,0-.008,0-.008,0-.009,0-.008,0-.009,0-.008,0-.009,0-.008,0-.009,0-.008,0-.009,0-.008,0-.009,0-.008,0-.009,0-.008,0-.009,0-.008,0-.008,0-.01,0-.008,0-.009,0-.009,0-.008,0-.008,0-.009,0-.009,0-.008,0h-.008l-.009,0-.009,0-.009,0-.008,0h-.009l-.008,0-.009,0h-.009l-.008,0-.009,0h-.018l-.009,0h-.007l-.01,0h-.007l-.01,0h-.017l-.009,0h-.034l-.01,0h-.715l-.008,0h-.018l-.008,0h-.018l-.008,0h-.009l-.009,0h-.008l-.009,0h-.009l-.009,0h-.008l-.009,0h-.009l-.008,0-.009,0-.008,0h-.009l-.009,0-.008,0-.009,0-.008,0h-.009l-.009,0-.008,0-.009,0-.008,0-.009,0h-.008l-.009,0-.009,0-.008,0-.009,0-.008,0-.009,0-.008,0-.009,0-.008,0-.009,0-.008,0-.009,0-.008,0-.009,0-.008,0-.008,0-.009,0-.008,0-.009,0-.008,0-.009,0-.008,0-.008,0-.009,0-.008,0-.009,0-.008,0a.021.021,0,0,0-.008,0,.026.026,0,0,0-.009,0l-.008,0-.008,0-.009,0-.008,0-.008,0-.008,0-.009,0-.008,0a.022.022,0,0,1-.008,0l-.009,0-.008,0-.008,0-.008,0-.008,0-.009,0-.008,0-.008,0-.008,0-.008,0-.009,0-.008,0-.008,0-.008,0-.008,0-.008,0-.008,0-.009,0-.008,0-.008,0-.008,0-.008,0-.008,0-.008,0-.008,0-.008,0-.008,0-.008,0-.008,0-.008,0-.008,0-.008,0-.008,0-.007,0-.008,0-.008,0-.008,0-.008,0-.008,0-.008,0-.007,0-.008,0-.008,0-.008,0-.008,0-.007,0-.008,0-.008,0-.008,0-.007,0-.008,0-.008,0-.007,0-.008,0-.008,0-.007,0-.008,0-.008,0-.007,0-.008,0-.007,0-.008,0-.007,0-.008,0-.008,0-.007,0-.007,0-.008,0-.007,0-.008,0-.007,0-.008,0-.007,0-.007.005-.008,0-.007.005-.007,0-.008,0-.007,0-.007,0-.008,0-.007,0-.007.005-.008,0,0,0-.006,0-.008.005-.007,0-.007,0-.007.005,0,0a.007.007,0,0,0,0,0l-.007,0-.007,0-.007.006a.017.017,0,0,0-.007.005l-.007,0-.008.005-.007,0-.006.005,0,0,0,0-.006,0-.007.005s-.005,0-.007.006l-.007,0,0,0-.007,0s0,0-.006.006l0,0-.007,0-.006.005,0,0,0,0-.007.005,0,0,0,0,0,0-.007.005-.007.006,0,0,0,0,0,0,0,0,0,0-.006.005,0,0-.007.005-.007.005,0,0,0,0,0,0-.006,0,0,0,0,0,0,0,0,0,0,0,0,0,0,0s0,0,0,0l0,0,0,0-.006.006,0,0,0,0,0,0,0,0,0,0,0,0,0,0,0,0,0,0,0,0,0,0,0,0,0,0,0,0,0,0,0,0-.005.005,0,0,0,0,0,0,0,0,0,0,0,0,0,0,0,0,0,0,0,0,0,0,0,0,0,0,0,0,0,0,0,0,0,0,0,0,0,0,0,0,0,0,0,0,0,0,0,0,0,0,0,0,0,0,0,0,0,0,0,0,0,0,0,0,0,0s0,0,0,0l0,0,0,0,0,0,0,0,0,0,0,0,0,0,0,0s0,0,0,0l0,0,0,0,0,0,0,0,0,0,0,0,0,0,0,0,0,0,0,0,0,0,0,0s0,0,0,0l0,0,0,0,0,0,0,0,0,0,0,0,0,0,0,0,0,0,0,0,0,0,0,0,0,0,0,0,0,0-.005.006,0,0,0,0,0,0,0,0,0,0,0,0,0,0,0,0,0,0,0,0,0,0,0,0,0,0s0,0,0,0l0,0,0,0,0,0,0,0,0,0,0,0,0,0,0,0,0,0,0,0a.006.006,0,0,0,0,0l0,0,0,0,0,0,0,0,0,0,0,0,0,0,0,0,0,0a.012.012,0,0,0,0,0l0,0,0,0,0,0a.01.01,0,0,1,0,0l0,0,0,0,0,0,0,0,0,0a.015.015,0,0,1,0,0l0,0,0,0,0,0,0,0,0,0,0,0,0,0,0,0,0,0,0,0,0,0,0,0s0,0,0,0l0,0,0,0,0,0,0,0,0,0,0,0,0,0a.006.006,0,0,0,0,0,.009.009,0,0,0,0,0s0,0,0,0l0,0,0,0,0,0,0,0,0,0,0,0,0,0,0,0,0,0,0,0,0,0,0,0,0,0,0,0,0,0,0,0,0,0,0,0s0,0,0,0a0,0,0,0,1,0,0l0,0,0,0,0,0,0,0,0,0,0,0,0,0s0,0,0,0l0,0a0,0,0,0,1,0,0,0,0,0,0,0,0,0l0,0,0,0,0,0,0,0,0,0a.006.006,0,0,0,0,0l0,0,0,0,0,0,0,0,0,0,0,0s0,0,0,0l0,0,0,0s0,0,0,0l0,0,0,0s0,0,0,0l0,0,0,0,0,0s0,0,0,0l0,0a0,0,0,0,0,0,0l0,0,0,0s0,0,0,0l0,0,0,0,0,0s0,0,0,0l0,0,0,0,0,0,0,0,0,0,0,0,0,0,0,0,0,0,0,0,0,0,0,0,0,0a.007.007,0,0,1,0,0l0,0,0,0,0,0,0,0s0,0,0,0l0,0a0,0,0,0,1,0,0l0,0a0,0,0,0,1,0,0l0,0v0l0,0s0,0,0,0l0,0,0,0,0,0a.006.006,0,0,0,0,0,.012.012,0,0,0,0,.006l0,0,0,0,0,0,0,0v0l0,0,0,0,0,0,0,0a.007.007,0,0,1,0,0l0,0a.011.011,0,0,0,0,0,0,0,0,0,0,0,0s0,0,0,0l0,0,0,0v0l0,0s0,0,0,0,0,0,0,0,0,0,0,0l0,0,0,0s0,0,0,0l0,0a.008.008,0,0,0,0,0l0,0,0,0a.006.006,0,0,1,0,0s0,0,0,0l0,0,0,0,0,0,0,.005v0l0,0,0,0a.009.009,0,0,1,0,0l0,0,0,0,0,0,0,0a0,0,0,0,1,0,0l0,0,0,0,0,.006v0s0,0,0,0,0,0,0,0l0,0s0,0,0,0a.008.008,0,0,0,0,0l0,0a.011.011,0,0,0,0,0s0,0,0,0,0,0,0,0,0,0,0,0l0,0,0,0,0,0,0,0,0,0,0,0s0,0,0,0v0l0,0v0s0,0,0,0l0,0s0,0,0,0l0,0a.007.007,0,0,1,0,0,.007.007,0,0,0,0,0l0,0v0s0,0,0,0,0,0,0,0,0,0,0,0v0l0,.006a0,0,0,0,1,0,0l0,0,0,0a.012.012,0,0,1,0,.005s0,0,0,0,0,0,0,0,0,0,0,0l0,0s0,0,0,0l0,0s0,0,0,0,0,0,0,0v0s0,0,0,0,0,0,0,0a.013.013,0,0,1,0,.005v0a.007.007,0,0,1,0,0s0,0,0,0a.006.006,0,0,0,0,0l0,0v0l0,0,0,0v0l0,0a.008.008,0,0,0,0,0,.013.013,0,0,0,0,.005l0,0a.017.017,0,0,1,0,.006s0,0,0,0l0,0v0s0,0,0,0,0,0,0,0,0,0,0,0,0,0,0,0a.006.006,0,0,0,0,0s0,0,0,0,0,0,0,0,0,0,0,0a.031.031,0,0,1,0,0s0,0,0,0,0,0,0,0l0,0a.042.042,0,0,0,0,0s0,0,0,0,0,0,0,0l0,0s0,0,0,.005,0,0,0,0a.036.036,0,0,0,0,0s0,0,0,0a.008.008,0,0,1,0,0s0,0,0,0,0,0,0,.005,0,0,0,0,0,0,0,0a.007.007,0,0,1,0,0,.035.035,0,0,0,0,.005,0,0,0,0,1,0,0,.042.042,0,0,1,0,0l0,0a.031.031,0,0,0,0,0,.007.007,0,0,0,0,0,.012.012,0,0,0,0,.005s0,0,0,0l0,0a.01.01,0,0,1,0,0s0,0,0,.005a0,0,0,0,0,0,0s0,0,0,0,0,0,0,0a.006.006,0,0,0,0,0s0,0,0,0a.031.031,0,0,1,0,0s0,0,0,0,0,0,0,0,0,0,0,0,0,0,0,0a.006.006,0,0,0,0,0s0,0,0,0,0,0,0,0,0,0,0,0a.008.008,0,0,0,0,0l0,.005s0,0,0,0,0,0,0,0,0,0,0,0a.013.013,0,0,0,0,0l0,0a.01.01,0,0,1,0,0s0,0,0,0,0,0,0,.005a.007.007,0,0,0,0,0l0,0s0,0,0,0a.015.015,0,0,1,0,.006.006.006,0,0,1,0,0s0,0,0,0v0a.036.036,0,0,1,0,0,.007.007,0,0,0,0,0,.01.01,0,0,0,0,0,.006.006,0,0,0,0,0,.035.035,0,0,0,0,.005v0s0,0,0,0a.005.005,0,0,1,0,0,.011.011,0,0,1,0,.005v0s0,0,0,.006,0,0,0,0a.01.01,0,0,1,0,0v0s0,0,0,.006,0,0,0,0,0,0,0,0v0s0,0,0,.006v0s0,0,0,0a.006.006,0,0,1,0,0s0,0,0,.005v0a.007.007,0,0,1,0,0,.007.007,0,0,1,0,0,.013.013,0,0,1,0,0v0l0,.006v0a.008.008,0,0,0,0,0v0s0,0,0,.006v0s0,0,0,.005,0,0,0,0a.01.01,0,0,1,0,0v0a.015.015,0,0,0,0,.006v0s0,0,0,.005a.008.008,0,0,1,0,0v0s0,0,0,0a.011.011,0,0,0,0,.005v0a.008.008,0,0,1,0,0s0,0,0,0v0a.009.009,0,0,0,0,0s0,0,0,.005v0a.011.011,0,0,0,0,.005,0,0,0,0,0,0,0s0,0,0,.005v0a.008.008,0,0,0,0,0s0,0,0,0,0,0,0,0v.009s0,0,0,0v0a.01.01,0,0,0,0,0s0,0,0,0v0s0,0,0,0,0,0,0,0v.005s0,0,0,0a.011.011,0,0,1,0,.005v0a.04.04,0,0,0,0,0v0a.031.031,0,0,1,0,0v0a.01.01,0,0,0,0,.005.007.007,0,0,1,0,0v0a.009.009,0,0,1,0,0v0s0,0,0,0v.005s0,0,0,0v0a.009.009,0,0,0,0,0v.008a.011.011,0,0,1,0,.006v.009a.007.007,0,0,0,0,0v0a.007.007,0,0,1,0,0v0s0,0,0,0v.009a.01.01,0,0,0,0,0v0s0,0,0,0v0s0,0,0,.005v.009a.007.007,0,0,1,0,0v.009s0,0,0,0v.013a.009.009,0,0,0,0,0v0s0,0,0,.005v.03s0,0,0,0v.013a.008.008,0,0,0,0,0v.017s0,0,0,0v.026s0,0,0,.005v.03a.008.008,0,0,0,0,0v2.3h8.5l.009,0h.049l.008,0h.016l.009,0h.015l.009,0h.008l.008,0h.008l.008,0h.008l.008,0,.008,0,.008,0h.008l.008,0,.008,0,.008,0,.008,0h.008l.008,0,.008,0h.008l.008,0,.008,0,.008,0,.008,0,.007,0,.008,0,.008,0,.008,0,.008,0,.008,0,.008,0,.008,0,.008,0,.007,0,.008,0,.008,0,.008,0,.008,0,.008,0,.007,0,.008,0,.008,0,.008,0,.008,0,.007,0,.008,0,.008,0,.007,0,.008,0,.008,0,.008,0,.007,0,.008,0,.007,0,.008,0,.008,0,.007,0,.008,0,.008,0,.007,0,.008,0,.007,0,.008,0,.007,0,.008,0,.007,0,.008,0,.007,0,.008,0,.007,0,.008,0,.007,0,.007,0,.008,0,.007,0,.008,0,.007,0,.007,0,.008,0a.016.016,0,0,0,.007,0l.007,0,.007,0,.008,0,.007,0,.007,0,.007,0,.007,0,.008,0,.007,0a.016.016,0,0,0,.007,0l.007,0,.007,0,.007,0,.007,0,.007,0,.007,0,.007,0,.007,0,.008,0,.006,0,.007,0,.007,0,.007,0,.007,0,.007,0,.007,0,.007,0,.007,0,.007,0,.006,0,.007,0,.007,0,.006,0,.007.005.007,0,.007,0,.006.006.007,0,.007.005.006,0,.007,0,.006,0,.007,0,.007,0,.006.005a.015.015,0,0,1,.006,0l.007,0,.007,0,.006.005.006,0,.007.005.006,0,.007,0,.006.005.006,0,.007.005.006,0,0,0,0,0,.006,0,.007.005.006.005.006.006.006,0,0,0,0,0,.006.005.006,0,.006.005.007.005.006.005s0,0,0,0l0,0,.005.005,0,0,0,0,.007.006.005.005.006.005,0,0,0,0,.006.005.006.005.006.005,0,0,0,0,.005.005.006.006.006.006,0,0,0,0,.006.005.006.005.005.006,0,0,0,0,.005.005s0,0,0,0l0,0,.006.005,0,0s0,0,0,0l.006.005,0,0,0,0,.006.006,0,0,0,0,.005.005,0,0,0,0,.005.005,0,0,0,0,.006.005,0,0,0,0,.005.006,0,0,0,0,.005.005,0,0,0,0,.005.006,0,0,0,0,.005.005,0,0,0,0,.005.006,0,0,0,0,.005.006s0,0,0,0l0,0,.005.006,0,0,0,0,.005.006,0,0,0,0,.006.006,0,0,0,0,.005.006,0,0,0,0,.005.006,0,0,0,0,0,.006,0,0,0,0,.005.006,0,0,0,0,.005.006,0,0,0,0,0,.006,0,0,0,0,.005.007,0,0s0,0,0,0l.005.006,0,0,0,0,.005.007,0,0,0,0,0,.007,0,0,0,0,.005.007a0,0,0,0,1,0,0l0,0,0,.007,0,0,0,0,0,.007s0,0,0,0a.006.006,0,0,0,0,0l0,.006s0,0,0,0l0,0,0,.006,0,0,0,0,0,.007,0,0,0,0,0,.007,0,0,0,0,0,.007a.006.006,0,0,1,0,0l0,0,0,.007,0,0,0,0,0,.007s0,0,0,0l0,0,0,.007,0,0,0,0,0,.006,0,0a0,0,0,0,0,0,0l0,.007,0,0,0,0,0,.007,0,0,0,0,0,.007,0,0,0,0,0,.007,0,0v0l0,.007v0l0,0,0,.008,0,0,0,.005,0,.007,0,0v0l0,.007,0,0,0,0,0,.008,0,0a.008.008,0,0,0,0,0l0,.007s0,0,0,0l0,0,0,.007s0,0,0,0l0,0,0,.007,0,0,0,0,0,.008,0,0v0l0,.007,0,0s0,0,0,0l0,.007a0,0,0,0,0,0,0,.005.005,0,0,0,0,0l0,.008,0,0s0,0,0,0l0,.008a0,0,0,0,1,0,0s0,0,0,0l0,.008v0s0,0,0,0l0,.007s0,0,0,0,0,0,0,0l0,.008,0,0v0l0,.008,0,0a0,0,0,0,0,0,0l0,.008,0,0v0l0,.008s0,0,0,0,0,0,0,0l0,.008s0,0,0,0,0,0,0,0l0,.007,0,0s0,0,0,0l0,.008v0s0,0,0,0l0,.008v0l0,0,0,.007a.006.006,0,0,0,0,0s0,0,0,0l0,.008s0,0,0,0,0,0,0,0l0,.007a.006.006,0,0,1,0,0l0,0,0,.008v0a.009.009,0,0,1,0,0l0,.008,0,0a.007.007,0,0,0,0,0l0,.008,0,0a.007.007,0,0,0,0,0l0,.008a.006.006,0,0,1,0,0s0,0,0,0l0,.007s0,0,0,0a.031.031,0,0,0,0,0l0,.008a0,0,0,0,1,0,0,.035.035,0,0,1,0,.005l0,.008s0,0,0,0,0,0,0,0l0,.008s0,0,0,0,0,0,0,0l0,.008s0,0,0,0a.007.007,0,0,0,0,0l0,.007a.01.01,0,0,0,0,.005v0l0,.008s0,0,0,0v0l0,.008a.032.032,0,0,0,0,0,.031.031,0,0,0,0,0l0,.008s0,0,0,0,0,0,0,0l0,.008s0,0,0,0a.008.008,0,0,0,0,0v.008a.006.006,0,0,1,0,0,.009.009,0,0,1,0,0l0,.008s0,0,0,0a.01.01,0,0,0,0,0l0,.008a.014.014,0,0,0,0,.005v0l0,.008s0,0,0,0v0l0,.008s0,0,0,0v0l0,.008s0,0,0,0v0l0,.008a.008.008,0,0,0,0,0v0l0,.009a.01.01,0,0,0,0,0v.012a.031.031,0,0,1,0,0s0,0,0,0v.012a.031.031,0,0,1,0,0v.008s0,0,0,.005v.011s0,0,0,.005v.012a0,0,0,0,1,0,0v.013s0,0,0,0v.012a.008.008,0,0,0,0,0v.016a.009.009,0,0,1,0,0v.008a.011.011,0,0,1,0,.005v.014a.013.013,0,0,0,0,.005v.012a.036.036,0,0,1,0,0v.008a.005.005,0,0,1,0,0v.012s0,0,0,0v.018s0,0,0,0v5.385a.008.008,0,0,0,0,0v.049a.008.008,0,0,1,0,0v.06s0,0,0,.005v.008a.008.008,0,0,1,0,0v.015a.011.011,0,0,1,0,0v.008s0,0,0,.005v.011a.015.015,0,0,1,0,.006v.012a.009.009,0,0,1,0,0v.016a.007.007,0,0,0,0,0v.008a0,0,0,0,1,0,0v.014a.042.042,0,0,1,0,0s0,0,0,0v.012s0,0,0,0v.008s0,0,0,0v0l0,.008a.007.007,0,0,1,0,0v0l0,.008v0a.007.007,0,0,0,0,0l0,.008v0s0,0,0,.005l0,.008v0a.01.01,0,0,0,0,0l0,.008a.007.007,0,0,1,0,0v0l0,.008s0,0,0,0v0l0,.008a.008.008,0,0,1,0,0v0l0,.008s0,0,0,0v0l0,.008a.008.008,0,0,1,0,0s0,0,0,0l0,.008v0l0,0,0,.008a.007.007,0,0,1,0,0,.007.007,0,0,1,0,0l0,.008s0,0,0,0v0l0,.008v0s0,0,0,0l0,.008,0,0a.009.009,0,0,1,0,0l0,.008s0,0,0,0,0,0,0,0l0,.008a.031.031,0,0,0,0,0v0l0,.008s0,0,0,.005a0,0,0,0,1,0,0l0,.008,0,0a.007.007,0,0,1,0,0l0,.008,0,0v0l0,.008a.042.042,0,0,1,0,0v0l0,.008v0l0,0,0,.007s0,0,0,0v0l0,.008a.01.01,0,0,1,0,0s0,0,0,0l0,.007,0,0a.009.009,0,0,0,0,0l0,.008s0,0,0,0,0,0,0,0l0,.007,0,0s0,0,0,0l0,.008,0,0v0l0,.008s0,0,0,0a0,0,0,0,1,0,0l0,.008v0s0,0,0,0l0,.007,0,0s0,0,0,0l0,.008,0,0v0l0,.008v0s0,0,0,0l0,.008a0,0,0,0,0,0,0s0,0,0,0l0,.008,0,0a0,0,0,0,1,0,0l0,.008a.032.032,0,0,0,0,0l0,0,0,.007s0,0,0,0,0,0,0,0l0,.007,0,0,0,0,0,.007v0a.011.011,0,0,0,0,.005l0,.007s0,0,0,0,0,0,0,0l0,.007,0,0,0,0,0,.007s0,0,0,0l0,0,0,.008s0,0,0,0l0,0,0,.007v0l0,.005,0,.007a.007.007,0,0,0,0,0l0,0,0,.007,0,0v0l0,.007a0,0,0,0,1,0,0l0,0,0,.008a0,0,0,0,0,0,0l0,0,0,.007,0,0,0,0,0,.007a.006.006,0,0,1,0,0s0,0,0,0l0,.007v0l0,0,0,.007,0,0s0,0,0,0l0,.007s0,0,0,0l0,0,0,.007a0,0,0,0,0,0,0l0,0,0,.007,0,0,0,0,0,.007,0,0,0,0,0,.007,0,0,0,0,0,.007,0,0,0,0,0,.007,0,0,0,0,0,.007a.006.006,0,0,0,0,0l0,0,0,.006,0,0,0,0,0,.007,0,0,0,0,0,.007,0,0,0,0,0,.007,0,0,0,0,0,.007,0,0v0l-.006.007,0,0,0,0,0,.007,0,0,0,0,0,.007,0,0,0,0,0,.006,0,0,0,0,0,.006,0,0,0,0,0,.007,0,0,0,0,0,.006,0,0,0,0-.005.006,0,0,0,0,0,.007,0,0,0,0-.005.006,0,0,0,0,0,.006,0,0,0,0-.005.006,0,0,0,0-.005.006,0,0s0,0,0,0l-.006.006,0,0,0,0-.005.005,0,0,0,0-.005.006,0,0,0,0-.005.006s0,0,0,0l0,0-.006.005,0,0,0,0-.005.006,0,0,0,0-.006.005,0,0,0,0-.006.005,0,0s0,0,0,0l-.005.005,0,0,0,0-.006.005,0,0,0,0-.006.005-.005.006-.006.006,0,0,0,0-.006.005-.005.006-.006.006,0,0,0,0-.006.005-.005.006-.006.006,0,0,0,0-.006.005,0,0s0,0,0,0l-.006.005,0,0,0,0-.006,0,0,0,0,0-.006.005,0,0,0,0-.006.005,0,0,0,0-.006.005h0l0,0-.006,0,0,0,0,0-.006.005,0,0,0,0-.006.005a.017.017,0,0,0-.006,0l-.007.005-.006.005-.006,0-.006.005-.006.005-.007,0-.006.006-.006,0-.007.005-.006,0-.006.005-.006,0-.007.005,0,0,0,0-.007,0-.006.005-.007,0,0,0,0,0-.007,0-.006.005-.007,0-.006,0-.007,0-.007,0-.006,0-.007,0-.007,0-.006.005-.007,0-.007,0-.006,0-.007,0-.007,0-.007,0-.006,0-.007,0-.007,0-.007,0-.007,0-.007,0-.007,0-.007,0-.007,0-.007,0-.007,0-.007,0-.007,0-.007,0-.007,0-.007,0-.007,0-.007,0-.007,0-.007,0-.007,0-.007,0-.008,0-.007,0-.007,0-.007,0-.008,0a.016.016,0,0,1-.007,0l-.007,0-.007,0-.008,0-.007,0-.007,0-.008,0-.007,0-.007,0-.008,0-.007,0-.008,0-.007,0-.008,0-.007,0-.007,0-.008,0-.007,0-.008,0-.008,0-.007,0-.008,0-.007,0-.008,0-.007,0-.008,0-.007,0-.008,0-.008,0-.007,0-.008,0-.008,0-.007,0-.008,0-.008,0-.008,0-.007,0-.008,0-.008,0-.008,0-.007,0-.008,0-.008,0-.008,0-.008,0-.007,0-.008,0-.008,0-.008,0-.008,0-.007,0-.008,0-.008,0-.008,0-.008,0-.008,0-.008,0-.008,0-.008,0-.008,0-.008,0-.008,0-.008,0-.008,0-.007,0-.008,0-.008,0-.008,0-.008,0-.009,0h-.007l-.008,0-.008,0h-.009l-.008,0-.007,0h-.009l-.008,0h-.008l-.008,0h-.008l-.008,0h-.024l-.008,0h-.024l-.008,0h-.239Zm-10.646-8.242h-.042l-.006,0h-.011l0,0h-.006l-.006,0h0l-.005,0h-.005l-.005,0-.005,0h0l-.006,0h0l-.006,0-.005,0h0l-.005,0,0,0-.006,0-.005,0h0l-.005,0-.006,0,0,0-.006,0,0,0,0,0-.006,0,0,0,0,0,0,0-.005,0-.006,0,0,0-.005,0,0,0,0,0-.005,0,0,0-.006,0,0,0,0,0,0,0-.005,0,0,0-.006,0,0,0-.005,0,0,0,0,0,0,0-.005,0,0,0,0,0-.005,0,0,0,0,0,0,0,0,0-.006,0,0,0,0,0,0,0,0,0,0,0,0,0,0,0-.005,0,0,0,0,0,0,0,0,0,0,0,0,0,0,0,0,0a.006.006,0,0,1,0,0l0,0,0,0,0,0s0,0,0,0l0,0,0,0,0,0,0,0,0,0,0,0s0,0,0,0l0,0,0,0,0,0,0,0,0,0,0,0,0,0v0l0,0,0,0a.01.01,0,0,0,0,0h0s0,0,0,0a0,0,0,0,0,0,0l0,0,0,0,0,0h0l0,0,0,0v0l0,0,0,0v0l0,0,0,0v0l0,0,0,0,0,0,0,0v0l0,0,0,0,0,0a.006.006,0,0,1,0,0h0a0,0,0,0,1,0,0v0l0,0v0s0,0,0,0h0s0,0,0,0h0l0,0v0s0,0,0,0l0,0,0,0,0,0,0,0s0,0,0,0l0,0v0s0,0,0,0h0a0,0,0,0,1,0,0v0a0,0,0,0,0,0,0l0,0a.011.011,0,0,1,0,.005v0s0,0,0,0v.006s0,0,0,0l0,0a0,0,0,0,1,0,0v0l0,0v0l0,0s0,0,0,0,0,0,0,0h0v0s0,0,0,0v0l0,0h0a.007.007,0,0,0,0,0v0l0,0v0l0,0h0a.006.006,0,0,0,0,0v0s0,0,0,0,0,0,0,0a.032.032,0,0,0,0,0v.005h0a.006.006,0,0,1,0,0v0l0,0a.005.005,0,0,1,0,0v0a.005.005,0,0,1,0,0v0a.005.005,0,0,0,0,0v.006a.008.008,0,0,0,0,0v0s0,0,0,0v0a.009.009,0,0,0,0,0h0a0,0,0,0,1,0,0v0s0,0,0,0v0a0,0,0,0,1,0,0v.006s0,0,0,0v.007s0,0,0,0v0s0,0,0,0v0s0,0,0,0v.007s0,0,0,0h0a.006.006,0,0,1,0,0v0a.006.006,0,0,1,0,0v.013s0,0,0,0h0a.007.007,0,0,1,0,0v.006s0,0,0,0h0v.006s0,0,0,0v.023a.009.009,0,0,1,0,0v5.309a0,0,0,0,0,0,0v.014a.007.007,0,0,0,0,0v.008a.007.007,0,0,1,0,0v.007s0,0,0,0v.007a.005.005,0,0,1,0,0v.018s0,0,0,0v0s0,0,0,0v0a.04.04,0,0,0,0,0h0s0,0,0,0v0s0,0,0,0h0s0,0,0,0v0s0,0,0,0h0s0,0,0,0v0a0,0,0,0,0,0,0v.005a.006.006,0,0,0,0,0v.007a.005.005,0,0,1,0,0v0s0,0,0,0v.006a.007.007,0,0,0,0,0s0,0,0,0v0a.008.008,0,0,0,0,0h0a.006.006,0,0,1,0,0v0s0,0,0,0v0a0,0,0,0,0,0,0v0a0,0,0,0,1,0,0,0,0,0,0,1,0,0,.006.006,0,0,0,0,0v0l0,.005v0a.005.005,0,0,0,0,0v0a0,0,0,0,0,0,0v0s0,0,0,0h0a.009.009,0,0,0,0,0v0l0,0v0a0,0,0,0,0,0,0l0,0a0,0,0,0,0,0,0s0,0,0,0h0l0,0v0s0,0,0,0v.006a0,0,0,0,0,0,0,.007.007,0,0,0,0,0v0a.009.009,0,0,0,0,0l0,0a0,0,0,0,0,0,0s0,0,0,0h0l0,0v0l0,0s0,0,0,0v0l0,0,0,0s0,0,0,0,0,0,0,0l0,0,0,0v0l0,0v0l0,0h0s0,0,0,0l0,0,0,0,0,.005h0a0,0,0,0,0,0,0,.009.009,0,0,1,0,0l0,0v0l0,0h0l0,0a0,0,0,0,1,0,0l0,0,0,0s0,0,0,0l0,0v0l0,0s0,0,0,0v0l0,0,0,0,0,0,0,0,0,0v0l0,0,0,0,0,.005h0l0,0,0,0,0,0,0,0,0,0h0l0,0,0,0,0,0,0,0,0,0,0,0,0,0,0,0v0l0,0,0,0,0,0v0l0,0,0,0,0,0,0,0,0,0,0,0,0,0,0,0s0,0,0,0,0,0,0,0l0,0,0,0,0,0,.005,0,0,0,.005,0,0,0,0,0,0,0,.005,0,0,0,0,0,0,0,.005,0,0,0,0,0a.008.008,0,0,1,0,0l0,0,0,0,0,0,0,0,.005,0,0,0,.005,0,.005,0s0,0,0,0l.005,0,0,0,.006,0,0,0,.005,0,0,0,0,0,.005,0,0,0,.005,0,0,0,.005,0,0,0,0,0,.005,0,.005,0,0,0,0,0,.006,0,0,0,.005,0,.006,0,.005,0h0l.005,0,.005,0,0,0,.005,0,.005,0,.005,0,0,0,.005,0,.006,0h0l.005,0,.005,0h.006l.005,0h.005l.005,0h0l.006,0h0l.006,0h.011l0,0h.01l.007,0h10.778l.006,0h.016l.005,0h.005l.005,0h.005l.006,0h0l.005,0,.005,0h.005l.005,0,.006,0,0,0,.005,0,.005,0,0,0h.005l.005,0,0,0,.005,0,.006,0,.005,0,0,0,.005,0,0,0,.005,0,0,0,.005,0,.005,0,0,0,.005,0,0,0,.006,0s0,0,0,0l0,0,.006,0,0,0,.005,0,0,0,0,0s0,0,.005,0l0,0,0,0,0,0,.005,0,0,0,0,0,0,0,0,0,0,0,.005,0,0,0,.006,0,0,0,0,0,0,0,.005,0,0,0,0,0,0,0,0,0,0,0,0,0,0,0,0,0,0,0,0,0,0,0,0,0,0,0,0,0,0,0,0,0,0,0,0,0,0,0,0,0,0,0,0,0,0,0,0,0,0,0,0,0s0,0,0,0l0,0,0,0,0,0,0,0,0,0,0,0a.008.008,0,0,0,0,0l0,0,0,0,0,0,0,0,0,0,0,0v0l0,0,0,0a.008.008,0,0,0,0,0l0,0,0,0s0,0,0,0v0l0,0,0,0s0,0,0,0l0,0,0,0v0l0,0s0,0,0,0,0,0,0,0h0a0,0,0,0,0,0,0l0,0a0,0,0,0,0,0,0l0,0,0,0v0s0,0,0,0l0,0h0s0,0,0,0l0,0v0l0,0h0l0,0v0l0,0v0l0,0h0a.009.009,0,0,1,0,0h0v0l0,0a0,0,0,0,1,0,0s0,0,0,0h0v0s0,0,0,0l0,0v0a0,0,0,0,1,0,0v0a0,0,0,0,0,0,0h0v0s0,0,0,0l0,0s0,0,0,0,0,0,0,0v0l0,0v0h0s0,0,0,0,0,0,0,0v0l0,0h0l0,0v0a0,0,0,0,1,0,0v-.007s0,0,0,0h0a0,0,0,0,1,0,0v0s0,0,0,0v0a.006.006,0,0,1,0,0h0a.005.005,0,0,1,0,0v0s0,0,0,0,0,0,0,0a.008.008,0,0,0,0,0h0v0s0,0,0,0a.007.007,0,0,1,0,0h0a.006.006,0,0,0,0,0s0,0,0,0a0,0,0,0,1,0,0,.011.011,0,0,1,0,0h0v-.005a0,0,0,0,0,0,0,0,0,0,0,0,0,0,0,0,0,0,1,0,0v0s0,0,0,0,0,0,0,0,0,0,0,0,0,0,0,0v0a.008.008,0,0,0,0,0h0a.01.01,0,0,0,0,0h0s0,0,0,0v0s0,0,0,0v0s0,0,0,0v-.007a.04.04,0,0,1,0,0h0v-.015h0v-.006a.009.009,0,0,0,0,0h0a.007.007,0,0,1,0,0v0a0,0,0,0,1,0,0v-.005s0,0,0,0v-.007a.005.005,0,0,1,0,0v-.007a.008.008,0,0,1,0,0h0v0h0v-5.322a.007.007,0,0,1,0,0v-.016a0,0,0,0,1,0,0v-.005a.005.005,0,0,0,0,0v-.007s0,0,0,0v-.007s0,0,0,0v0s0,0,0,0v-.007a.013.013,0,0,1,0,0h0s0,0,0,0v-.008a0,0,0,0,0,0,0v0a.007.007,0,0,0,0,0v-.005s0,0,0,0a0,0,0,0,0,0,0v0s0,0,0,0v0a0,0,0,0,1,0,0s0,0,0,0v0s0,0,0,0v0a0,0,0,0,1,0,0,0,0,0,0,1,0,0,0,0,0,0,0,0,0v0a.042.042,0,0,0,0,0h0v-.005a.007.007,0,0,0,0,0h0s0,0,0,0v0a.007.007,0,0,0,0,0v0a.005.005,0,0,1,0,0l0,0v0l0,0v0s0,0,0,0h0s0,0,0,0a.04.04,0,0,0,0,0,0,0,0,0,1,0,0s0,0,0,0v0l0,0h0a.008.008,0,0,1,0,0v-.012s0,0,0,0l0,0s0,0,0,0a.018.018,0,0,1,0,0s0,0,0,0l0,0v0l0,0v-.007s0,0,0,0a.008.008,0,0,1,0,0s0,0,0,0l0,0v0a.019.019,0,0,0,0,0l0,0a0,0,0,0,0,0,0s0,0,0,0h0l0,0v0a.032.032,0,0,1,0,0l0,0a0,0,0,0,0,0,0l0,0v0l0,0,0,0v0l0,0h0a0,0,0,0,0,0,0s0,0,0,0l0,0s0,0,0,0h0s0,0,0,0v0l0,0v0a0,0,0,0,1,0,0h0l0,0v0l0,0,0,0,0,0,0,0,0,0v0l0,0h0l0,0h0l0,0,0,0,0,0a.006.006,0,0,0,0,0h0l0,0,0,0a.018.018,0,0,1,0-.006h0l0,0h0l0,0,0,0v0l0,0,0,0,0,0,0,0,0,0v0l0,0v0l0,0,0,0,0,0,0,0s0,0,0,0v0l0,0,0,0,0,0,0,0,0,0,0,0,0,0s0,0,0,0,0,0,0,0h0a.006.006,0,0,0,0,0l0,0,0,0,0,0,0,0,0,0,0,0,0,0,0,0,0,0-.006,0s0,0,0,0l0,0,0,0,0,0,0,0,0,0,0,0,0,0s0,0,0,0l0,0,0,0-.005,0,0,0,0,0-.005,0a.009.009,0,0,0,0,0l-.006,0,0,0-.006,0,0,0-.005,0,0,0,0,0-.006,0,0,0,0,0-.006,0,0,0-.005,0,0,0-.005,0,0,0-.006,0,0,0-.005,0,0,0,0,0-.006,0,0,0-.006,0,0,0,0,0,0,0-.006,0,0,0,0,0-.006,0,0,0-.006,0,0,0-.005,0,0,0-.006,0,0,0,0,0-.006,0-.005,0,0,0h-.005l-.005,0-.005,0h0l-.006,0-.006,0h-.009l-.005,0h-.012l0,0h-.021l-.005,0h-10.738Z" transform="translate(2502.5 2126.746)" fill="#7e72d1"/>
  </g>
</svg>
