<svg xmlns="http://www.w3.org/2000/svg" width="15.673" height="17.457" viewBox="0 0 15.673 17.457">
  <g id="user_icon" data-name="user icon" transform="translate(0.7 0.7)">
    <path id="Vector" d="M14.273,6.052a.7.7,0,0,1-.7-.7V5.347s0,0,0-.005V5.336s0,0,0-.006V5.325s0,0,0-.005V5.314s0,0,0-.005V5.3s0,0,0-.006V5.292s0,0,0-.005V5.281s0,0,0-.005V5.27s0,0,0-.006V5.259s0,0,0-.005V5.248s0,0,0-.005V5.237s0,0,0-.006V5.226s0,0,0-.005V5.215s0,0,0-.005V5.2s0,0,0-.006V5.182s0,0,0-.005V5.171s0,0,0-.006V5.149s0,0,0-.005V5.138s0,0,0-.006V5.116s0,0,0-.005V5.1s0,0,0-.006V5.083s0,0,0-.005V5.072s0,0,0-.006V5.05s0,0,0-.005V5.039s0,0,0-.006V5.017s0,0,0-.005V5.006s0,0,0-.005V4.984s0,0,0-.005V4.973s0,0,0-.005V4.951s0,0,0-.005V4.94s0,0,0-.005V4.918s0,0,0-.005V4.907s0,0,0-.005V4.885s0,0,0-.005V4.874s0,0,0-.005V4.852s0,0,0-.005V4.841s0,0,0-.005V4.83s0,0,0-.006V4.819s0,0,0-.005V4.808s0,0,0-.005V4.8s0,0,0-.006V4.786s0,0,0-.005V4.775s0,0,0-.005V4.764s0,0,0-.006V4.753s0,0,0-.005V4.742s0,0,0-.005V4.731s0,0,0-.006V4.72s0,0,0-.005V4.709s0,0,0-.005V4.7s0,0,0-.006V4.687s0,0,0-.005V4.676s0,0,0-.005V4.665s0,0,0-.006V4.654s0,0,0-.005V4.643s0,0,0-.005V4.632s0,0,0-.006V4.621s0,0,0-.005V4.61s0,0,0-.005V4.6s0,0,0-.006V4.588s0,0,0-.005V4.577s0,0,0-.005V4.566s0,0,0-.006V4.555s0,0,0-.005V4.544s0,0,0-.005V4.533s0,0,0-.006V4.522s0,0,0-.005V4.511s0,0,0-.005V4.5s0,0,0-.006V4.478s0,0,0-.005V4.467s0,0,0-.006V4.445s0,0,0-.005V4.434s0,0,0-.006V4.412s0,0,0-.005V4.4s0,0,0-.006V4.379s0,0,0-.005V4.368s0,0,0-.006V4.346s0,0,0-.005V4.335s0,0,0-.005V4.313s0,0,0-.005V4.3s0,0,0-.005V4.28s0,0,0-.005V4.269s0,0,0-.005V4.247s0,0,0-.005V4.236s0,0,0-.005V4.214s0,0,0-.005V4.2s0,0,0-.005V4.181s0,0,0-.005V4.17s0,0,0-.005V4.159s0,0,0-.006V4.148s0,0,0-.005V4.137s0,0,0-.005V4.126s0,0,0-.006V4.115s0,0,0-.005V4.1s0,0,0-.005V4.093s0,0,0-.006V4.082s0,0,0-.005V4.071s0,0,0-.005V4.06s0,0,0-.006V4.049s0,0,0-.005V4.038s0,0,0-.005V4.027s0,0,0-.006V4.016s0,0,0-.005V4s0,0,0-.005V3.994s0,0,0-.005V3.983s0,0,0-.006V3.972s0,0,0-.006V3.95s0,0,0-.006V3.939s0,0,0-.006V3.917s0,0,0-.006V3.906s0,0,0-.006V3.884s0,0,0-.006V3.873s0,0,0-.006V3.851s0,0,0-.006V3.84s0,0,0-.006V3.818s0,0,0-.006V3.807s0,0,0-.005V3.785s0,0,0-.006V3.774s0,0,0-.005V3.752s0,0,0-.006V3.741s0,0,0-.005V3.719s0,0,0-.006V3.708s0,0,0-.005V3.686s0,0,0-.006V3.675s0,0,0-.005V3.653s0,0,0-.006V3.631s0,0,0-.006V3.62s0,0,0-.006V3.6s0,0,0-.006V3.587s0,0,0-.006V3.568s0,0,0,0V3.477h0V3.465h0V3.433h0v-.1h0V3.148h0V3.018h0V2.862h0V2.837h0V2.746h0V2.6l0,0,0,0,0,0,0,0,0,0,0,0,0,0,0,0,0,0,0,0,0,0,0,0,0,0h0v0l0,0,0,0,0,0,0,0,0,0,0,0,0,0h0v0l0,0,0,0,0,0,0,0,0,0,0,0,0,0,0,0,0,0,0,0,0,0,0,0,0,0,0,0,0,0,0,0,0,0,0,0,0,0,0,0,0,0,0,0,0,0,0,0,0,0,0,0,0,0,0,0,0,0,0,0,0,0,0,0,0,0,0,0,0,0,0,0,0,0,0,0,0,0h0v0l0,0,0,0,0,0,0,0,0,0,0,0,0,0,0,0,0,0,0,0,0,0,0,0,0,0,0,0,0,0,0,0,0,0,0,0,0,0,0,0,0,0,0,0,0,0,0,0,0,0,0,0,0,0,0,0,0,0,0,0,0,0,0,0,0,0,0,0,0,0,0,0,0,0,0,0,0,0,0,0,0,0,0,0,0,0,0,0,0,0,0,0,0,0,0,0,0,0,0,0,0,0,0,0,0,0,0,0,0,0,0,0,0,0,0,0,0,0,0,0,0,0,0,0,0,0,0,0,0,0,0,0,0,0,0,0,0,0,0,0,0,0,0,0,0,0,0,0,0,0,0,0,0,0,0,0,0,0,0,0,0,0,0,0,0,0,0,0,0,0,0,0,0,0,0,0,0,0,0,0,0,0,0,0,0,0,0,0,0,0,0,0,0,0,0,0,0,0,0,0,0,0,0,0,0,0,0,0,0,0,0,0,0,0,0,0,0,0,0,0,0,0,0,0,0,0,0,0,0,0,0,0,0,0,0,0,0,0,0,0,0,0,0,0,0,0,0,0,0,0,0,0,0,0,0,0,0,0,0,0,0,0,0,0,0,0,0,0,0,0,0,0,0,0,0,0,0,0,0,0,0,0,0,0,0,0,0,0,0,0,0,0,0,0,0,0,0,0,0,0,0,0,0,0,0,0,0,0,0,0,0,0,0,0,0,0,0,0,0,0,0,0,0,0,0,0,0,0,0,0,0,0,0,0,0,0,0,0,0,0,0,0,0,0,0,0,0,0,0,0,0,0,0,0,0,0,0,0,0,0,0,0,0,0,0,0,0,0,0,0,0,0,0,0,0,0,0,0,0,0,0,0,0,0,0,0,0,0,0,0,0,0,0,0,0,0,0,0,0,0,0,0,0,0,0,0,0,0,0,0,0,0,0,0,0,0,0,0,0,0,0,0,0,0,0,0,0,0,0,0,0,0,0,0,0,0,0,0,0,0,0,0,0,0,0,0,0,0,0,0,0,0,0,0,0,0,0,0,0,0,0,0,0,0,0,0,0,0,0,0,0,0,0,0,0,0,0,0,0,0,0,0,0,0,0,0,0,0,0,0,0,0,0,0,0,0,0,0,0,0,0,0,0,0,0,0,0,0,0,0,0,0,0,0,0,0,0,0,0,0,0,0,0,0,0,0,0,0,0,0,0,0,0,0,0,0,0,0,0,0,0,0,0,0,0,0,0,0,0,0,0,0,0,0,0,0,0,0,0,0,0,0,0,0,0,0,0,0,0,0,0,0,0,0,0,0,0,0,0,0,0,0,0,0,0,0,0,0,0,0,0,0,0,0,0,0,0,0,0,0,0,0,0,0,0,0,0,0,0,0,0,0,0,0,0,0,0,0,0,0,0,0,0,0,0,0,0,0,0,0,0,0,0,0,0,0,0,0,0,0,0,0,0,0,0,0,0,0,0,0,0,0,0,0,0,0,0,0,0,0,0,0,0,0,0,0,0,0,0,0,0,0,0,0,0,0,0,0,0,0,0,0,0,0,0,0,0,0,0,0,0,0,0,0,0,0,0,0,0,0,0,0,0,0,0,0,0,0,0,0,0,0,0,0,0,0,0,0,0,0,0,0,0,0,0,0,0,0,0,0,0,0,0,0,0,0,0,0,0,0,0,0,0,0,0,0,0,0,0,0,0,0,0,0,0,0,0,0,0,0,0,0,0,0,0,0,0,0,0,0,0,0,0,0,0,0,0,0,0,0,0,0,0,0,0,0,0,0,0,0,0,0,0,0,0,0,0,0,0,0,0,0,0,0,0,0,0,0,0,0,0,0,0,0,0,0,0,0,0,0,0,0,0,0,0,0,0,0,0,0,0,0,0,0,0,0,0,0,0,0,0,0,0,0,0,0,0,0,0,0,0,0,0,0,0,0,0,0,0,0,0,0,0,0,0,0,0,0,0,0,0,0,0,0,0,0,0,0,0,0,0,0,0,0,0,0,0,0,0,0,0,0,0,0,0,0,0,0,0,0,0,0,0,0,0,0,0,0,0,0,0,0,0,0,0,0,0,0,0,0,0,0,0,0,0,0,0,0,0,0,0,0,0,0,0,0,0,0,0,0,0,0,0,0,0,0,0,0,0,0,0,0,0,0,0,0,0,0,0,0,0,0,0,0,0,0,0,0,0,0,0,0,0,0,0,0,0,0,0,0,0,0,0,0,0,0,0,0,0,0,0,0,0,0,0,0,0,0,0,0,0,0,0,0,0,0,0,0,0,0,0,0,0,0,0,0,0,0H2.6l0,0,0,0,0,0,0,0,0,0,0,0,0,0,0,0,0,0,0,0,0,0,0,0,0,0,0,0,0,0,0,0,0,0,0,0,0,0,0,0,0,0,0,0,0,0,0,0,0,0,0,0,0,0,0,0,0,0,0,0,0,0,0,0,0,0,0,0,0,0,0,0,0,0,0,0,0,0,0,0,0,0,0,0,0,0,0,0,0,0,0,0,0,0,0,0,0,0,0,0,0,0,0,0,0,0,0,0,0,0,0,0,0,0,0,0,0,0,0,0,0,0,0,0,0,0,0,0,0,0,0,0,0,0,0,0,0,0,0,0,0,0,0,0,0,0,0,0,0,0,0,0,0,0,0,0,0,0,0,0,0,0,0,0,0,0,0,0,0,0,0,0,0,0,0,0,0,0,0,0,0,0,0,0,0,0,0,0,0,0,0,0,0,0,0,0,0,0,0,0,0,0,0,0,0,0,0,0,0,0,0,0,0,0,0,0,0,0,0,0,0,0,0,0,0,0,0,0,0,0,0,0,0,0,0,0,0,0,0,0,0,0,0,0,0,0,0,0,0,0,0,0,0,0,0,0,0,0,0,0,0,0,0,0,0,0,0,0,0,0,0,0,0,0,0,0,0,0,0,0,0,0,0,0,0,0,0,0,0,0,0,0,0,0,0,0,0,0,0,0,0,0,0,0,0,0,0,0,0,0,0,0,0,0,0,0,0,0,0,0,0,0,0,0,0,0,0,0,0,0,0,0,0,0,0,0,0,0,0,0,0,0,0,0,0,0,0,0,0,0,0,0,0,0,0,0,0,0,0,0,0,0,0,0,0,0,0,0,0,0,0,0,0,0,0,0,0,0,0,0,0,0,0,0,0,0,0,0,0,0,0,0,0,0,0,0,0,0,0,0,0,0,0,0,0,0,0,0,0,0,0,0,0,0,0,0,0,0,0,0,0,0,0,0,0,0,0,0,0,0,0,0,0,0,0,0,0,0,0,0,0,0,0,0,0,0,0,0,0,0,0,0,0,0,0,0,0,0,0,0,0,0,0,0,0,0,0,0,0,0,0,0,0,0,0,0,0,0,0,0,0,0,0,0,0,0,0,0,0,0,0,0,0,0,0,0,0,0,0,0,0,0,0,0,0,0,0,0,0,0,0,0,0,0,0,0,0,0,0,0,0,0,0,0,0,0,0,0,0,0,0,0,0,0,0,0,0,0,0,0,0,0,0,0,0,0,0,0,0,0,0,0,0,0,0,0,0,0,0,0,0,0,0,0,0,0,0,0,0,0,0,0h0l0,0,0,0,0,0,0,0,0,0,0,0,0,0,0,0,0,0,0,0,0,0,0,0,0,0,0,0,0,0,0,0,0,0,0,0,0,0,0,0,0,0,0,0,0,0,0,0,0,0,0,0,0,0,0,0,0,0,0,0,0,0,0,0,0,0,0,0,0,0,0,0,0,0,0,0,0,0,0,0,0,0,0,0,0,0,0,0,0,0,0,0,0,0,0,0,0,0,0,0,0,0,0,0,0,0,0,0,0,0,0,0,0,0,0,0,0,0,0,0,0,0,0,0,0,0,0,0,0,0,0,0,0,0,0,0,0,0,0,0,0,0,0,0,0,0,0,0,0,0,0,0,0,0,0,0,0,0,0,0,0,0,0,0,0,0,0,0,0,0,0,0,0,0,0,0,0,0,0,0,0,0,0,0,0,0,0,0,0,0,0,0,0,0,0,0,0,0,0,0,0,0,0,0,0,0,0,0,0,0,0,0,0,0,0,0,0,0,0,0,0,0,0,0,0,0,0,0,0,0,0,0,0,0,0,0,0,0,0,0,0,0,0,0,0,0,0,0,0,0,0,0,0,0,0,0,0,0,0,0,0,0,0,0,0,0,0,0,0,0,0,0,0,0,0,0,0,0,0,0,0,0,0,0,0,0,0,0,0,0,0,0,0,0,0,0,0,0,0,0,0,0,0,0,0,0,0,0,0,0,0,0,0,0,0,0,0,0,0,0,0,0,0,0,0,0,0,0,0,0,0,0,0,0,0,0,0,0,0,0,0,0,0,0,0,0h0l0,0,0,0,0,0,0,0,0,0,0,0,0,0,0,0,0,0,0,0,0,0,0,0,0,0,0,0,0,0,0,0,0,0,0,0,0,0,0,0,0,0,0,0,0,0,0,0,0,0,0,0,0,0,0,0,0,0,0,0h0l0,0,0,0,0,0,0,0,0,0,0,0,0,0,0,0,0,0,0,0,0,0,0,0,0,0,0,0,0,0,0,0,0,0,0,0,0,0,0,0,0,0,0,0,0,0v0h0l0,0,0,0,0,0,0,0,0,0,0,0,0,0,0,0,0,0,0,0,0,0,0,0,0,0,0,0,0,0,0,0,0,0,0,0,0,0,0,0,0,0,0,0,0,0,0,0,0,0,0,0,0,0,0,0,0,0,0,0,0,0,0,0,0,0,0,0,0,0,0,0,0,0,0,0,0,0,0,0,0,0,0,0,0,0,0,0,0,0,0,0,0,0,0,0,0,0,0,0,0,0,0,0,0,0,0,0,0,0,0,0,0,0,0,0v.024h0v.1h0v.075h0v.122h0v.065h0v.051h0v.037h0v.008h0v.031h0v.01h0v.395h0v.04s0,0,0,0h0s0,0,0,.005,0,0,0,.005V3.6s0,0,0,.005v.006s0,0,0,.006v.016s0,0,0,.005v.028s0,0,0,.005v.028s0,0,0,.005v.028s0,0,0,.005V3.76s0,0,0,.005v.028s0,0,0,.006v.027s0,0,0,.006v.027s0,0,0,.006v.027s0,0,0,.006v.027s0,0,0,.006v.016s0,0,0,.005V3.98s0,0,0,.005V4s0,0,0,.006v.005s0,0,0,.005v.016s0,0,0,.006v.005s0,0,0,.005v.016s0,0,0,.006v.005s0,0,0,.005V4.1s0,0,0,.006v.005s0,0,0,.005v.006s0,0,0,.005v.005s0,0,0,.006v.005s0,0,0,.005v.006s0,0,0,.005v.005s0,0,0,.006v.005s0,0,0,.005v.006s0,0,0,.005V4.2s0,0,0,.006v.005s0,0,0,.005v.006s0,0,0,.005v.005s0,0,0,.006v.005s0,0,0,.005v.006s0,0,0,.005v.005s0,0,0,.006v.005s0,0,0,.005v.006s0,0,0,.005V4.3s0,0,0,.006V4.31s0,0,0,.005v.006s0,0,0,.005v.005s0,0,0,.006v.005s0,0,0,.005v.006s0,0,0,.005v.005s0,0,0,.006v.005s0,0,0,.005v.006s0,0,0,.005V4.4s0,0,0,.006v.005s0,0,0,.005V4.42s0,0,0,.005v.005s0,0,0,.006v.005s0,0,0,.005v.006s0,0,0,.005v.016s0,0,0,.005v.006s0,0,0,.005v.016s0,0,0,.005v.006s0,0,0,.005v.016s0,0,0,.005v.006s0,0,0,.005v.016s0,0,0,.005v.006s0,0,0,.005v.016s0,0,0,.005v.006s0,0,0,.005V4.64s0,0,0,.006v.005s0,0,0,.005v.016s0,0,0,.006v.005s0,0,0,.005v.016s0,0,0,.006v.005s0,0,0,.005v.016s0,0,0,.006V4.75s0,0,0,.005v.016s0,0,0,.006v.005s0,0,0,.005v.006s0,0,0,.005v.005s0,0,0,.006v.005s0,0,0,.005v.006s0,0,0,.005v.005s0,0,0,.006v.005s0,0,0,.005V4.86s0,0,0,.005v.005s0,0,0,.006v.005s0,0,0,.005v.006s0,0,0,.005V4.9s0,0,0,.006v.005s0,0,0,.005v.006s0,0,0,.005v.005s0,0,0,.006v.005s0,0,0,.005v.006s0,0,0,.005V4.97s0,0,0,.006v.005s0,0,0,.005v.006S.7,5,.7,5V5s0,0,0,.006v.005s0,0,0,.005v.006s0,0,0,.005v.005s0,0,0,.006v.005s0,0,0,.005v.006s0,0,0,.005v.005s0,0,0,.006V5.08s0,0,0,.005v.006s0,0,0,.005V5.1s0,0,0,.006v.005s0,0,0,.005v.006s0,0,0,.005v.005s0,0,0,.006v.005s0,0,0,.005v.006s0,0,0,.005v.016s0,0,0,.005V5.19s0,0,0,.005v.016s0,0,0,.005v.006s0,0,0,.005v.016s0,0,0,.005v.006s0,0,0,.005v.016s0,0,0,.005v.006s0,0,0,.005v.016s0,0,0,.005v.006s0,0,0,.005v.016s0,0,0,.006v0a.7.7,0,0,1-.7.7.7.7,0,0,1-.7-.7s0,0,0,0,0,0,0,0V5.339s0,0,0-.005V5.328s0,0,0-.005V5.317s0,0,0-.005V5.306s0,0,0-.006V5.295s0,0,0-.005V5.284s0,0,0-.005V5.273s0,0,0-.006V5.262s0,0,0-.005V5.251s0,0,0-.005V5.24s0,0,0-.006V5.229s0,0,0-.005V5.218s0,0,0-.005V5.207s0,0,0-.006V5.2s0,0,0-.005V5.185s0,0,0-.005V5.174s0,0,0-.006V5.163s0,0,0-.005V5.152s0,0,0-.005V5.13s0,0,0-.005V5.119s0,0,0-.005V5.1s0,0,0-.005V5.086s0,0,0-.005V5.064s0,0,0-.005V5.053s0,0,0-.005V5.031s0,0,0-.005V5.02s0,0,0-.005V5s0,0,0-.005V4.987s0,0,0-.005V4.965s0,0,0-.005V4.954s0,0,0-.005V4.932s0,0,0-.005V4.921s0,0,0-.005V4.9s0,0,0-.005V4.888s0,0,0-.005V4.866s0,0,0-.005V4.855s0,0,0-.005V4.833s0,0,0-.005V4.822s0,0,0-.005V4.811s0,0,0-.006V4.8s0,0,0-.005V4.789s0,0,0-.005V4.778s0,0,0-.006V4.767s0,0,0-.005V4.756s0,0,0-.005V4.745s0,0,0-.006V4.734s0,0,0-.005V4.723s0,0,0-.005V4.712s0,0,0-.006V4.7s0,0,0-.005V4.69s0,0,0-.005V4.679s0,0,0-.006V4.668s0,0,0-.005V4.657s0,0,0-.005V4.646s0,0,0-.006V4.635s0,0,0-.006V4.624s0,0,0-.005V4.613s0,0,0-.005V4.6s0,0,0-.006V4.591s0,0,0-.005V4.58s0,0,0-.005V4.569s0,0,0-.006V4.558s0,0,0-.005V4.547s0,0,0-.005V4.536s0,0,0-.006V4.525s0,0,0-.005V4.514s0,0,0-.005V4.5s0,0,0-.006V4.492s0,0,0-.005V4.481s0,0,0-.005V4.47s0,0,0-.006V4.459s0,0,0-.005V4.448s0,0,0-.005V4.426s0,0,0-.005V4.415s0,0,0-.005V4.393s0,0,0-.005V4.382s0,0,0-.005V4.36s0,0,0-.005V4.349s0,0,0-.005V4.327s0,0,0-.005V4.316s0,0,0-.005V4.294s0,0,0-.005V4.283s0,0,0-.005V4.261s0,0,0-.005V4.25s0,0,0-.005V4.228s0,0,0-.005V4.217s0,0,0-.005V4.195s0,0,0-.005V4.184s0,0,0-.005V4.162s0,0,0-.005V4.151s0,0,0-.005V4.129s0,0,0-.005V4.118s0,0,0-.005V4.107s0,0,0-.006V4.1s0,0,0-.005V4.085s0,0,0-.005V4.074s0,0,0-.006V4.063s0,0,0-.005V4.052s0,0,0-.005V4.041s0,0,0-.006V4.03s0,0,0-.005V4.019s0,0,0-.005V4.008S-.7,4-.7,4V3.986s0,0,0-.005V3.953s0,0,0-.005V3.931s0,0,0-.006V3.9s0,0,0-.006V3.865s0,0,0-.006V3.832s0,0,0-.006V3.8s0,0,0-.006V3.766s0,0,0-.005V3.733s0,0,0-.005V3.7s0,0,0-.005V3.667s0,0,0-.005V3.634s0,0,0-.005V3.612s0,0,0-.006V3.6s0,0,0-.005V3.579s0,0,0-.006V3.565s0,0,0,0V3.552s0,0,0,0V2.6l0-.006V2.583l0-.006V2.57l0-.006V2.557l0-.006V2.545l0-.006V2.532l0-.006V2.519l0-.006V2.506l0-.006V2.494l0-.006V2.481l0-.006V2.468l0-.006V2.456l0-.006V2.443l0-.006V2.43l0-.006V2.417l0-.006V2.4l0-.006V2.392l0-.006V2.379l0-.006V2.367l0-.006V2.354l0-.006V2.342l0-.006V2.329l0-.006V2.316l0-.006V2.3l0-.006V2.291l0-.006V2.279l0-.006V2.266l0-.006V2.254l0-.006V2.241l0-.006V2.229l0-.006V2.216l0-.006V2.2l0-.006V2.191l0-.006V2.179l0-.006V2.166l0-.006V2.154l0-.006V2.142l0-.006V2.129l0-.006V2.117l0-.006V2.1l0-.006V2.092l0-.006V2.08l0-.006V2.067l0-.006V2.055l0-.006V2.043l0-.006V2.031l0-.006V2.018l0-.006,0,0v0L-.4,2V1.994l0-.006V1.982l0-.006v0l0,0,0-.006V1.957l0-.006V1.945l0-.006V1.933l0-.006V1.921l0-.006,0,0v0l0-.006V1.9l0-.006,0,0v0l0-.006v0l0,0,0-.006V1.86l0-.006,0,0v0l0-.006V1.836l0-.006V1.824l0-.006V1.812l0-.006V1.8l0-.006V1.788l0-.006,0,0v0l0-.006V1.764l0-.006,0,0v0l0-.006v0l0,0,0-.006V1.729l0-.006V1.717l0-.006,0,0v0l0-.006,0,0v0l0-.006v0l0,0,0-.006,0-.006,0-.006v0l0,0,0-.006,0,0v0l0-.006,0,0v0l0-.006v0l0,0,0-.006v0l0,0,0-.006,0-.006,0-.006,0,0v0l0-.006v0l0,0,0-.006v0l0,0,0-.006,0-.006,0-.006,0,0v0l0-.006,0,0v0l0-.006,0,0v0l0-.006,0,0v0l0-.006,0-.006,0-.006,0,0v0l0-.006,0-.006,0-.006,0,0,0,0,0-.006,0-.006,0-.006,0,0v0l0-.006,0,0v0l0-.006,0,0,0,0,0-.006,0-.006,0-.006,0,0,0,0,0-.006,0,0v0l0-.006,0,0v0l0-.006v0l0,0,0-.006,0-.006,0-.006,0,0,0,0,0-.006,0,0v0l0-.006,0,0v0l0-.006,0-.006,0-.006v0l0,0,0-.006,0,0,0,0,0-.006,0,0,0,0,0-.006,0-.006,0-.006,0-.006,0-.006v0l0,0L0,1.23v0l0,0,0-.006,0,0,0,0,0-.005,0-.005,0-.005,0-.005,0-.005,0-.005,0-.005,0-.005,0-.005v0l0,0,0-.005,0-.005,0-.005,0-.005,0-.005,0,0,0,0,0-.005,0-.005,0-.005,0-.005,0-.005,0-.005,0-.005,0,0,0,0,0-.005,0-.005,0-.005,0-.005,0-.005,0,0v0l0-.005,0,0,0,0,0-.005,0-.005,0-.005,0,0,0,0,0-.005,0-.005L.156,1,.16,1l0-.005,0,0,0,0,0-.005,0-.005,0-.005,0,0,0,0,0-.005,0-.005L.2.952l0,0,0,0L.2.941l0,0,0,0,0-.005v0l0,0,0-.005,0-.005,0-.005,0-.005L.237.9l0-.005,0-.005,0-.005,0-.005,0-.005,0-.005,0-.005,0-.005,0-.005,0-.005,0,0,0,0,0-.005,0-.005L.3.829.3.824.3.819l0-.005,0-.005L.316.8.321.8l0,0,0,0,0,0,0,0,0,0,0,0,0,0,0,0h0l0,0,0,0,0,0,0,0,0,0,0,0,0,0,0,0,0,0,0,0,0,0,0,0,0,0,0,0,0,0,0,0,0,0,0,0,0,0,0,0,0,0,0,0,0,0,0,0,0,0,0,0,0,0,0,0,0,0,0,0,0,0,0,0,0,0,0,0,0,0,0,0,0,0,0,0,0,0,0,0,0,0,0,0,0,0,0,0,0,0,0,0,0,0,0,0,0,0,0,0,0,0,0,0,0,0,0,0,0,0,0,0,0,0,0,0,0,0,0,0,0,0,0,0,0,0,0,0,0,0,0,0,0,0,0,0,0,0,0,0,0,0,0,0,0,0,0,0,0,0,0,0,0,0,0,0,0,0,0,0,0,0,0,0,0,0,0,0,0,0,0,0,0,0,0,0,0,0,0,0,0,0,0,0,0,0,0,0,0,0,0,0L.8.316l.005,0,.005,0L.819.3.824.3l.005,0,.005,0,.005,0,.005,0,.005,0,.005,0,.005,0,.005,0,.005,0,.005,0,.005,0,.005,0,.005,0L.9.24.9.236l.005,0,.005,0,.005,0,.005,0,.005,0,.005,0,.005,0L.942.2.947.2.952.2l.005,0,.005,0,.005,0,.005,0,.005,0,.005,0,.005,0,.005,0L1,.16,1,.156l.005,0,.005,0,.005,0,.005,0,.005,0,.005,0,.005,0,.005,0,.005,0,.005,0,.005,0,.005,0,.005,0,.005,0,.005,0,.005,0L1.1.09l.005,0,.005,0,.005,0,.005,0,.005,0,.005,0,.005,0,.005,0,.005,0,.005,0,.005,0,.005,0,.005,0,.005,0,.005,0,.005,0,.005,0,.005,0,.005,0,.005,0,.005,0,.005,0L1.22,0l.005,0,.005,0,.006,0,.006,0,.006,0,.006,0,.006,0,.006,0,.006,0,.006,0,.006,0,.006,0,.006,0,.006,0,.006,0,.006,0,.006,0,.006,0,.006,0,.006,0,.006,0,.006,0,.006,0,.006,0,.006,0,.006,0,.006,0,.006,0,.006,0,.006,0,.006,0,.006,0,.006,0,.006,0,.006,0,.006,0,.006,0,.006,0,.006,0,.006,0,.006,0,.006,0,.006,0,.006,0,.006,0,.006,0,.006,0,.006,0,.006,0,.006,0,.006,0,.006,0,.006,0,.006,0,.006,0,.006,0,.006,0,.006,0,.006,0,.006,0,.006,0,.006,0,.006,0,.006,0,.006,0,.006,0,.006,0,.006,0,.006,0,.006,0,.006,0,.006,0,.006,0,.006,0,.006,0,.006,0,.006,0,.006,0,.006,0,.006,0,.006,0,.006,0,.006,0,.006,0,.006,0,.006,0,.006,0,.006,0,.006,0,.006,0,.006,0,.006,0,.006,0,.006,0,.006,0,.006,0,.006,0,.006,0,.006,0,.006,0,.006,0,.006,0,.006,0,.006,0,.006,0,.006,0,.006,0,.006,0,.006,0,.006,0,.006,0,.006,0,.006,0,.006,0,.006,0,.006,0,.006,0,.006,0,.006,0,.006,0,.006,0,.006,0,.006,0,.006,0,.006,0,.006,0,.006,0,.006,0,.006,0,.006,0,.006,0,.006,0,.006,0L2-.4l.006,0,.006,0,.006,0,.006,0,.006,0,.006,0,.006,0,.006,0,.006,0,.006,0,.006,0,.006,0,.006,0,.006,0,.006,0,.006,0,.006,0,.006,0,.006,0,.006,0,.006,0,.006,0,.006,0,.006,0,.006,0,.006,0,.006,0,.006,0,.006,0,.006,0,.006,0,.006,0,.006,0,.006,0,.006,0,.006,0,.006,0,.006,0,.006,0,.006,0,.006,0,.006,0,.006,0,.006,0,.006,0,.006,0,.006,0,.006,0,.006,0,.006,0,.006,0,.006,0,.006,0,.006,0,.006,0,.006,0,.006,0,.006,0,.006,0,.006,0,.006,0,.006,0,.006,0,.006,0,.006,0,.006,0,.006,0,.006,0,.006,0,.006,0,.006,0,.006,0,.006,0,.006,0,.006,0,.006,0,.006,0,.006,0,.006,0,.006,0,.006,0,.006,0,.006,0,.006,0,.006,0,.006,0,.006,0,.006,0,.006,0,.006,0,.006,0,.006,0,.006,0,.006,0,.006,0H11.68l.006,0,.006,0,.006,0,.006,0,.006,0,.006,0,.006,0,.006,0,.006,0,.006,0,.006,0,.006,0,.006,0,.006,0,.006,0,.006,0,.006,0,.006,0,.006,0,.006,0,.006,0,.006,0,.006,0,.006,0,.006,0,.006,0,.006,0,.006,0,.006,0,.006,0,.006,0,.006,0,.006,0,.006,0,.006,0,.006,0,.006,0,.006,0,.006,0,.006,0,.006,0,.006,0,.006,0,.006,0,.006,0,.006,0,.006,0,.006,0,.006,0L12-.5,12-.5l.006,0,.006,0,.006,0,.006,0,.006,0,.006,0,.006,0,.006,0,.006,0,.006,0,.006,0,.006,0,.006,0,.006,0,.006,0,.006,0,.006,0,.006,0,.006,0,.006,0,.006,0,.006,0,.006,0,.006,0,.006,0,.006,0,.006,0,.006,0,.006,0,.006,0,.006,0,.006,0,.006,0,.006,0,.006,0,.006,0,.006,0,.006,0,.006,0,.006,0,.006,0,.006,0,.006,0,.006,0,.006,0,.006,0,.006,0,.006,0,.006,0,.006,0,.006,0,.006,0,.006,0,.006,0,.006,0,.006,0,.006,0,.006,0,.006,0,.006,0,.006,0,.006,0,.006,0,.006,0,.006,0,.006,0,.006,0,.006,0,.006,0,.006,0,.006,0,.006,0,.006,0,.006,0,.006,0,.006,0,.006,0,.006,0,.006,0,.006,0,.006,0,.006,0,.006,0,.006,0,.006,0,.006,0,.006,0,.006,0,.006,0,.006,0,.006,0,.006,0,.006,0,.006,0,.006,0,.006,0,.006,0,.006,0,.006,0,.006,0,.006,0,.006,0,.006,0,.006,0,.006,0,.006,0,.006,0,.006,0,.006,0,.006,0,.006,0,.006,0,.006,0,.006,0,.006,0,.006,0,.006,0,.006,0,.006,0,.006,0,.006,0,.006,0,.006,0,.006,0,.006,0,.006,0,.006,0,.006,0,.006,0,.006,0,.006,0,.006,0,.006,0,.006,0,.006,0,.006,0,.006,0,.006,0,.006,0,.006,0,.006,0,.006,0,.006,0,.006,0,.006,0,.006,0,.006,0,.006,0,.006,0,.006,0,.006,0,.006,0,.006,0,.006,0,.006,0,.006,0,.006,0,.006,0,.006,0,.006,0,.006,0,.006,0,.006,0,.006,0,.006,0,.006,0,.006,0L13-.03l.006,0,.006,0,.006,0,.006,0,.006,0,.006,0,.006,0,.005,0,.005,0,.005,0,.005,0,.005,0,.005,0,.005,0,.005,0,.005,0,.005,0,.005,0,.005,0,.005,0,.005,0,.005,0,.005,0,.005,0,.005,0,.005,0,.005,0,.005,0,.005,0,.005,0,.005,0,.005,0,.005,0,.005,0,.005,0L13.2.1l.005,0,.005,0,.005,0,.005,0,.005,0,.005,0,.005,0,.005,0,.005,0,.005,0,.005,0,.005,0,.005,0,.005,0,.005,0,.005,0,.005,0,.005,0,.005,0,.005,0,.005,0,.005,0,.005,0,.005,0,.005,0,.005,0,.005,0,.005,0,.005,0,.005,0,.005,0,.005,0,.005,0,.005,0,.005,0,.005,0,.005,0,.005,0,.005,0,.005,0,.005,0,.005,0,.005,0,.005,0,.005,0,.005,0,.005,0,.005,0,.005,0,.005,0,.005,0,.005,0,.005,0,.005,0,.005,0,0,0,0,0,0,0,0,0,0,0,0,0,0,0,0,0,0,0,0,0,0,0,0,0,0,0,0,0,0,0,0,0,0,0,0,0,0,0,0,0,0,0,0,0,0,0,0,0,0,0,0,0,0,0,0,0,0,0,0,0,0,0,0,0,0,0,0,0,0,0,0,0,0,0,0,0,0,0,0,0,0,0,0,0,0,0,0,0,0,0,0,0,0,0,0,0,0,0,0,0,0,0,0,0,0,0,0,0,0,0,0,0,0,0,0,0,0,0,0,0,0,0,0,0,0,0,0,0,0,0,0,0,0,0,0,0,0,0,0,0,0,0,0,0,0,0,0,0,0,0,0,0,0,0,0,0,0,0,0,0,0,0,0,0,0,0,0,0,0,0,0,0,0,0,0,0,0,0,0,0,0,0,0,0,0,0,0,0,0,0,0,0,0,0,0,0,0,0,0,0,0,0,0,0,0,0,0,0,0,0,0,.005,0,0,0,0,0,.005,0,.005,0,.005,0,0,0,0,0,.005,0,.005,0,.005,0,.005,0,.005,0,.005,0,.005,0,0,0,0,0,.005,0,.005,0,.005,0,.005,0,.005,0,0,0,0,0,.005,0,.005,0,.005,0,0,0,0,0,.005,0,0,0,0,0,.005v0l0,0,0,.005,0,0v0l0,.005,0,0,0,0,0,.005,0,0,0,0,0,.005,0,.005,0,.005,0,.005,0,.005,0,.005,0,.005,0,0v0l0,.005,0,.005,0,.005,0,0,0,0,0,.005,0,0,0,0,0,.005,0,.005,0,.005,0,.005,0,.005,0,0v0l0,.005,0,.005,0,.005,0,0v0l0,.005,0,0,0,0,0,.005,0,0,0,0,0,.005,0,.005,0,.005,0,.005,0,.005,0,.005,0,.005,0,.005,0,.005,0,0,0,0,0,.005,0,0,0,0,0,.005,0,.005,0,.005,0,.005,0,.005,0,.005,0,.005,0,.005,0,.005,0,0,0,0,0,.006,0,.006,0,.006,0,.006,0,.006v0l0,0,0,.006v0l0,0,0,.006,0,0,0,0,0,.006,0,.006,0,.006,0,.006,0,.006,0,.006,0,.006,0,0,0,0,0,.006v0l0,0,0,.006,0,0,0,0,0,.006,0,.006,0,.006v0l0,0,0,.006,0,0v0l0,.006v0l0,0,0,.006,0,.006,0,.006v0l0,0,0,.006,0,0v0l0,.006,0,0v0l0,.006,0,0,0,0,0,.006,0,.006,0,.006,0,0v0l0,.006v0l0,0,0,.006v0l0,0,0,.006,0,.006,0,.006,0,0v0l0,.006v0l0,0,0,.006v0l0,0,0,.006,0,.006,0,.006v0l0,0,0,.006v0l0,0,0,.006,0,0v0l0,.006,0,0v0l0,.006,0,.006,0,.006v0l0,0,0,.006,0,0v0l0,.006v0l0,0,0,.006,0,.006,0,.006v0l0,0,0,.006,0,.006,0,.006,0,0v0l0,.006v0l0,0,0,.006v0l0,0,0,.006v.006l0,.006v.006l0,.006v.006l0,.006v.006l0,.006v0l0,0,0,.006v0l0,0,0,.006v.006l0,.006,0,0v0l0,.006v.006l0,.006,0,.006,0,.006v.006l0,.006v0l0,0,0,.006v0l0,0,0,.006v0l0,0,0,.006,0,0v0l0,.006v.006l0,.006v.006l0,.006v0l0,0,0,.006V1.96l0,.006v.006l0,.006v.006l0,.006,0,0V2l0,.006v.006l0,.006v.006l0,.006v.006l0,.006v.006l0,.006v.006l0,.006V2.07l0,.006v.006l0,.006V2.1l0,.006v.006l0,.006V2.12l0,.006v.006l0,.006v.006l0,.006v.006l0,.006V2.17l0,.006v.006l0,.006v.006l0,.006v.006l0,.006v.006l0,.006v.006l0,.006v.006l0,.006v.006l0,.006v.006l0,.006v.006l0,.006v.006l0,.006v.006l0,.006V2.32l0,.006v.006l0,.006v.006l0,.006v.006l0,.006V2.37l0,.006v.006l0,.006V2.4l0,.006v.006l0,.006v.006l0,.006v.006l0,.006v.006l0,.006v.006l0,.006v.006l0,.006v.006l0,.006V2.5l0,.006V2.51l0,.006v.006l0,.006v.006l0,.006v.006l0,.006v.006l0,.006v.006l0,.006v.006l0,.006v.952s0,0,0,0v.01s0,0,0,0v.031s0,0,0,.006v.027s0,0,0,.006V3.68s0,0,0,.006v.027s0,0,0,.006v.027s0,0,0,.006v.027s0,0,0,.006v.027s0,0,0,.006v.027s0,0,0,.006v.027s0,0,0,.006v.027s0,0,0,.006v.027s0,0,0,.006v.027s0,0,0,.006v1.37A.7.7,0,0,1,14.273,6.052Z" transform="translate(0 10.705)" fill="#7e72d1"/>
    <path id="Vector-2" data-name="Vector" d="M3.574,7.837H2.6l-.006,0-.006,0-.006,0-.006,0-.006,0-.006,0-.006,0-.006,0-.006,0-.006,0-.006,0-.006,0-.006,0-.006,0L2.5,7.7l-.006,0-.006,0-.006,0-.006,0-.006,0-.006,0-.006,0-.006,0-.006,0-.006,0-.006,0-.006,0-.006,0-.006,0-.006,0-.006,0-.006,0-.006,0-.006,0-.006,0-.006,0-.006,0-.006,0-.006,0-.006,0-.006,0-.006,0-.006,0-.006,0-.006,0-.006,0-.006,0-.006,0-.006,0-.006,0-.006,0-.006,0-.006,0-.006,0-.006,0-.006,0-.006,0-.006,0-.006,0-.006,0-.006,0-.006,0-.006,0-.006,0-.006,0-.006,0-.006,0-.006,0-.006,0-.006,0-.006,0-.006,0-.006,0-.006,0-.006,0-.006,0-.006,0-.006,0-.006,0-.006,0-.006,0-.006,0-.006,0-.006,0-.006,0-.006,0-.006,0-.006,0-.006,0-.006,0-.006,0-.006,0-.006,0-.006,0L2,7.539l-.006,0-.006,0-.006,0-.006,0-.006,0-.006,0-.006,0-.006,0-.006,0-.006,0-.006,0-.006,0-.006,0-.006,0-.006,0L1.9,7.5,1.9,7.5l-.006,0-.006,0-.006,0-.006,0-.006,0-.006,0-.006,0-.006,0-.006,0-.006,0-.006,0-.006,0-.006,0-.006,0-.006,0-.006,0-.006,0-.006,0-.006,0-.006,0-.006,0-.006,0-.006,0-.006,0-.006,0-.006,0-.006,0-.006,0-.006,0-.006,0-.006,0-.006,0-.006,0-.006,0-.006,0-.006,0-.006,0-.006,0-.006,0-.006,0-.006,0-.006,0-.006,0-.006,0-.006,0-.006,0-.006,0-.006,0-.006,0-.006,0-.006,0-.006,0-.006,0-.006,0-.006,0-.006,0-.006,0-.006,0-.006,0-.006,0-.006,0-.006,0-.006,0-.006,0-.006,0-.006,0L1.5,7.3l-.006,0-.006,0-.006,0-.006,0-.006,0-.006,0-.006,0-.006,0-.006,0-.006,0-.006,0-.006,0-.006,0-.006,0-.006,0-.006,0-.006,0-.006,0-.006,0-.006,0-.006,0-.006,0-.006,0-.006,0-.006,0-.006,0-.006,0-.006,0-.006,0-.006,0-.006,0-.006,0-.006,0-.006,0-.006,0-.006,0-.006,0-.006,0-.006,0-.006,0-.006,0-.006,0-.006,0-.006,0-.006,0-.006,0-.006,0-.005,0-.005,0-.006,0-.005,0-.005,0-.005,0-.005,0-.005,0-.005,0-.005,0-.005,0-.005,0-.005,0-.005,0-.005,0-.005,0-.005,0-.005,0-.005,0-.005,0-.005,0-.005,0-.005,0-.005,0-.005,0-.005,0-.005,0-.005,0-.005,0-.005,0-.005,0-.005,0-.005,0-.005,0-.005,0-.005,0L1.036,7,1.031,7,1.025,7l-.005,0-.005,0-.005,0L1,6.981,1,6.977l-.005,0-.005,0-.005,0-.005,0-.005,0-.005,0-.005,0-.005,0-.005,0-.005,0-.005,0-.005,0-.005,0-.005,0-.005,0-.005,0-.005,0-.005,0L.9,6.9.9,6.9l-.005,0-.005,0-.005,0-.005,0-.005,0-.005,0-.005,0-.005,0-.005,0-.005,0-.005,0-.005,0-.005,0-.005,0-.005,0-.005,0-.005,0-.005,0,0,0,0,0,0,0,0,0,0,0,0,0,0,0,0,0,0,0,0,0,0,0,0,0,0,0,0,0,0,0,0,0,0,0,0,0h0l0,0,0,0,0,0,0,0,0,0,0,0,0,0,0,0,0,0,0,0,0,0,0,0,0,0,0,0,0,0,0,0,0,0,0,0,0,0,0,0,0,0,0,0,0,0,0,0,0,0,0,0,0,0,0,0,0,0,0,0,0,0,0,0,0,0,0,0,0,0,0,0,0,0,0,0,0,0,0,0,0,0,0,0,0,0,0,0,0,0,0,0,0,0,0,0,0,0,0,0,0,0,0,0,0,0,0,0,0,0,0,0,0,0,0,0,0,0,0,0,0,0,0,0,0,0,0,0,0,0,0,0,0,0,0,0,0,0,0,0,0,0,0,0,0,0,0,0,0,0,0,0,0,0,0,0,0,0,0,0,0,0,0,0,0,0,0,0,0,0,0,0,0,0,0-.005,0-.005,0-.005,0-.005,0-.005,0-.005,0-.005,0-.005,0-.005,0-.005,0,0,0,0,0-.005,0-.005,0-.005,0-.005,0-.005,0-.005,0-.005,0-.005,0-.005,0-.005,0-.005,0,0,0,0,0-.005,0,0v0l0-.005,0-.005L.2,6.2l0-.005,0-.005,0-.005,0-.005,0-.005,0-.005,0,0v0l0-.005,0-.005,0-.005,0,0,0,0,0-.005,0-.005,0-.005,0,0,0,0,0-.005,0-.005,0-.005,0-.005,0-.005,0,0,0,0,0-.005,0-.005,0-.005,0-.005,0-.005,0-.005,0-.005,0-.005,0-.005v0l0,0,0-.005,0-.005,0-.005,0-.005,0-.005,0,0,0,0,0-.005,0-.005,0-.005,0-.005,0-.005v0l0,0,0-.005,0,0,0,0,0-.005,0-.005,0-.005,0,0,0,0,0-.005,0-.005,0-.005,0-.005,0-.005,0-.006,0-.006,0-.006,0-.006,0,0,0,0,0-.006,0,0v0l0-.006v0l0,0,0-.006,0-.006,0-.006,0,0,0,0,0-.006,0,0v0l0-.006,0-.006,0-.006,0-.006,0-.006v0l0,0,0-.006,0-.006,0-.006,0,0,0,0,0-.006,0,0v0l0-.006v0l0,0,0-.006,0-.006,0-.006v0l0,0,0-.006v0l0,0,0-.006,0-.006,0-.006,0,0v0l0-.006v0l0,0,0-.006,0,0v0l0-.006v0l0,0,0-.006,0,0v0l0-.006,0-.006,0-.006,0,0v0l0-.006v0l0,0,0-.006v0l0,0,0-.006v0l0,0,0-.006v0l0,0,0-.006,0-.006,0-.006,0,0v0l0-.006,0,0v0l0-.006v0l0,0,0-.006v0l0,0,0-.006,0-.006,0-.006v0l0,0,0-.006,0-.006,0-.006v0l0,0,0-.006v0l0,0,0-.006,0,0v0l0-.006v0l0,0,0-.006V5.421l0-.006v0l0,0,0-.006V5.4l0-.006,0,0v0l0-.006,0,0v0l0-.006V5.362l0-.006v0l0,0,0-.006v0l0,0,0-.006V5.326l0-.006V5.314l0-.006V5.3l0-.006,0,0v0l0-.006V5.277l0-.006v0l0,0,0-.006V5.253l0-.006V5.241l0-.006V5.229l0-.006v0l0,0,0-.006V5.2l0-.006V5.193l0-.006V5.18l0-.006V5.168l0-.006V5.156l0-.006v0l0,0,0-.006V5.132l0-.006,0,0v0l0-.006V5.107l0-.006V5.095l0-.006V5.082l0-.006V5.07l0-.006V5.058l0-.006V5.045l0-.006V5.033l0-.006V5.021l0-.006V5.008l0-.006V5l0-.006V4.983l0-.006V4.971l0-.006V4.959l0-.006V4.946l0-.006V4.934l0-.006V4.921l0-.006V4.909l0-.006V4.9l0-.006V4.884l0-.006V4.871l0-.006V4.858l0-.006V4.846l0-.006V4.833l0-.006V4.821l0-.006V4.808l0-.006V4.8l0-.006V4.783l0-.006V4.77l0-.006V4.758l0-.006V4.745l0-.006V4.732l0-.006V4.72l0-.006V4.707l0-.006V4.694l0-.006V4.681l0-.006V4.669l0-.006V4.656l0-.006V4.643l0-.006V4.63l0-.006V4.618l0-.006V4.6l0-.006V4.592l0-.006V4.579l0-.006V4.567l0-.006V4.554l0-.006V3.583s0,0,0,0V3.57s0,0,0,0,0,0,0,0v-.01s0,0,0,0V2.586l0-.006V2.573l0-.006V2.56l0-.006V2.547l0-.006V2.534l0-.006V2.522l0-.006V2.509l0-.006V2.5l0-.006V2.483l0-.006V2.471l0-.006V2.458l0-.006V2.445l0-.006V2.433l0-.006V2.42l0-.006V2.407l0-.006V2.394l0-.006V2.382l0-.006V2.369l0-.006V2.356l0-.006V2.344l0-.006V2.331l0-.006V2.319l0-.006V2.306l0-.006V2.293l0-.006V2.281l0-.006V2.268l0-.006V2.256l0-.006V2.243l0-.006V2.231l0-.006V2.218l0-.006V2.206l0-.006V2.193l0-.006V2.181l0-.006V2.168l0-.006V2.156l0-.006V2.143l0-.006V2.131l0-.006V2.119l0-.006V2.106l0-.006V2.094l0-.006V2.082l0-.006V2.069l0-.006V2.057l0-.006V2.045l0-.006V2.032l0-.006V2.02l0-.006V2.008L-.4,2V2l0-.006,0,0v0l0-.006V1.971l0-.006V1.959l0-.006V1.947l0-.006V1.934l0-.006V1.922l0-.006V1.91l0-.006V1.9l0-.006V1.886l0-.006V1.874l0-.006V1.862l0-.006V1.85l0-.006V1.838l0-.006,0,0v0l0-.006V1.814l0-.006,0,0v0l0-.006V1.79l0-.006V1.778l0-.006,0,0v0l0-.006V1.754l0-.006,0,0v0l0-.006,0,0v0l0-.006v0l0,0,0-.006,0,0v0l0-.006,0,0v0l0-.006v0l0,0,0-.006v0l0,0,0-.006v0l0,0,0-.006v0l0,0,0-.006,0,0v0l0-.006,0,0v0l0-.006,0,0v0l0-.006,0,0v0l0-.006,0-.006,0-.006,0,0v0l0-.006,0,0,0,0,0-.006v0l0,0,0-.006,0-.006,0-.006,0,0v0l0-.006,0,0v0l0-.006v0l0,0,0-.006v0l0,0,0-.006v0l0,0,0-.006,0,0v0l0-.006,0-.006,0-.006,0,0,0,0,0-.006,0-.006,0-.006,0,0,0,0,0-.006,0,0v0l0-.006,0,0,0,0,0-.006v0l0,0,0-.006v0l0,0,0-.006,0,0v0l0-.006v0l0,0,0-.006,0-.006,0-.006,0-.006,0-.006,0,0,0,0,0-.006v0l0,0,0-.006,0,0v0l0-.006,0-.006,0-.006,0-.006,0-.006,0-.006,0-.006v0l0,0,0-.006,0,0,0,0,0-.006,0-.006,0-.006,0-.006,0-.005,0-.005,0-.005,0,0,0,0,0-.005,0-.005,0-.005,0-.005,0-.005,0-.005,0-.005,0-.005,0-.005,0-.005,0-.005,0,0,0,0,0-.005,0-.005,0-.005,0-.005,0-.005,0-.005,0-.005,0-.005,0-.005,0-.005,0-.005,0-.005,0-.005,0-.005,0-.005,0-.005,0-.005,0-.005,0-.005,0,0,0,0,0-.005,0,0,0,0,0-.005,0-.005,0-.005,0,0,0,0L.163,1l0-.005,0-.005,0,0,0,0,0-.005,0,0v0l0-.005,0-.005,0-.005,0,0,0,0L.2.943l0-.005,0-.005,0-.005,0-.005,0-.005,0-.005,0-.005L.235.9.239.9l0-.005,0-.005,0-.005,0-.005,0-.005,0-.005,0-.005,0-.005,0-.005,0-.005,0-.005,0-.005,0-.005L.3.825.3.82l0-.005,0-.005,0-.005,0,0,0,0,0,0,0,0,0,0,0,0,0,0,0,0,0,0,0,0,0,0,0,0,0,0,0,0,0,0,0,0,0,0,0,0,0,0,0,0,0,0,0,0,0,0,0,0,0,0,0,0,0,0,0,0,0,0,0,0,0,0,0,0,0,0,0,0,0,0,0,0,0,0,0,0,0,0,0,0,0,0,0,0,0,0,0,0,0,0,0,0,0,0,0,0,0,0,0,0,0,0,0,0,0,0,0,0,0,0,0,0,0,0,0,0,0,0,0,0,0,0,0,0,0,0,0,0,0,0,0,0,0,0,0,0,0,0,0,0,0,0,0,0,0,0,0,0,0,0,0,0,0,0,0,0,0,0,0,0,0,0,0,0,0,0,0,0,0,0,0,0,0,0,0,0,0,0,0,0,0,0,0,0,0,0,0,0,0,0,0,0,0,0,0,0,0,0,0,0,0,0,0,0,0,0,0,0,0,0,0,0,0,0,0,0,0,0,.005,0,.005,0L.817.3.822.3.827.3l.005,0,.005,0,.005,0,.005,0,.005,0,.005,0,.005,0,.005,0,.005,0,.005,0,.005,0,.005,0,.005,0L.9.238.9.234l.005,0,.005,0,.005,0,.005,0,.005,0,.005,0,.005,0L.945.2.95.2l.005,0,.005,0,.005,0,.005,0,.005,0,.005,0,.005,0,.005,0L1,.161,1,.157l.005,0,.005,0,.005,0,.005,0,.005,0,.005,0,.005,0,.005,0,.005,0,.005,0,.005,0,.005,0,.005,0,.005,0,.005,0,.005,0,.005,0,.005,0,.005,0,.005,0,.005,0,.005,0,.005,0,.005,0,.005,0,.005,0,.005,0,.005,0,.005,0,.005,0,.005,0,.005,0,.005,0,.005,0,.005,0L1.2.02l.005,0,.005,0,.005,0,.005,0,.005,0,.005,0,.006,0,.006,0,.006,0,.006,0,.006,0,.006,0,.006,0,.006,0,.006,0,.006,0,.006,0,.006,0,.006,0,.006,0,.006,0,.006,0,.006,0,.006,0,.006,0,.006,0,.006,0,.006,0,.006,0,.006,0,.006,0,.006,0,.006,0,.006,0,.006,0,.006,0,.006,0,.006,0,.006,0,.006,0,.006,0,.006,0,.006,0,.006,0,.006,0,.006,0,.006,0,.006,0,.006,0,.006,0,.006,0,.006,0,.006,0,.006,0,.006,0,.006,0,.006,0,.006,0,.006,0,.006,0,.006,0,.006,0,.006,0,.006,0,.006,0,.006,0,.006,0,.006,0,.006,0,.006,0,.006,0,.006,0,.006,0,.006,0,.006,0,.006,0,.006,0,.006,0,.006,0,.006,0,.006,0,.006,0,.006,0,.006,0,.006,0,.006,0,.006,0,.006,0,.006,0,.006,0,.006,0,.006,0,.006,0,.006,0,.006,0,.006,0,.006,0,.006,0,.006,0,.006,0,.006,0,.006,0,.006,0,.006,0,.006,0,.006,0,.006,0,.006,0,.006,0,.006,0,.006,0,.006,0,.006,0,.006,0,.006,0,.006,0,.006,0,.006,0,.006,0,.006,0,.006,0,.006,0,.006,0,.006,0,.006,0,.006,0,.006,0,.006,0,.006,0,.006,0,.006,0,.006,0,.006,0,.006,0,.006,0,.006,0,.006,0L2-.4,2-.4l.006,0,.006,0,.006,0,.006,0,.006,0,.006,0,.006,0,.006,0,.006,0,.006,0,.006,0,.006,0,.006,0,.006,0,.006,0,.006,0,.006,0,.006,0,.006,0,.006,0,.006,0,.006,0,.006,0,.006,0,.006,0,.006,0,.006,0,.006,0,.006,0,.006,0,.006,0,.006,0,.006,0,.006,0,.006,0,.006,0,.006,0,.006,0,.006,0,.006,0,.006,0,.006,0,.006,0,.006,0,.006,0,.006,0,.006,0,.006,0,.006,0,.006,0,.006,0,.006,0,.006,0,.006,0,.006,0,.006,0,.006,0,.006,0,.006,0,.006,0,.006,0,.006,0,.006,0,.006,0,.006,0,.006,0,.006,0,.006,0,.006,0,.006,0,.006,0,.006,0,.006,0,.006,0,.006,0,.006,0,.006,0,.006,0,.006,0,.006,0,.006,0,.006,0,.006,0,.006,0,.006,0,.006,0,.006,0,.006,0,.006,0,.006,0,.006,0,.006,0,.006,0,.006,0,.006,0H4.543l.006,0,.006,0,.006,0,.006,0,.006,0,.006,0,.006,0,.006,0,.006,0,.006,0,.006,0,.006,0,.006,0,.006,0,.006,0,.006,0,.006,0,.006,0,.006,0,.006,0,.006,0,.006,0,.006,0,.006,0,.006,0,.006,0,.006,0,.006,0,.006,0,.006,0,.006,0,.006,0,.006,0,.006,0,.006,0,.006,0,.006,0,.006,0,.006,0,.006,0,.006,0,.006,0,.006,0,.006,0,.006,0,.006,0,.006,0,.006,0,.006,0,.006,0,.006,0,.006,0,.006,0,.006,0,.006,0,.006,0,.006,0,.006,0,.006,0,.006,0,.006,0,.006,0,.006,0,.006,0,.006,0,.006,0,.006,0,.006,0,.006,0,.006,0,.006,0L5-.454,5-.452l.006,0,.006,0,.006,0,.006,0,.006,0,.006,0,.006,0,.006,0,.006,0,.006,0,.006,0,.006,0,.006,0,.006,0,.006,0,.006,0,.006,0,.006,0,.006,0,.006,0,.006,0,.006,0,.006,0,.006,0,.006,0,.006,0,.006,0,.006,0,.006,0,.006,0,.006,0,.006,0,.006,0,.006,0,.006,0,.006,0,.006,0,.006,0,.006,0,.006,0,.006,0,.006,0,.006,0,.006,0,.006,0,.006,0,.006,0,.006,0,.006,0,.006,0,.006,0,.006,0,.006,0,.006,0,.006,0,.006,0,.006,0,.006,0,.006,0,.006,0,.006,0,.006,0,.006,0,.006,0,.006,0,.006,0,.006,0,.006,0,.006,0,.006,0,.006,0,.006,0,.006,0,.006,0,.006,0,.006,0,.006,0,.006,0,.006,0,.006,0,.006,0,.006,0,.006,0,.006,0,.006,0,.006,0,.006,0,.006,0,.006,0,.006,0,.006,0,.006,0,.006,0,.006,0,.006,0,.006,0,.006,0,.006,0,.006,0,.006,0,.006,0,.006,0,.006,0,.006,0,.006,0,.006,0,.006,0,.006,0,.006,0,.006,0,.006,0,.006,0,.006,0,.006,0,.006,0,.006,0,.006,0,.006,0,.006,0,.006,0,.006,0,.006,0,.006,0,.006,0,.006,0,.006,0,.006,0,.006,0,.006,0,.006,0,.006,0,.006,0,.006,0,.006,0,.006,0,.006,0,.006,0,.006,0,.006,0,.006,0,.006,0,.006,0,.006,0,.006,0,.006,0,.006,0,.006,0,.006,0,.006,0,.006,0,.006,0,.006,0L5.9,0l.006,0,.005,0,.005,0,.005,0,.005,0,.005,0,.005,0,.005,0,.005,0,.005,0,.005,0,.005,0,.005,0,.005,0,.005,0,.005,0L6,.058,6,.061l.005,0,.005,0,.005,0,.005,0,.005,0,.005,0,.005,0,.005,0L6.05.1l.005,0,.005,0,.005,0,.005,0,.005,0,.005,0,.005,0,.005,0L6.1.13l.005,0,.005,0,.005,0,.005,0,.005,0,.005,0,.005,0,.005,0,.005,0,.005,0,.005,0,.005,0,.005,0,.005,0,.005,0,.005,0,.005,0,.005,0,.005,0L6.2.21l.005,0,.005,0,.005,0,.005,0,.005,0,.005,0,.005,0,.005,0,.005,0,.005,0,.005,0,.005,0,.005,0,.005,0,.005,0,.005,0,.005,0,.005,0,.005,0,.005,0L6.31.3l.005,0,.005,0,.005,0,.005,0,.005,0,.005,0,0,0,0,0,0,0,0,0,0,0,0,0,0,0,0,0,0,0,0,0,0,0,0,0,0,0,0,0,0,0,0,0,0,0,0,0,0,0,0,0,0,0,0,0,0,0,0,0,0,0,0,0,0,0,0,0,0,0,0,0,0,0,0,0,0,0,0,0,0,0,0,0,0,0,0,0,0,0,0,0,0,0,0,0,0,0,0,0,0,0,0,0,0,0,0,0,0,0,0,0,0,0,0,0,0,0,0,0,0,0,0,0,0,0,0,0,0,0,0,0,0,0,0,0,0,0,0,0,0,0,0,0,0,0,0,0,0,0,0,0,0,0h0l0,0,0,0,0,0,0,0,0,0,0,0,0,0,0,0,0,0,0,0,0,0,0,0,0,0,0,0,0,0,0,0,0,0,0,0,0,0,0,0,0,0,0,0,0,0,0,0,0,0,0,0,0,0,0,0,0,0,0,0,0,0,0,0v0l0,0,0,0,0,0,0,0,0,.005,0,.005,0,.005,0,.005,0,.005,0,.005,0,.005,0,.005,0,.005,0,.005,0,.005,0,.005,0,0,0,0,0,.005,0,.005,0,.005,0,0v0L6.9.9l0,0,0,0,0,.005,0,.005,0,.005,0,.005,0,.005,0,.005,0,.005,0,0v0l0,.005,0,.005,0,.005,0,.005,0,.005,0,.005,0,.005,0,.005,0,.005,0,.005,0,.005,0,.005,0,.005,0,.005,0,.005,0,.005,0,.005,0,0,0,0,0,.005,0,.005,0,.005,0,0v0l0,.005,0,0,0,0,0,.005,0,0,0,0,0,.005,0,.005,0,.005,0,0,0,0,0,.005,0,.005,0,.005,0,.005,0,.005,0,.005,0,.005,0,.005,0,.005,0,0,0,0,0,.005,0,.005,0,.005,0,.005,0,.005,0,.005,0,.005,0,.005,0,.005,0,0,0,0,0,.005,0,0,0,0,0,.005,0,.005,0,.006,0,0v0l0,.006,0,.006,0,.006v0l0,0,0,.006,0,.006,0,.006v0l0,0,0,.006,0,.006,0,.006,0,.006,0,.006,0,0,0,0,0,.006,0,0v0l0,.006,0,0v0l0,.006,0,.006,0,.006v0l0,0,0,.006v0l0,0,0,.006,0,0,0,0,0,.006,0,.006,0,.006,0,0,0,0,0,.006v0l0,0,0,.006v0l0,0,0,.006,0,.006,0,.006v0l0,0,0,.006,0,.006,0,.006,0,.006,0,.006v0l0,0,0,.006v0l0,0,0,.006,0,0v0l0,.006v0l0,0,0,.006v0l0,0,0,.006v0l0,0,0,.006v0l0,0,0,.006v0l0,0,0,.006,0,0v0l0,.006v0l0,0,0,.006,0,0v0l0,.006v0l0,0,0,.006v0l0,0,0,.006,0,0v0l0,.006,0,.006,0,.006,0,0v0l0,.006,0,0v0l0,.006,0,0v0l0,.006,0,0v0l0,.006v0l0,0,0,.006,0,0v0l0,.006v0l0,0,0,.006v0l0,0,0,.006v0l0,0,0,.006v0l0,0,0,.006v0l0,0,0,.006V1.8l0,.006v.006l0,.006v0l0,0,0,.006v0l0,0,0,.006v0l0,0,0,.006v.006l0,.006v.006l0,.006v.006l0,.006v.006l0,.006V1.9l0,.006v0l0,0,0,.006v.006l0,.006,0,0v0l0,.006v.006l0,.006v.006l0,.006v.006l0,.006V1.99l0,.006V2l0,.006v.006l0,.006v.006l0,.006v.006l0,.006v.006l0,.006v.006l0,.006v.006l0,.006,0,0v0l0,.006V2.1l0,.006v.006l0,.006v.006l0,.006v.006l0,.006V2.15l0,.006v.006l0,.006v.006l0,.006v.006l0,.006V2.2l0,.006v.006l0,.006v.006l0,.006v.006l0,.006V2.25l0,.006v.006l0,.006v.006l0,.006v.006l0,.006V2.3l0,.006v.006l0,.006v.006l0,.006v.006l0,.006v.006l0,.006v.006l0,.006v.006l0,.006v.006l0,.006V2.4l0,.006v.006l0,.006v.006l0,.006V2.44l0,.006v.006l0,.006v.006l0,.006v.006l0,.006v.006l0,.006V2.5l0,.006v.006l0,.006v.006l0,.006v.006l0,.006v.006l0,.006v.006l0,.006V2.58l0,.006v.964s0,0,0,0v.01s0,0,0,0,0,0,0,0v.01s0,0,0,0v.009s0,0,0,0v.938l0,.006v.006l0,.006v.006l0,.006v.006l0,.006v.006l0,.006V4.6l0,.006v.006l0,.006v.006l0,.006v.006l0,.006V4.65l0,.006v.006l0,.006v.006l0,.006v.006l0,.006V4.7l0,.006v.006l0,.006v.006l0,.006v.006l0,.006v.006l0,.006v.006l0,.006v.006l0,.006V4.79l0,.006V4.8l0,.006v.006l0,.006v.006l0,.006V4.84l0,.006v.006l0,.006v.006l0,.006v.006l0,.006v.006l0,.006V4.9l0,.006v.006l0,.006v.006l0,.006v.006l0,.006v.006l0,.006v.006l0,.006v.006l0,.006V4.99l0,.006V5l0,.006v.006l0,.006v.006l0,.006V5.04l0,.006v.006l0,.006v.006l0,.006v.006l0,.006v.006l0,.006,0,0v0l0,.006v.006l0,.006v.006l0,.006v.006l0,.006v.006l0,.006v0l0,0,0,.006v.006l0,.006v0l0,0,0,.006V5.2l0,.006v.006l0,.006v.006l0,.006v.006l0,.006v0l0,0,0,.006,0,0v0l0,.006v.006l0,.006,0,0v0l0,.006V5.3l0,.006,0,0v0l0,.006V5.32l0,.006,0,0v0l0,.006v0l0,0,0,.006,0,0v0l0,.006v0l0,0,0,.006V5.38l0,.006v.006l0,.006V5.4l0,.006,0,.006,0,.006v0l0,0,0,.006v0l0,0,0,.006,0,0v0l0,.006v0l0,0,0,.006v0l0,0,0,.006,0,0v0l0,.006v0l0,0,0,.006v0l0,0,0,.006,0,0v0l0,.006v0l0,0,0,.006,0,0v0l0,.006,0,0v0l0,.006v0l0,0,0,.006v0l0,0,0,.006,0,0v0l0,.006,0,.006,0,.006,0,0v0l0,.006,0,.006,0,.006v0l0,0,0,.006,0,.006,0,.006,0,0v0l0,.006,0,0v0l0,.006v0l0,0,0,.006,0,.006,0,.006,0,0v0l0,.006,0,0v0l0,.006,0,0,0,0,0,.006,0,0v0l0,.006,0,.006,0,.006,0,.006,0,.006,0,.006,0,.006v0l0,0,0,.006,0,0,0,0,0,.006,0,0v0l0,.006,0,.006,0,.006,0,0,0,0,0,.006,0,0v0l0,.006,0,.006,0,.006,0,0v0l0,.006v0l0,0,0,.006,0,.006,0,.006,0,0,0,0,0,.006,0,.006,0,.005,0,.005,0,.005,0,.005,0,.005v0l0,0,0,.005,0,0,0,0,0,.005,0,.005,0,.005,0,.005,0,.005,0,.005,0,.005,0,0,0,0,0,.005V6l0,0,0,.005,0,0,0,0,0,.005,0,0,0,0,0,.005v0l0,0,0,.005,0,.005,0,.005,0,0v0l0,.005,0,0,0,0,0,.005,0,.005,0,.005,0,.005,0,.005L7,6.1l0,.005,0,.005,0,.005,0,.005,0,.005,0,0,0,0,0,.005,0,.005,0,.005,0,.005,0,.005,0,0,0,0,0,.005,0,0,0,0,0,.005,0,0,0,0,0,.005,0,.005,0,.005,0,.005,0,.005,0,.005,0,.005,0,0,0,0,0,.005,0,.005,0,.005,0,0,0,0,0,.005,0,.005,0,.005,0,.005,0,.005,0,.005,0,.005,0,.005,0,.005,0,0,0,0,0,.005,0,.005,0,.005,0,.005,0,.005,0,.005,0,.005,0,0,0,0,0,0,0,0,0,0,0,0,0,0,0,0,0,0,0,0,0,0,0,0,0,0,0,0,0,0,0,0,0,0,0,0,0,0,0,0,0,0,0,0,0,0,0,0,0,0,0,0,0,0,0,0,0,0,0,0,0,0,0,0,0,0,0,0,0,0,0,0,0,0,0,0,0,0,0,0,0,0,0,0,0,0,0,0,0,0,0,0,0,0,0,0,0,0,0,0,0,0,0,0,0,0,0,0,0,0,0,0,0,0,0,0,0,0,0,0,0,0,0,0,0,0,0,0,0,0,0,0,0,0,0,0,0,0,0,0,0,0,0,0,0,0,0,0,0,0,0,0,0,0,0,0,0,0,0,0,0,0,0,0,0,0,0,0,0,0,0,0,0,0,0,0,0,0,0,0,0,0,0,0,0,0,0,0,0,0,0,0,0,0,0,0,0,0,0,0,0,0,0,0,0,0,0,0,0,0,0,0-.005,0-.005,0-.005,0-.005,0-.005,0-.005,0-.005,0-.005,0-.005,0-.005,0-.005,0-.005,0-.005,0-.005,0-.005,0-.005,0-.005,0-.005,0-.005,0-.005,0-.005,0-.005,0-.005,0-.005,0-.005,0-.005,0-.005,0-.005,0-.005,0-.005,0-.005,0-.005,0-.005,0-.005,0-.005,0-.005,0-.005,0-.005,0-.005,0-.005,0-.005,0-.005,0-.005,0L6.11,7,6.105,7l-.005,0-.005,0-.005,0-.005,0-.005,0-.005,0-.005,0-.005,0-.005,0-.005,0-.005,0-.005,0-.005,0-.005,0-.005,0-.005,0-.005,0-.005,0L6,7.074,6,7.078l-.005,0-.005,0-.005,0-.005,0-.005,0-.005,0-.005,0-.005,0-.005,0-.005,0-.005,0-.005,0-.005,0-.005,0-.005,0-.005,0-.006,0-.006,0-.006,0-.006,0-.006,0-.006,0-.006,0-.006,0-.006,0-.006,0-.006,0-.006,0-.006,0-.006,0-.006,0-.006,0-.006,0-.006,0-.006,0-.006,0-.006,0-.006,0-.006,0-.006,0-.006,0-.006,0-.006,0-.006,0-.006,0-.006,0-.006,0-.006,0-.006,0-.006,0-.006,0-.006,0-.006,0-.006,0-.006,0-.006,0-.006,0-.006,0-.006,0-.006,0-.006,0-.006,0-.006,0-.006,0-.006,0-.006,0-.006,0-.006,0-.006,0-.006,0-.006,0-.006,0-.006,0-.006,0-.006,0-.006,0-.006,0-.006,0-.006,0-.006,0-.006,0-.006,0-.006,0-.006,0-.006,0-.006,0-.006,0-.006,0-.006,0-.006,0-.006,0-.006,0-.006,0-.006,0-.006,0-.006,0-.006,0-.006,0-.006,0-.006,0-.006,0-.006,0-.006,0-.006,0-.006,0-.006,0-.006,0-.006,0-.006,0-.006,0-.006,0-.006,0-.006,0-.006,0-.006,0-.006,0-.006,0-.006,0-.006,0-.006,0-.006,0-.006,0-.006,0-.006,0-.006,0-.006,0-.006,0-.006,0-.006,0-.006,0-.006,0-.006,0-.006,0-.006,0-.006,0-.006,0-.006,0-.006,0-.006,0-.006,0-.006,0-.006,0-.006,0-.006,0-.006,0-.006,0-.006,0-.006,0-.006,0-.006,0-.006,0-.006,0-.006,0-.006,0-.006,0-.006,0-.006,0-.006,0-.006,0-.006,0-.006,0-.006,0-.006,0-.006,0-.006,0-.006,0-.006,0-.006,0-.006,0-.006,0L5,7.59l-.006,0-.006,0-.006,0-.006,0-.006,0-.006,0-.006,0-.006,0-.006,0-.006,0-.006,0-.006,0-.006,0-.006,0-.006,0-.006,0-.006,0-.006,0-.006,0-.006,0-.006,0-.006,0-.006,0-.006,0-.006,0-.006,0-.006,0-.006,0-.006,0-.006,0-.006,0-.006,0-.006,0-.006,0-.006,0-.006,0-.006,0-.006,0-.006,0-.006,0-.006,0-.006,0-.006,0-.006,0-.006,0-.006,0-.006,0-.006,0-.006,0-.006,0-.006,0-.006,0-.006,0-.006,0-.006,0-.006,0-.006,0-.006,0-.006,0-.006,0-.006,0-.006,0-.006,0-.006,0-.006,0-.006,0-.006,0-.006,0-.006,0-.006,0-.006,0-.006,0H3.574Zm-.006-1.4h.48l.009,0,.009,0h.008l.009,0,.008,0,.008,0,.009,0,.008,0,.009,0,.008,0,.009,0,.009,0,.009,0,.008,0,.009,0,.007,0,.01,0,.008,0,.008,0,.009,0,.008,0,.009,0,.008,0,.009,0,.008,0,.009,0,.008,0,.009,0,.008,0,.009,0,.007,0,.01,0,.008,0,.009,0,.008,0,.008,0,.009,0,.009,0,.008,0,.008,0,.008,0,.009,0,.008,0,.008,0,.009,0,.009,0,.008,0,.008,0,.008,0,.009,0,.008,0,.009,0,.008,0,.009,0,.008,0,.009,0,.008,0,.008,0,.008,0,.009,0,.007,0,.009,0,.009,0,.007,0,.009,0,.009,0,.008,0,.008,0,.009,0,.008,0,.008,0,.009,0,.008,0,.009,0,.008,0,.008,0,.008,0,.008,0,.007,0,.008,0,.008,0,.008,0,.008,0,.008,0,.008,0,.008,0,.008,0,.008,0,.009,0,.007,0,.007,0,.009,0,.007,0,.007,0,.008,0,.009,0,.007,0,.009,0,.008,0,.008,0,.008,0,.007,0,.008,0,.008,0,.008,0,.008,0,.008,0,.008,0,.008,0,.008,0,.008,0,.007,0,.008,0,.008,0,.007,0,.008,0,.008,0,.007,0,.008,0,.008,0,.007,0,.008,0,.008,0,.007,0,.008,0,.007,0L5.09,6,5.1,6l.007,0,.008-.005.007,0,.007,0,.008-.005.007,0,.008-.005.007,0,.007,0,.008-.005,0,0,.007,0,.007,0L5.2,5.93,5.2,5.925l.007-.005.007-.005.007-.005L5.233,5.9,5.24,5.9l.007-.005,0,0,.007,0,0,0,.007-.005.007-.005.007-.005.007-.005,0,0,0,0,0,0,.007,0,0,0,0,0,.006,0,.007-.005,0,0,0,0,0,0,0,0,0,0,0,0,.007-.005,0,0,0,0,0,0,0,0,.006-.005,0,0,0,0,0,0,0,0,0,0,0,0L5.4,5.772l0,0,0,0,.006,0,0,0,0,0,0,0,0,0,0,0,0,0,0,0,.007-.006,0,0,0,0,0,0,0,0,0,0,0,0,0,0,0,0,0,0,0,0,0,0,0,0,0,0,0,0L5.5,5.687l0,0,0,0,0,0,0,0,0,0,0,0,0,0,0,0,0,0,0,0,0,0,0,0,0,0,0,0,0,0,0,0,0,0,0,0,0,0,0,0,0,0,0,0,0,0,0,0,0,0,0,0,0,0,0,0,0,0,0,0,0,0,0,0,0,0,0,0,0,0,0,0,0,0,0,0,0,0,0,0,0,0,0,0,0,0,0,0,0,0,0,0,0,0,0,0,0,0,0,0,0,0,0,0,0,0,0,0,0,0,0,0,0,0,0,0,0,0,0,0,0,0,0,0,0,0,0,0,0,0,0,0,0,0,0,0,0,0,0,0,0,0,0,0,0,0,0,0,0,0,0,0,0,0,0,0,0,0,0,0,0,0,0,0,0,0,0,0,0,0,0,0,0,0,0,0,0,0,0,0,0,0,0,0,0,0,0,0,0,0,0,0,0,0,0,0,0,0,0,0,0,0,0,0,0,0,0,0,0,0,0,0,0,0,0,0,0,0,0,0,0,0,0,0,0,0,0,0,0,0,0,0,0,0,0,0,0,0,0,0,0,0,0,0,0,0,0,0,0,0,0,0,0,0,0,0,0,0,0,0,0,0,0,0,0,0,0,0,0,0,0,0,0,0,0,0,0,0,0,0,0,0,0,0,0,0,0,0,0,0,0,0,0,0,0,0,0,0,0,0,0,0,0,0,0,0,0,0,0,0,0,0,0,0,0,0,0,0,0,0,0,0,0,0,0,0,0,0,0,0,0,0,0,0,0,0,0,0,0,0,0,0,0,0,0,0,0,0,0,0,0,0,0,0,0,0,0,0,0,0,0,0,0,0,0,0,0,0,0,0,0,0,0,0,0,0,0,0,0,0,0,0,0,0,0,0,0,0,0,0,0,0,0,0,0,0,0,0,0,0,0,0,0,0,0,0,0,0,0,0,0,0,0,0,0,0,0,0,0,0,0,0,0,0,0,0,0,0,0,0,0,0,0,0,0,0,0,0,0,0,0,0,0,0,0,0,0,0,0,0,0,0,0,0,0,0,0,0,0,0,0,0,0,0,0,0,0,0,0,0,0,0,0,0,0,0,0,0,0,0,0,0,0,0,0,0,0,0,0,0,0,0,0,0,0,0,0,0,0,0,0,0,0,0,0,0,0,0,0,0,0,0,0,0v0l0,0,0,0,0,0,0,0,0,0,0,0,0,0,0,0,0,0,0,0,0,0,0,0,0,0v0l0,0,0,0,0,0,0,0,0,0v0l0,0,0,0,0,0v0l0,0,0,0,0,0v0l0,0v0l0,0v0l0,0v0l0,0,0,0,0,0v0l0,0v0l0,0v0l0,0v0l0,0v0l0,0,0,0,0-.005v0l0,0,0,0,0,0v0l0,0v0l0,0v0l0,0v0l0,0v0l0,0V4.5l0-.005v0l0,0v0l0,0v0l0,0v0l0,0v0l0,0V4.445l0,0v0l0-.005V4.419l0-.005V4.386l0-.005V3.587s0,0,0,0v0s0,0,0,0,0,0,0-.005v0s0,0,0-.005v0s0,0,0,0v0s0,0,0,0V2.737l0-.005v-.02l0,0V2.678l0,0v0l0-.005v-.02l0,0v0l0,0v0l0,0v0l0,0v0l0,0v0l0,0v0l0,0v0l0,0v0l0-.005v0l0,0,0,0,0,0v0l0,0v0l0,0,0,0,0,0v0l0,0v0l0,0v0l0,0,0,0,0,0v0l0,0v0l0,0v0l0,0v0l0,0,0,0,0,0v0l0,0,0,0,0,0,0,0,0,0v0l0,0v0l0,0,0,0,0,0,0,0,0,0,0,0,0,0,0,0,0,0,0,0,0,0,0,0,0,0,0,0,0,0,0,0,0,0v0l0,0,0,0,0,0,0,0,0,0,0,0,0,0,0,0,0,0,0,0,0,0,0,0,0,0,0,0,0,0,0,0,0,0,0,0,0,0,0,0,0,0,0,0,0,0,0,0,0,0,0,0,0,0,0,0,0,0,0,0,0,0,0,0,0,0,0,0,0,0,0,0,0,0,0,0,0,0,0,0,0,0,0,0,0,0,0,0,0,0,0,0,0,0,0,0,0,0,0,0,0,0,0,0,0,0,0,0,0,0,0,0,0,0,0,0,0,0,0,0,0,0,0,0,0,0,0,0,0,0,0,0,0,0,0,0,0,0,0,0,0,0,0,0,0,0,0,0,0,0,0,0,0,0,0,0,0,0,0,0,0,0,0,0,0,0,0,0,0,0,0,0,0,0,0,0,0,0,0,0,0,0,0,0,0,0,0,0,0,0,0,0,0,0,0,0,0,0,0,0,0,0,0,0,0,0,0,0,0,0,0,0,0,0,0,0,0,0,0,0,0,0,0,0,0,0,0,0,0,0,0,0,0,0,0,0,0,0,0,0,0,0,0,0,0,0,0,0,0,0,0,0,0,0,0,0,0,0,0,0,0,0,0,0,0,0,0,0,0,0,0,0,0,0,0,0,0,0,0,0,0,0,0,0,0,0,0,0,0,0,0,0,0,0,0,0,0,0,0,0,0,0,0,0,0,0,0,0,0,0,0,0,0,0,0,0,0,0,0,0,0,0,0,0,0,0,0,0,0,0,0,0,0,0,0,0,0,0,0,0,0,0,0,0,0,0,0,0,0,0,0,0,0,0,0,0,0,0,0,0,0,0,0,0,0,0,0,0,0,0,0,0,0,0,0,0,0,0,0,0,0,0,0,0,0,0,0,0,0,0,0,0,0,0,0,0,0,0,0,0,0,0,0,0,0,0,0,0,0,0,0,0,0,0,0,0,0,0,0,0,0,0,0,0,0,0,0,0,0,0,0,0,0,0,0,0,0,0,0,0,0,0,0,0,0,0,0,0,0,0,0,0,0,0,0,0,0,0,0,0,0,0,0,0,0,0,0,0,0,0,0,0,0,0,0,0,0,0,0,0,0,0,0,0,0,0-.006-.005,0,0,0,0,0,0,0,0,0,0,0,0,0,0,0,0,0,0,0,0,0,0,0,0,0,0,0,0,0,0,0,0-.006-.005,0,0,0,0,0,0,0,0,0,0,0,0L5.447,1.4l0,0,0,0L5.434,1.39l0,0,0,0,0,0,0,0-.006-.005,0,0,0,0,0,0,0,0,0,0,0,0,0,0,0,0-.007-.006,0,0,0,0-.006,0,0,0,0,0-.007-.005,0,0,0,0,0,0,0,0-.007-.005,0,0,0,0-.007-.005L5.31,1.289l0,0,0,0,0,0,0,0-.007-.005-.007-.005-.007-.005-.007-.005L5.26,1.252l-.007-.005-.007-.005-.007-.005-.007-.005-.007-.005-.007,0L5.21,1.216,5.2,1.211,5.2,1.206l-.007,0L5.18,1.2l-.007,0-.007,0,0,0,0,0-.007,0-.007,0-.007,0-.008-.005-.007,0-.008-.005-.007,0-.007,0-.008,0-.008,0-.007,0-.008,0-.008,0-.008,0-.008,0-.007,0-.008,0-.008,0-.008,0-.007,0L5,1.083l-.008,0-.007,0-.009,0-.007,0-.008,0-.008,0-.007,0-.008,0-.008,0-.008,0-.007,0-.008,0-.007,0-.008,0-.008,0-.008,0-.007,0-.008,0L4.853,1,4.845,1,4.838,1l-.008,0-.008,0-.008,0-.008,0L4.8.976l-.008,0-.008,0-.007,0-.009,0-.008,0-.008,0-.009,0-.008,0-.008,0-.008,0-.008,0L4.7.932l-.008,0-.009,0-.007,0-.009,0-.008,0-.008,0-.009,0-.007,0L4.627.9,4.619.9,4.612.9,4.6.892,4.6.889l-.009,0-.008,0L4.57.88l-.008,0-.008,0-.009,0-.008,0-.009,0-.008,0-.008,0L4.5.856,4.5.853l-.009,0-.008,0-.008,0-.009,0-.008,0-.008,0-.009,0-.009,0-.008,0-.008,0L4.4.823l-.008,0-.009,0-.009,0-.008,0-.008,0-.009,0-.008,0L4.335.8,4.327.8,4.318.8,4.309.8,4.3.794l-.009,0-.008,0-.009,0-.009,0-.008,0-.009,0-.008,0-.009,0-.008,0-.008,0-.009,0L4.2.769l-.009,0-.009,0-.008,0-.01,0-.008,0-.01,0-.008,0-.009,0-.008,0-.009,0L4.1.75l-.009,0-.008,0-.009,0H4.068l-.009,0H4.051l-.009,0H3.077l-.009,0-.009,0-.009,0-.009,0-.009,0-.009,0-.009,0-.009,0L3,.756l-.009,0-.009,0-.009,0-.009,0-.009,0-.009,0-.009,0-.009,0-.009,0-.009,0L2.9.777,2.9.779l-.009,0-.009,0-.009,0-.009,0-.009,0-.009,0-.009,0L2.827.8,2.819.8,2.81.8,2.8.8l-.009,0-.009,0-.008,0-.008,0-.008,0-.008,0-.008,0-.008,0-.008,0-.008,0-.008,0L2.7.834l-.008,0-.008,0-.008,0-.008,0-.008,0L2.65.85l-.008,0-.008,0-.008,0-.008,0-.008,0L2.6.867l-.008,0-.008,0-.008,0-.008,0-.008,0-.008,0-.008,0-.008,0L2.525.9,2.517.9,2.509.9,2.5.905l-.008,0-.008,0-.008,0-.008,0-.008,0-.008,0-.008,0-.008,0-.008,0-.008,0-.008,0L2.4.946,2.4.95l-.008,0-.008,0-.008,0-.008,0-.008,0-.008,0-.008,0-.008,0-.008,0-.008,0-.008,0L2.3,1,2.291,1,2.283,1l-.008,0-.008,0-.008,0-.008,0-.008,0-.008,0-.008,0-.008,0-.008,0-.008,0-.008,0-.008,0-.008,0-.008,0-.008,0-.008,0-.008,0-.008,0-.008,0-.008,0-.008,0-.008,0-.008,0-.008,0-.008,0-.008,0-.008,0-.008,0-.008,0-.008,0-.007,0,0,0-.007,0-.007,0-.008.005-.007,0L2,1.164,2,1.169l-.008.005-.008.005-.007,0-.007,0-.008.005-.007,0,0,0-.007.005-.007.005-.007.005-.007.005-.007.005,0,0-.007,0-.007.005-.007.005,0,0,0,0-.007,0-.007.005-.007.005-.007.005-.007.005,0,0,0,0-.007.005,0,0-.007.005,0,0,0,0,0,0L1.8,1.308l0,0,0,0,0,0,0,0,0,0,0,0,0,0-.007.006-.007.006,0,0-.006.005,0,0,0,0-.006,0,0,0,0,0,0,0-.007.006,0,0,0,0,0,0-.006.005,0,0,0,0,0,0,0,0,0,0,0,0L1.68,1.41l0,0,0,0,0,0,0,0,0,0,0,0,0,0,0,0,0,0,0,0,0,0,0,0,0,0,0,0-.006.006,0,0,0,0,0,0,0,0,0,0,0,0,0,0,0,0,0,0,0,0,0,0,0,0,0,0,0,0,0,0,0,0,0,0,0,0,0,0,0,0,0,0,0,0,0,0,0,0,0,0,0,0,0,0,0,0,0,0,0,0,0,0,0,0,0,0,0,0,0,0,0,0,0,0,0,0,0,0,0,0,0,0,0,0,0,0,0,0,0,0,0,0,0,0,0,0,0,0,0,0,0,0,0,0,0,0,0,0,0,0,0,0,0,0,0,0,0,0,0,0,0,0,0,0,0,0,0,0,0,0,0,0,0,0,0,0,0,0,0,0,0,0,0,0,0,0,0,0,0,0,0,0,0,0,0,0,0,0,0,0,0,0,0,0,0,0,0,0,0,0,0,0,0,0,0,0,0,0,0,0,0,0,0,0,0,0,0,0,0,0,0,0,0,0,0,0,0,0,0,0,0,0,0,0,0,0,0,0,0,0,0,0,0,0,0,0,0,0,0,0,0,0,0,0,0,0,0,0,0,0,0,0,0,0,0,0,0,0,0,0,0,0,0,0,0,0,0,0,0,0,0,0,0,0,0,0,0,0,0,0,0,0,0,0,0,0,0,0,0,0,0,0,0,0,0,0,0,0,0,0,0,0,0,0,0,0,0,0,0,0,0,0,0,0,0,0,0,0,0,0,0,0,0,0,0,0,0,0,0,0,0,0,0,0,0,0,0,0,0,0,0,0,0,0,0,0,0,0,0,0,0,0,0,0,0,0,0,0,0,0,0,0,0,0,0,0,0,0,0,0,0,0,0,0,0,0,0,0,0,0,0,0,0,0,0,0,0,0,0,0,0,0,0,0,0,0,0,0,0,0,0,0,0,0,0,0,0,0,0,0,0,0,0,0,0,0,0,0,0,0,0,0,0,0,0,0,0,0,0,0,0,0,0,0,0,0,0,0,0,0,0,0,0,0,0,0,0,0,0,0,0,0,0,0,0,0,0,0,0,0,0,0,0,0,0,0,0,0,0,0,0,0,0,0,0,0,0,0,0,0,0,0,0,0,0,0,0,0,0,0,0,0,0,0,0,0,0,0,0,0,0,0,0,0,0,0,0,0,0,0,0,.005v0l0,0,0,0,0,0,0,0,0,0,0,0,0,0,0,0,0,0,0,0,0,0,0,0,0,0,0,0,0,0,0,0,0,0,0,0,0,0v0l0,0,0,0,0,0,0,0,0,0v0l0,0,0,0,0,0,0,0,0,.005v0l0,0,0,0,0,0v0l0,0v0l0,0,0,0,0,.005v0l0,0,0,0,0,.005v0l0,0v0l0,0,0,0,0,0v0l0,0v0l0,.005v0l0,0v0l0,0v0l0,0v0l0,0v0l0,0v0l0,.005v0l0,0v0l0,0v0l0,0v0l0,0v0l0,0v.012l0,.005v.012l0,.005V2.7l0,0v.02l0,.005v.818s0,0,0,0v.005s0,0,0,0,0,0,0,0,0,0,0,0,0,0,0,0v0s0,0,0,.005v0s0,0,0,0v.839l0,0v.012l0,0v.012l0,0v0l0,0v0l0,0v0l0,0v0l0,0v0l0,0v0l0,0v0l0,0v0l0,0v0l0,0v0l0,0v0l0,0v0l0,0v0l0,0v0l0,0v0l0,0v0l0,0v0l0,0,0,0,0,0,0,0,0,0,0,0,0,0v0l0,0,0,0,0,0v0l0,0,0,0,0,0,0,0,0,0v0l0,0,0,0,0,0,0,0,0,0,0,0,0,0,0,0,0,0,0,0,0,0v0l0,0,0,0,0,0,0,0,0,0v0l0,0,0,0,0,0v0l0,0,0,0,0,0,0,0,0,0,0,0,0,0,0,0,0,0,0,0,0,0,0,0,0,0,0,0,0,0,0,0,0,0,0,0,0,0,0,0,0,0,0,0,0,0,0,0,0,0,0,0,0,0,0,0,0,0,0,0,0,0,0,0,0,0,0,0,0,0,0,0,0,0,0,0,0,0,0,0,0,0,0,0,0,0,0,0,0,0,0,0,0,0,0,0,0,0,0,0,0,0,0,0,0,0,0,0,0,0,0,0,0,0,0,0,0,0,0,0,0,0,0,0,0,0,0,0,0,0,0,0,0,0,0,0,0,0,0,0,0,0,0,0,0,0,0,0,0,0,0,0,0,0,0,0,0,0,0,0,0,0,0,0,0,0,0,0,0,0,0,0,0,0,0,0,0,0,0,0,0,0,0,0,0,0,0,0,0,0,0,0,0,0,0,0,0,0,0,0,0,0,0,0,0,0,0,0,0,0,0,0,0,0,0,0,0,0,0,0,0,0,0,0,0,0,0,0,0,0,0,0,0,0,0,0,0,0,0,0,0,0,0,0,0,0,0,0,0,0,0,0,0,0,0,0,0,0,0,0,0,0,0,0,0,0,0,0,0,0,0,0,0,0,0,0,0,0,0,0,0,0,0,0,0,0,0,0,0,0,0,0,0,0,0,0,0,0,0,0,0,0,0,0,0,0,0,0,0,0,0,0,0,0,0,0,0,0,0,0,0,0,0,0,0,0,0,0,0,0,0,0,0,0,0,0,0,0,0,0,0,0,0,0,0,0,0,0,0,0,0,0,0,0,0,0,0,0,0,0,0,0,0,0,0,0,0,0,0,0,0,0,0,0,0,0,0,0,0,0,0,0,0,0,0,0,0,0,0,0,0,0,0,0,0,0,0,0,0,0,0,0,0,0,0,0,0,0,0,0,0,0,0,0,0,0,0,0,0,0,0,0,0,0,0,0,0,0,0,0,0,0,0,0,0,0,0,0,0,0,0,0,0,0,0,0,0,0,0,0,0,0,0,0,0,0,0,0,0,0,0,0,0,0,0,0,0,0,0,0,0,0,0,0,0,0,0,0,0,0,0,0,0,0,0,0,0,0,0,0,0,0,0,0,0,0,0,0,0,0,0,0,0,0,0,0,0,0,0,0,0,0,0,0,0,0,0,0,0,0,0,0,0,0,0,0,0,0,0,0,0,0,0,0,0,0,0,0,0,0,0,0,0,0,0,0,0,0,0,0,0,0,0,0,0,0,0,0,.006.005,0,0,0,0,0,0,0,0,.006.005.007.006,0,0,0,0,0,0,0,0,0,0,0,0,.006,0,0,0,0,0,0,0,0,0,0,0,0,0,.006.005.007.005,0,0,0,0,0,0,0,0,.007.005.007.005,0,0,0,0,.007.005.007.006,0,0,0,0,.007.005.007.005.007.005,0,0,0,0,.006,0,0,0,0,0,.007,0,.008.005.007,0,0,0,0,0,.007.005.007,0,.007,0,.008.005.007,0,.007,0,.008.005.007,0,.007,0,.007,0,.007,0,.008,0,.007,0,.008,0,.007,0,.007,0,.008,0,.008,0,.007,0,.008,0,.008,0,.008,0,.007,0,.008,0,.008,0,.007,0,.008,0,.008,0,.007,0,.008,0,.008,0,.008,0,.007,0,.008,0,.008,0,.008,0,.007,0,.008,0,.008,0,.007,0,.008,0,.008,0,.008,0,.008,0,.008,0,.008,0,.007,0,.008,0,.007,0,.008,0,.007,0,.008,0,.008,0,.008,0,.008,0,.008,0,.009,0,.007,0,.009,0,.007,0,.009,0,.008,0,.008,0,.008,0,.008,0,.008,0,.008,0,.008,0,.008,0,.008,0,.008,0,.009,0,.008,0,.008,0,.009,0,.008,0,.008,0,.009,0,.008,0,.008,0,.008,0,.008,0,.009,0,.007,0,.009,0,.008,0,.008,0,.008,0,.009,0,.008,0,.009,0,.008,0,.009,0,.008,0,.009,0,.008,0,.009,0,.009,0,.008,0,.01,0,.008,0,.008,0,.008,0,.009,0,.008,0,.008,0,.009,0,.009,0,.008,0,.009,0,.008,0,.008,0,.009,0,.009,0,.008,0,.008,0,.008,0,.01,0,.007,0,.01,0,.007,0,.01,0,.008,0,.009,0,.009,0,.008,0,.009,0,.008,0,.008,0,.009,0,.009,0,.008,0L3,6.38l.009,0,.008,0,.008,0,.01,0H3.04l.009,0,.009,0,.009,0h.008l.009,0h.484Z" transform="translate(3.568)" fill="#7e72d1"/>
  </g>
</svg>
