<svg xmlns="http://www.w3.org/2000/svg" width="215.871" height="73.704" viewBox="0 0 215.871 73.704">
  <g id="Grupo_368" data-name="Grupo 368" transform="translate(0 0)">
    <g id="Grupo_15" data-name="Grupo 15">
      <path id="Trazado_7" data-name="Trazado 7" d="M416.265,1700.523H408.22a17.713,17.713,0,0,1-8.283-1.955l-7.22-3.61a4.5,4.5,0,0,0-4.142,0l-7.22,3.61a17.712,17.712,0,0,1-8.283,1.955h-8.045a.185.185,0,0,1-.082-.351l5.884-2.942a.179.179,0,0,0,.028-.018l10.559-7.919a8.911,8.911,0,0,0,3.428-5.162l5.624-22.5a.185.185,0,0,1,.359,0l5.624,22.5a8.912,8.912,0,0,0,3.428,5.162l10.559,7.919a.177.177,0,0,0,.028.018l5.884,2.942a.185.185,0,0,1-.084.351Zm-25.619-4.322a4.177,4.177,0,1,0,4.176,4.176A4.176,4.176,0,0,0,390.646,1696.2Z" transform="translate(-349.764 -1661.494)" fill="#642b80" fill-rule="evenodd"/>
      <path id="Trazado_8" data-name="Trazado 8" d="M357.433,1716.191l4.02,6.969a17.706,17.706,0,0,1,2.445,8.153l.48,8.058a4.5,4.5,0,0,0,2.07,3.588l6.735,4.451a17.711,17.711,0,0,1,5.833,6.2l4.02,6.969a.185.185,0,0,1-.262.247l-5.489-3.628-.03-.016-12.135-5.189a8.917,8.917,0,0,0-6.185-.39l-22.3,6.369a.185.185,0,0,1-.179-.311l16.677-16.112a8.913,8.913,0,0,0,2.759-5.549l1.583-13.1a.136.136,0,0,0,0-.033l-.392-6.567a.185.185,0,0,1,.346-.1Zm9.056,24.352a4.176,4.176,0,1,0,1.531-5.7A4.176,4.176,0,0,0,366.489,1740.543Z" transform="translate(-336.401 -1687.15)" fill="#f19420" fill-rule="evenodd"/>
      <path id="Trazado_9" data-name="Trazado 9" d="M378.468,1725.126l1.313,2.276a19.121,19.121,0,0,1,1.331,2.782,19.11,19.11,0,0,1-3.075.237h-2.627l.4-3.284,0-.017.014-.01Z" transform="translate(-354.729 -1691.392)" fill="#b36052" fill-rule="evenodd"/>
      <path id="Trazado_10" data-name="Trazado 10" d="M428.248,1716.192l-4.02,6.969a17.711,17.711,0,0,0-2.445,8.153l-.48,8.059a4.5,4.5,0,0,1-2.07,3.587l-6.735,4.451a17.7,17.7,0,0,0-5.833,6.2l-4.02,6.969a.185.185,0,0,0,.263.247l5.489-3.627a.182.182,0,0,1,.029-.015l12.135-5.19a8.918,8.918,0,0,1,6.185-.39l22.3,6.369a.185.185,0,0,0,.18-.312l-16.677-16.112a8.91,8.91,0,0,1-2.759-5.549l-1.584-13.1a.18.18,0,0,1,0-.033l.391-6.567a.185.185,0,0,0-.346-.1Zm-9.057,24.352a4.176,4.176,0,1,1-1.531-5.7A4.176,4.176,0,0,1,419.191,1740.543Z" transform="translate(-367.515 -1687.151)" fill="#1671b7" fill-rule="evenodd"/>
      <path id="Trazado_11" data-name="Trazado 11" d="M410.816,1782.075a19.09,19.09,0,0,0-1.732,2.533l-1.316,2.282,3.019,1.291a.208.208,0,0,1,.029.016l.029-.016,3.019-1.291-1.316-2.282A19.09,19.09,0,0,0,410.816,1782.075Z" transform="translate(-369.934 -1718.15)" fill="#8a896c" fill-rule="evenodd"/>
      <path id="Trazado_12" data-name="Trazado 12" d="M443.512,1725.126,442.2,1727.4a19.124,19.124,0,0,0-1.331,2.782,19.1,19.1,0,0,0,3.075.237h2.628l-.4-3.284c0-.006,0-.011,0-.017l-.014-.01Z" transform="translate(-385.486 -1691.392)" fill="#3e4898" fill-rule="evenodd"/>
    </g>
    <g id="Grupo_17" data-name="Grupo 17" transform="translate(73.328 19.784)">
      <path id="Trazado_13" data-name="Trazado 13" d="M505.226,1701.438a3.645,3.645,0,0,0-1.423.648,1.862,1.862,0,0,0-.526.924,9.972,9.972,0,0,0-.148,2.065v17.1a11.713,11.713,0,0,0,.121,1.9,1.917,1.917,0,0,0,.486,1.066,3.453,3.453,0,0,0,1.491.668v1.3H495.084v-1.3a6.586,6.586,0,0,0,1.208-.418,1.287,1.287,0,0,0,.52-.465,2.1,2.1,0,0,0,.277-.871,13.9,13.9,0,0,0,.094-1.923v-9.69c0-1.066.02-2.328.054-3.772s.081-2.483.121-3.083h-.419c-.155.526-.323,1.039-.5,1.552s-.513,1.41-1,2.712l-5.3,14.278h-3.482L481.09,1708.1q-.5-1.366-.87-2.712h-.358q.2,3.259.2,7.712v9.1a9.894,9.894,0,0,0,.135,2.031,1.834,1.834,0,0,0,.553.951,3.512,3.512,0,0,0,1.444.635v1.3H474.72v-1.3a5.165,5.165,0,0,0,1.161-.439,1.561,1.561,0,0,0,.641-.634,2.426,2.426,0,0,0,.27-1.006c.034-.411.047-.931.047-1.558v-17.1a10.551,10.551,0,0,0-.128-2.051,1.79,1.79,0,0,0-.506-.911,3.864,3.864,0,0,0-1.484-.674v-1.3h9.831l5.473,16.227,5.931-16.227h9.271v1.3Zm21.5,22.084a12.988,12.988,0,0,1-3.988,3.023,10.988,10.988,0,0,1-4.548.89q-4.605,0-6.929-2.524t-2.321-7.483a11.918,11.918,0,0,1,1.194-5.52,8.143,8.143,0,0,1,3.388-3.522,10.518,10.518,0,0,1,5.1-1.194,10.756,10.756,0,0,1,3.151.411,7.248,7.248,0,0,1,2.328,1.16,6.344,6.344,0,0,1,1.6,1.788,9.849,9.849,0,0,1,1.127,2.847,17.5,17.5,0,0,1,.412,3.974h-12.53a8.948,8.948,0,0,0,1.276,5.263,4.455,4.455,0,0,0,3.826,1.694,6.293,6.293,0,0,0,2.706-.567,9.381,9.381,0,0,0,2.611-1.984l1.6,1.741Zm-5.337-8.286a11.689,11.689,0,0,0-.789-4.507,2.381,2.381,0,0,0-2.294-1.478,2.725,2.725,0,0,0-2.423,1.539,10.227,10.227,0,0,0-1.072,4.446Zm28.036,6.113c0,1,.013,1.727.047,2.194a3.455,3.455,0,0,0,.229,1.106,1.591,1.591,0,0,0,.574.682,4.158,4.158,0,0,0,1.322.466v1.323l-5.378.175h-2.389l.175-2.847-.3-.013a11.278,11.278,0,0,1-2.99,2.22,6.825,6.825,0,0,1-3.016.783,6.223,6.223,0,0,1-5.391-2.469q-1.781-2.48-1.788-7.436a13.239,13.239,0,0,1,1.086-5.662,7.592,7.592,0,0,1,3.232-3.488,10.5,10.5,0,0,1,5.175-1.187,13.126,13.126,0,0,1,1.708.108,15.288,15.288,0,0,1,1.983.426v-1.8c0-1.41-.02-2.408-.054-2.989a4.74,4.74,0,0,0-.25-1.35,1.559,1.559,0,0,0-.567-.722,4.121,4.121,0,0,0-1.363-.452v-1.322l5.48-.277h2.469v22.536Zm-5.715-7.355a6.355,6.355,0,0,0-.81-3.583,2.825,2.825,0,0,0-2.49-1.161,2.871,2.871,0,0,0-2.105.877,5.544,5.544,0,0,0-1.322,2.537,15.326,15.326,0,0,0-.446,3.933,15.115,15.115,0,0,0,.85,5.817,2.8,2.8,0,0,0,2.645,1.916,3.732,3.732,0,0,0,1.694-.425,3.658,3.658,0,0,0,1.41-1.3,3.612,3.612,0,0,0,.574-2.031v-6.579ZM562,1699.623v4.844h-5.412v-4.844Zm-7.51,26.194a2.726,2.726,0,0,0,1.336-.675,2.312,2.312,0,0,0,.493-1.126,16.911,16.911,0,0,0,.128-2.591v-9.19a10.871,10.871,0,0,0-.088-1.565,2.2,2.2,0,0,0-.338-.945,1.577,1.577,0,0,0-.668-.546,6.017,6.017,0,0,0-1.1-.324v-1.343l5.438-.162h2.47V1721.4c0,.742.006,1.309.027,1.714a7.423,7.423,0,0,0,.088.924,3.145,3.145,0,0,0,.169.587,1.871,1.871,0,0,0,.29.472,1.614,1.614,0,0,0,.513.4,4.293,4.293,0,0,0,.891.317v1.3H554.49v-1.3Zm27.813-3.759,1.525,1.835a13.315,13.315,0,0,1-3.745,2.719,9.458,9.458,0,0,1-3.947.823,8.313,8.313,0,0,1-6.539-2.524q-2.257-2.519-2.253-7.32a11.975,11.975,0,0,1,1.235-5.607,8.256,8.256,0,0,1,3.549-3.576,11.21,11.21,0,0,1,5.3-1.214,22.068,22.068,0,0,1,3.191.229,19.274,19.274,0,0,1,2.895.621v4.763H579.6a6.584,6.584,0,0,0-.891-2.706,1.938,1.938,0,0,0-1.7-.85,2.829,2.829,0,0,0-1.389.365,3.1,3.1,0,0,0-1.167,1.262,8.126,8.126,0,0,0-.8,2.415,20.565,20.565,0,0,0-.3,3.826,14.983,14.983,0,0,0,.438,3.9,4.866,4.866,0,0,0,1.4,2.45,3.687,3.687,0,0,0,2.551.864,4.854,4.854,0,0,0,2.16-.492,10.427,10.427,0,0,0,2.4-1.781Zm15.6,2.47-.291-.095a11.685,11.685,0,0,1-3.158,2.288,7.551,7.551,0,0,1-3.252.715,6.618,6.618,0,0,1-2.955-.621,4.349,4.349,0,0,1-1.9-1.734,5.012,5.012,0,0,1-.641-2.551,5.1,5.1,0,0,1,2.854-4.575q2.854-1.671,8.671-2.1v-1.876a7.662,7.662,0,0,0-.418-2.841,2.577,2.577,0,0,0-2.625-1.808,3.637,3.637,0,0,0-1.572.317,2.94,2.94,0,0,0-1.2,1.194,7.151,7.151,0,0,0-.789,2.442H586.9v-3.6c1.208-.54,2.22-.958,3.023-1.249a24.351,24.351,0,0,1,2.382-.721,20.186,20.186,0,0,1,2.105-.405,15.565,15.565,0,0,1,1.855-.115,9.53,9.53,0,0,1,3.826.634,4.239,4.239,0,0,1,2.146,2.052,8.983,8.983,0,0,1,.708,3.934v7.713c0,.87.021,1.538.061,2.018a4.16,4.16,0,0,0,.189,1.052,1.6,1.6,0,0,0,.324.553,1.474,1.474,0,0,0,.486.338,7.948,7.948,0,0,0,1.08.33v1.3h-7.355l.176-2.591Zm-.648-6.741a8.2,8.2,0,0,0-4.542,1.147,3.629,3.629,0,0,0-1.471,3.124,2.461,2.461,0,0,0,.675,1.869,2.583,2.583,0,0,0,1.855.641,3.288,3.288,0,0,0,1.721-.486,3.581,3.581,0,0,0,1.282-1.3,3.346,3.346,0,0,0,.479-1.721v-3.28Zm18.029,3.617a19.611,19.611,0,0,0,.115,2.591,2.324,2.324,0,0,0,.486,1.14,2.705,2.705,0,0,0,1.376.681v1.3h-9.69v-1.3a3.541,3.541,0,0,0,.931-.33,1.6,1.6,0,0,0,.52-.432,2.414,2.414,0,0,0,.331-.635,4.213,4.213,0,0,0,.175-1.066c.027-.452.04-1.106.04-1.95v-15.418c0-1.133-.007-1.964-.027-2.5a10.844,10.844,0,0,0-.121-1.349,2.357,2.357,0,0,0-.3-.871,1.451,1.451,0,0,0-.581-.519,4.558,4.558,0,0,0-1.208-.358v-1.3l5.473-.277h2.476V1721.4Z" transform="translate(-474.72 -1698.813)" fill="#f19420" fill-rule="evenodd"/>
      <g id="Grupo_16" data-name="Grupo 16" transform="translate(55.81 33.604)">
        <path id="Trazado_14" data-name="Trazado 14" d="M685.734,1762.6v2.486h-1.166a2.861,2.861,0,0,0-.653-1.426,1.542,1.542,0,0,0-1.165-.46,2.207,2.207,0,0,0-2.049,1.3,8.382,8.382,0,0,0-.7,3.856,8.064,8.064,0,0,0,.635,3.6,2.011,2.011,0,0,0,1.862,1.221,2.166,2.166,0,0,0,1.022-.21,1.57,1.57,0,0,0,.629-.63,4.442,4.442,0,0,0,.407-1.183h1.174v2.6c-.627.149-1.2.258-1.722.328a12.689,12.689,0,0,1-1.622.1,5.828,5.828,0,0,1-2.914-.644,3.837,3.837,0,0,1-1.663-1.941,8.7,8.7,0,0,1-.536-3.291,7.746,7.746,0,0,1,.63-3.239,4.732,4.732,0,0,1,1.857-2.123,5.545,5.545,0,0,1,2.934-.747,12.089,12.089,0,0,1,1.569.094,10.761,10.761,0,0,1,1.467.311Zm6.535,10.319-.126-.041a5.072,5.072,0,0,1-1.37.993,3.279,3.279,0,0,1-1.411.31,2.874,2.874,0,0,1-1.282-.269,1.889,1.889,0,0,1-.823-.753,2.17,2.17,0,0,1-.278-1.106,2.214,2.214,0,0,1,1.239-1.985,9.007,9.007,0,0,1,3.762-.914v-.814a3.318,3.318,0,0,0-.182-1.232,1.12,1.12,0,0,0-1.139-.785,1.58,1.58,0,0,0-.682.137,1.278,1.278,0,0,0-.521.519,3.1,3.1,0,0,0-.343,1.06h-1.619v-1.561c.524-.234.963-.416,1.312-.542a10.538,10.538,0,0,1,1.033-.313,8.854,8.854,0,0,1,.913-.176,6.759,6.759,0,0,1,.805-.05,4.135,4.135,0,0,1,1.66.275,1.838,1.838,0,0,1,.931.89,3.89,3.89,0,0,1,.307,1.707v3.346c0,.378.009.668.026.876a1.824,1.824,0,0,0,.082.457.687.687,0,0,0,.141.24.645.645,0,0,0,.211.147,3.381,3.381,0,0,0,.469.143v.565h-3.191l.076-1.124Zm-.281-2.925a3.555,3.555,0,0,0-1.971.5,1.575,1.575,0,0,0-.638,1.355,1.068,1.068,0,0,0,.293.812,1.122,1.122,0,0,0,.805.278,1.428,1.428,0,0,0,.746-.21,1.551,1.551,0,0,0,.557-.563,1.452,1.452,0,0,0,.208-.746V1770Zm7.815-3.232.111.023a4.11,4.11,0,0,1,1.286-1.063,3.213,3.213,0,0,1,1.435-.325,5.882,5.882,0,0,1,1.1.111v2.369h-1.555a1.932,1.932,0,0,0-.38-.764.8.8,0,0,0-.63-.267.919.919,0,0,0-.419.117,1.49,1.49,0,0,0-.419.325,1.374,1.374,0,0,0-.275.427,1.86,1.86,0,0,0-.106.442,6.3,6.3,0,0,0-.026.671v2.735a7.575,7.575,0,0,0,.058,1.142.968.968,0,0,0,.24.51,1.133,1.133,0,0,0,.609.263v.565H696.6v-.565a1.171,1.171,0,0,0,.571-.293,1.007,1.007,0,0,0,.214-.489,7.418,7.418,0,0,0,.055-1.125v-3.525c0-.421-.006-.735-.02-.94a1.549,1.549,0,0,0-.1-.489.705.705,0,0,0-.249-.3,1.616,1.616,0,0,0-.58-.2v-.583l2.352-.071h1.08l-.12,1.3Zm12.412,5.721a5.622,5.622,0,0,1-1.731,1.312,4.765,4.765,0,0,1-1.973.386,3.888,3.888,0,0,1-3.007-1.1,4.629,4.629,0,0,1-1.007-3.247,5.176,5.176,0,0,1,.518-2.4,3.536,3.536,0,0,1,1.47-1.528,4.564,4.564,0,0,1,2.213-.518,4.682,4.682,0,0,1,1.368.178,3.153,3.153,0,0,1,1.01.5,2.748,2.748,0,0,1,.694.776,4.276,4.276,0,0,1,.489,1.236,7.578,7.578,0,0,1,.179,1.724H707a3.882,3.882,0,0,0,.553,2.284,1.935,1.935,0,0,0,1.66.735,2.72,2.72,0,0,0,1.174-.246,4.061,4.061,0,0,0,1.133-.861l.694.755Zm-2.316-3.6a5.067,5.067,0,0,0-.343-1.956,1.034,1.034,0,0,0-1-.641,1.182,1.182,0,0,0-1.051.668,4.44,4.44,0,0,0-.466,1.929Z" transform="translate(-625.704 -1762.201)" fill="#1671b7" fill-rule="evenodd"/>
        <path id="Trazado_15" data-name="Trazado 15" d="M590.107,1772.017a5.019,5.019,0,0,0,.056.9.8.8,0,0,0,.228.407,1.453,1.453,0,0,0,.627.275v.565h-4.477v-.565a1.786,1.786,0,0,0,.641-.258.7.7,0,0,0,.208-.366,5.08,5.08,0,0,0,.058-.964v-3.44h-3.877v3.44c0,.2.006.384.018.557a1.779,1.779,0,0,0,.067.421.763.763,0,0,0,.149.273.827.827,0,0,0,.273.194,2.207,2.207,0,0,0,.419.143v.565h-4.5v-.565a2.577,2.577,0,0,0,.5-.184.639.639,0,0,0,.273-.275,1.227,1.227,0,0,0,.117-.445c.017-.182.026-.41.026-.682v-7.4c0-.269-.009-.495-.024-.677a1.113,1.113,0,0,0-.111-.448.7.7,0,0,0-.273-.278,2.2,2.2,0,0,0-.512-.193v-.565h4.5v.565a1.654,1.654,0,0,0-.62.284.861.861,0,0,0-.237.407,4.2,4.2,0,0,0-.067.913v2.866h3.876v-2.866a4.82,4.82,0,0,0-.056-.9.8.8,0,0,0-.223-.412,1.6,1.6,0,0,0-.629-.287v-.565h4.477v.565a2.035,2.035,0,0,0-.55.22.624.624,0,0,0-.243.3,1.4,1.4,0,0,0-.093.4c-.015.149-.024.378-.024.685v7.388Zm6.641,2.29a4.935,4.935,0,0,1-2.175-.442,3.177,3.177,0,0,1-1.429-1.414,5.289,5.289,0,0,1-.512-2.477,5.636,5.636,0,0,1,.317-1.988,3.719,3.719,0,0,1,.884-1.391,3.522,3.522,0,0,1,1.35-.811,5.415,5.415,0,0,1,1.7-.26,4.155,4.155,0,0,1,3.13,1.092,4.446,4.446,0,0,1,1.054,3.206,5.408,5.408,0,0,1-.521,2.5,3.357,3.357,0,0,1-1.493,1.5,5.083,5.083,0,0,1-2.308.489Zm-1.511-4.521a7,7,0,0,0,.407,2.723,1.315,1.315,0,0,0,1.233.9,1.213,1.213,0,0,0,.759-.231,1.613,1.613,0,0,0,.489-.668,3.962,3.962,0,0,0,.261-1.051,10.919,10.919,0,0,0,.079-1.379,7.135,7.135,0,0,0-.407-2.755,1.3,1.3,0,0,0-1.206-.914,1.228,1.228,0,0,0-.934.369,2.267,2.267,0,0,0-.515,1.1,9.033,9.033,0,0,0-.164,1.9Zm10.544-2.96.1.027a6.032,6.032,0,0,1,1.405-1.031,2.96,2.96,0,0,1,1.28-.3,2.885,2.885,0,0,1,1.054.164,1.879,1.879,0,0,1,.711.475,2.312,2.312,0,0,1,.474.82,6.973,6.973,0,0,1,1.505-1.133,2.9,2.9,0,0,1,1.332-.325,3.1,3.1,0,0,1,1.139.178,1.738,1.738,0,0,1,.741.559,2.44,2.44,0,0,1,.425.943,6.082,6.082,0,0,1,.131,1.356v3.13c0,.252.006.489.015.708a2.5,2.5,0,0,0,.064.527.943.943,0,0,0,.14.322.758.758,0,0,0,.252.211,2.142,2.142,0,0,0,.4.146v.565h-4.135v-.565a.977.977,0,0,0,.533-.275,1.1,1.1,0,0,0,.2-.5,7.883,7.883,0,0,0,.056-1.133v-2.3a12.051,12.051,0,0,0-.053-1.256,2.152,2.152,0,0,0-.2-.759.954.954,0,0,0-.348-.395,1,1,0,0,0-.527-.12,1.251,1.251,0,0,0-.413.067,1.614,1.614,0,0,0-.381.211,2.364,2.364,0,0,0-.331.287,1.22,1.22,0,0,0-.219.325,1.512,1.512,0,0,0-.111.4,6.831,6.831,0,0,0-.029.729v2.8c0,.389.009.688.021.893a1.956,1.956,0,0,0,.091.5.729.729,0,0,0,.219.313,1.276,1.276,0,0,0,.469.211v.565h-4.085v-.565a1,1,0,0,0,.544-.275,1.029,1.029,0,0,0,.2-.5,8.206,8.206,0,0,0,.05-1.136v-2.3c0-.378-.006-.7-.02-.958a4.18,4.18,0,0,0-.074-.63,1.688,1.688,0,0,0-.141-.418,1.1,1.1,0,0,0-.2-.293.85.85,0,0,0-.276-.173,1.183,1.183,0,0,0-.4-.059,1.343,1.343,0,0,0-.665.2,1.718,1.718,0,0,0-.585.551,1.346,1.346,0,0,0-.234.755v3.318a9.039,9.039,0,0,0,.047,1.13.83.83,0,0,0,.741.785v.565H602.59v-.565a1.175,1.175,0,0,0,.571-.292,1,1,0,0,0,.214-.489,7.31,7.31,0,0,0,.056-1.125v-3.525c0-.421-.006-.735-.021-.94a1.556,1.556,0,0,0-.1-.489.708.708,0,0,0-.249-.3,1.616,1.616,0,0,0-.58-.2v-.583l2.351-.07h1.08l-.129,1.236Zm20.209,5.783a5.622,5.622,0,0,1-1.731,1.312,4.765,4.765,0,0,1-1.973.386,3.889,3.889,0,0,1-3.007-1.1,4.63,4.63,0,0,1-1.007-3.247,5.178,5.178,0,0,1,.518-2.4,3.536,3.536,0,0,1,1.47-1.528,4.566,4.566,0,0,1,2.213-.518,4.683,4.683,0,0,1,1.368.178,3.154,3.154,0,0,1,1.01.5,2.738,2.738,0,0,1,.694.776,4.261,4.261,0,0,1,.489,1.236,7.554,7.554,0,0,1,.179,1.724h-5.437a3.885,3.885,0,0,0,.554,2.284,1.934,1.934,0,0,0,1.66.735,2.721,2.721,0,0,0,1.174-.246,4.055,4.055,0,0,0,1.133-.861l.695.755Zm-2.316-3.6a5.079,5.079,0,0,0-.342-1.956,1.034,1.034,0,0,0-1-.641,1.181,1.181,0,0,0-1.051.668,4.431,4.431,0,0,0-.466,1.929Z" transform="translate(-579.994 -1762.323)" fill="#1671b7" fill-rule="evenodd"/>
      </g>
    </g>
  </g>
</svg>
