<svg id="Grupo_1848" data-name="Grupo 1848" xmlns="http://www.w3.org/2000/svg" xmlns:xlink="http://www.w3.org/1999/xlink" width="21.886" height="21.902" viewBox="0 0 21.886 21.902">
  <defs>
    <clipPath id="clip-path">
      <rect id="Rectángulo_99" data-name="Rectángulo 99" width="21.886" height="21.902" fill="#8a51ce"/>
    </clipPath>
  </defs>
  <g id="Grupo_1847" data-name="Grupo 1847" clip-path="url(#clip-path)">
    <path id="Trazado_433" data-name="Trazado 433" d="M2.522,11.079c0-.214,0-.42,0-.627.011-1.128-.04-2.261.046-3.383A7.3,7.3,0,0,1,5.959,1.342a7.383,7.383,0,0,1,4.929-1.2.846.846,0,1,1-.12,1.678A5.531,5.531,0,0,0,7.694,2.3,5.741,5.741,0,0,0,4.216,7.519c-.05,1.119-.011,2.241-.012,3.362,0,.045.006.09.012.167H4.51q6.356,0,12.712,0a2.944,2.944,0,0,1,.143,5.885c-.36.01-.721,0-1.082,0q-6.644,0-13.288,0a2.938,2.938,0,0,1-.731-5.8l.257-.061m7.57,4.153q3.58,0,7.161,0a1.24,1.24,0,1,0-.052-2.478H6.425c-1.174,0-2.349,0-3.523,0a1.238,1.238,0,0,0,.052,2.476q3.569,0,7.138,0" transform="translate(0 -0.094)" fill="#8a51ce"/>
    <path id="Trazado_434" data-name="Trazado 434" d="M196.451,0a5.049,5.049,0,1,1-4.893,5.231A5.043,5.043,0,0,1,196.451,0m3.506,5.062a3.353,3.353,0,1,0-3.341,3.34,3.356,3.356,0,0,0,3.341-3.34" transform="translate(-179.765 0)" fill="#8a51ce"/>
    <path id="Trazado_435" data-name="Trazado 435" d="M100.016,304.6a5.053,5.053,0,0,1-3.987-1.962.838.838,0,0,1,.087-1.212.847.847,0,0,1,1.221.166,3.365,3.365,0,0,0,5.358,0,.839.839,0,1,1,1.3,1.055,5.049,5.049,0,0,1-3.978,1.948" transform="translate(-89.915 -282.699)" fill="#8a51ce"/>
  </g>
</svg>
