<svg xmlns="http://www.w3.org/2000/svg" width="72.159" height="73.08" viewBox="0 0 72.159 73.08">
  <g id="Grupo_375" data-name="Grupo 375" transform="translate(-151.42 -256.92)">
    <path id="user_image" data-name="user image" d="M36.08,0A36.08,36.08,0,1,1,0,36.08,36.08,36.08,0,0,1,36.08,0Z" transform="translate(223.58 329.08) rotate(180)" fill="#642b80"/>
    <g id="Grupo_52" data-name="Grupo 52" transform="translate(-450.515 -347.106)">
      <path id="Trazado_298" data-name="Trazado 298" d="M656.67,627.657h-1.457v-1.325a.823.823,0,0,0-.823-.822h-3.338a.822.822,0,0,0-.823.822v1.325h-2.267l-2.381-3.173a4.321,4.321,0,0,0-3.688-2.085h-7.756a4.321,4.321,0,0,0-3.688,2.085l-2.381,3.173H619.36a4.118,4.118,0,0,0-4.113,4.113V653.7a4.118,4.118,0,0,0,4.113,4.114h37.31a4.118,4.118,0,0,0,4.113-4.114V631.77A4.118,4.118,0,0,0,656.67,627.657Zm-4.8-.5h1.693v.5h-1.693Zm-20.082-1.719a.8.8,0,0,0,.051-.078,2.669,2.669,0,0,1,2.294-1.313h7.756a2.67,2.67,0,0,1,2.294,1.313.8.8,0,0,0,.051.078l1.667,2.221h-15.78ZM659.138,653.7a2.471,2.471,0,0,1-2.468,2.468H619.36a2.471,2.471,0,0,1-2.468-2.468V631.77a2.471,2.471,0,0,1,2.468-2.468h37.31a2.471,2.471,0,0,1,2.468,2.468Z" fill="#fff"/>
      <path id="Trazado_299" data-name="Trazado 299" d="M638.015,632.376a10.359,10.359,0,1,0,10.359,10.359A10.371,10.371,0,0,0,638.015,632.376Zm0,19.072a8.713,8.713,0,1,1,8.713-8.713A8.723,8.723,0,0,1,638.015,651.448Z" fill="#fff"/>
      <path id="Trazado_300" data-name="Trazado 300" d="M640.074,635.587a7.413,7.413,0,0,0-1.3-.251.823.823,0,0,0-.166,1.637,5.819,5.819,0,0,1,1.011.2.823.823,0,0,0,.455-1.581Z" fill="#fff"/>
      <path id="Trazado_301" data-name="Trazado 301" d="M635.752,635.65A7.437,7.437,0,0,0,630.93,645a.825.825,0,0,0,.784.572.805.805,0,0,0,.25-.039.823.823,0,0,0,.534-1.034,5.792,5.792,0,0,1,3.755-7.279.823.823,0,0,0-.5-1.568Z" fill="#fff"/>
    </g>
    <circle id="Elipse_1" data-name="Elipse 1" cx="7" cy="7" r="7" transform="translate(205 311)" fill="#f19420"/>
    <text id="_" data-name="+" transform="translate(212 325)" fill="#fff" font-size="19" font-family="Montserrat-SemiBold, Montserrat" font-weight="600"><tspan x="-5.605" y="0">+</tspan></text>
  </g>
</svg>
