<svg xmlns="http://www.w3.org/2000/svg" width="15" height="17.889" viewBox="0 0 15 17.889">
  <g id="Location" transform="translate(-9 -7)">
    <g id="Icon" transform="translate(10 8)">
      <path id="Shape" d="M6.5-1A7.508,7.508,0,0,1,14,6.5c0,5.527-6.662,10.032-6.945,10.221a1,1,0,0,1-1.109,0C5.662,16.532-1,12.027-1,6.5A7.508,7.508,0,0,1,6.5-1Zm0,15.655C7.995,13.52,12,10.141,12,6.5a5.5,5.5,0,0,0-11,0C1,10.152,5,13.522,6.5,14.655Z" transform="translate(0 0)" fill="#f19420"/>
      <path id="Oval" d="M2.167-1A3.167,3.167,0,1,1-1,2.167,3.17,3.17,0,0,1,2.167-1Zm0,4.333A1.167,1.167,0,1,0,1,2.167,1.168,1.168,0,0,0,2.167,3.333Z" transform="translate(4.333 4.333)" fill="#f19420"/>
    </g>
  </g>
</svg>
