<svg xmlns="http://www.w3.org/2000/svg" width="15" height="15" viewBox="0 0 15 15">
  <path id="Unión_2" data-name="Unión 2" d="M-3787.707-1861.293l-3.1-3.1a6.381,6.381,0,0,1-3.773,1.229,6.423,6.423,0,0,1-6.417-6.417,6.423,6.423,0,0,1,6.417-6.416,6.423,6.423,0,0,1,6.416,6.416,6.385,6.385,0,0,1-1.229,3.774l3.1,3.1a1,1,0,0,1,0,1.414.994.994,0,0,1-.707.293A1,1,0,0,1-3787.707-1861.293Zm-11.293-8.291a4.423,4.423,0,0,0,4.417,4.418,4.4,4.4,0,0,0,3.086-1.26l.034-.036.037-.035a4.4,4.4,0,0,0,1.26-3.086,4.422,4.422,0,0,0-4.417-4.417A4.422,4.422,0,0,0-3799-1869.584Z" transform="translate(3801 1876)" fill="#c8c6c3"/>
</svg>
