<svg xmlns="http://www.w3.org/2000/svg" width="108.235" height="60.488" viewBox="0 0 108.235 60.488">
  <g id="Grupo_239" data-name="Grupo 239" transform="translate(-119.437 -11.528)">
    <path id="Trazado_354" data-name="Trazado 354" d="M2.934,0H23.209c1.621,0,2.934,2.6,2.934,5.811v6.867c0,3.209-1.314,5.811-2.934,5.811H2.934C1.314,18.488,0,15.887,0,12.678V5.811C0,2.6,1.314,0,2.934,0Z" transform="translate(140.437 32.528)" fill="#fff" opacity="0.35"/>
    <g id="Grupo_238" data-name="Grupo 238" transform="translate(-6.86 -7.372)">
      <g id="Grupo_69" data-name="Grupo 69" transform="translate(143.953 27.463)">
        <g id="Grupo_15" data-name="Grupo 15">
          <path id="Trazado_7" data-name="Trazado 7" d="M386.418,1677.87h-3.376a7.433,7.433,0,0,1-3.476-.82l-3.029-1.515a1.888,1.888,0,0,0-1.738,0l-3.03,1.515a7.432,7.432,0,0,1-3.476.82h-3.376a.078.078,0,0,1-.034-.147l2.469-1.234.012-.007,4.43-3.323a3.739,3.739,0,0,0,1.438-2.166l2.36-9.439a.078.078,0,0,1,.151,0l2.36,9.439a3.74,3.74,0,0,0,1.438,2.166l4.43,3.323.012.007,2.469,1.234a.078.078,0,0,1-.035.147Zm-10.75-1.813a1.752,1.752,0,1,0,1.752,1.752A1.752,1.752,0,0,0,375.668,1676.057Z" transform="translate(-358.514 -1661.494)" fill="#642b80" fill-rule="evenodd"/>
          <path id="Trazado_8" data-name="Trazado 8" d="M345.226,1716.137l1.687,2.924a7.43,7.43,0,0,1,1.026,3.421l.2,3.381a1.887,1.887,0,0,0,.868,1.505l2.826,1.868a7.43,7.43,0,0,1,2.448,2.6l1.687,2.924a.078.078,0,0,1-.11.1l-2.3-1.522-.012-.007-5.092-2.177a3.741,3.741,0,0,0-2.595-.164l-9.356,2.672a.078.078,0,0,1-.075-.131l7-6.76a3.741,3.741,0,0,0,1.158-2.328l.664-5.5a.059.059,0,0,0,0-.014l-.164-2.756a.078.078,0,0,1,.145-.043Zm3.8,10.218a1.752,1.752,0,1,0,.642-2.393A1.752,1.752,0,0,0,349.026,1726.355Z" transform="translate(-336.401 -1703.952)" fill="#f19420" fill-rule="evenodd"/>
          <path id="Trazado_9" data-name="Trazado 9" d="M376.693,1725.126l.551.955a8.023,8.023,0,0,1,.559,1.167,8.012,8.012,0,0,1-1.29.1h-1.1l.167-1.378v-.007l.006,0Z" transform="translate(-366.732 -1710.971)" fill="#b36052" fill-rule="evenodd"/>
          <path id="Trazado_10" data-name="Trazado 10" d="M413.374,1716.138l-1.687,2.924a7.431,7.431,0,0,0-1.026,3.421l-.2,3.381a1.887,1.887,0,0,1-.868,1.505l-2.826,1.868a7.428,7.428,0,0,0-2.447,2.6l-1.687,2.924a.078.078,0,0,0,.11.1l2.3-1.522.012-.006,5.092-2.177a3.741,3.741,0,0,1,2.6-.164l9.356,2.672a.078.078,0,0,0,.075-.131l-7-6.76a3.739,3.739,0,0,1-1.158-2.328l-.665-5.5a.074.074,0,0,1,0-.014l.164-2.756a.078.078,0,0,0-.145-.043Zm-3.8,10.218a1.752,1.752,0,1,1-.642-2.394A1.752,1.752,0,0,1,409.573,1726.355Z" transform="translate(-387.89 -1703.952)" fill="#1671b7" fill-rule="evenodd"/>
          <path id="Trazado_11" data-name="Trazado 11" d="M409.047,1782.075a8.017,8.017,0,0,0-.727,1.063l-.552.957,1.267.542.012.007.012-.007,1.267-.542-.552-.957A8.016,8.016,0,0,0,409.047,1782.075Z" transform="translate(-391.893 -1755.253)" fill="#8a896c" fill-rule="evenodd"/>
          <path id="Trazado_12" data-name="Trazado 12" d="M441.977,1725.126l-.551.955a8.026,8.026,0,0,0-.559,1.167,8.007,8.007,0,0,0,1.29.1h1.1l-.167-1.378s0,0,0-.007l-.006,0Z" transform="translate(-417.63 -1710.971)" fill="#3e4898" fill-rule="evenodd"/>
        </g>
        <g id="Grupo_17" data-name="Grupo 17" transform="translate(30.768 8.301)">
          <path id="Trazado_13" data-name="Trazado 13" d="M487.52,1699.914a1.53,1.53,0,0,0-.6.272.781.781,0,0,0-.221.388,4.184,4.184,0,0,0-.062.866v7.177a4.919,4.919,0,0,0,.051.8.8.8,0,0,0,.2.447,1.451,1.451,0,0,0,.626.28v.547h-4.256v-.547a2.765,2.765,0,0,0,.507-.176.538.538,0,0,0,.218-.2.88.88,0,0,0,.116-.365,5.827,5.827,0,0,0,.04-.807v-4.066c0-.448.008-.977.023-1.583s.034-1.042.051-1.294h-.176c-.065.221-.136.436-.209.651s-.215.592-.419,1.138l-2.222,5.991h-1.461l-2.339-6.727q-.208-.573-.365-1.138h-.15q.085,1.367.085,3.236v3.817a4.149,4.149,0,0,0,.057.852.77.77,0,0,0,.232.4,1.471,1.471,0,0,0,.606.266v.546H474.72v-.546a2.16,2.16,0,0,0,.487-.184.655.655,0,0,0,.269-.266,1.018,1.018,0,0,0,.113-.422c.014-.173.02-.391.02-.654v-7.177a4.43,4.43,0,0,0-.054-.861.751.751,0,0,0-.212-.382,1.623,1.623,0,0,0-.623-.283v-.547h4.125l2.3,6.809,2.489-6.809h3.89v.547Zm9.023,9.267a5.448,5.448,0,0,1-1.673,1.269,4.609,4.609,0,0,1-1.908.374,3.761,3.761,0,0,1-2.908-1.059,4.477,4.477,0,0,1-.974-3.14,5,5,0,0,1,.5-2.316A3.417,3.417,0,0,1,491,1702.83a4.413,4.413,0,0,1,2.14-.5,4.517,4.517,0,0,1,1.322.173,3.042,3.042,0,0,1,.977.487,2.662,2.662,0,0,1,.671.75,4.13,4.13,0,0,1,.473,1.195,7.342,7.342,0,0,1,.173,1.668H491.5a3.755,3.755,0,0,0,.535,2.208,1.869,1.869,0,0,0,1.605.711,2.639,2.639,0,0,0,1.135-.238,3.935,3.935,0,0,0,1.1-.832l.671.731Zm-2.24-3.477a4.906,4.906,0,0,0-.331-1.891,1,1,0,0,0-.963-.62,1.143,1.143,0,0,0-1.017.646,4.291,4.291,0,0,0-.45,1.866Zm11.764,2.565c0,.419.006.725.02.92a1.451,1.451,0,0,0,.1.464.669.669,0,0,0,.241.286,1.746,1.746,0,0,0,.555.2v.555l-2.256.073h-1l.074-1.195-.125-.006a4.733,4.733,0,0,1-1.254.931,2.864,2.864,0,0,1-1.266.328,2.611,2.611,0,0,1-2.262-1.036,5.344,5.344,0,0,1-.75-3.12,5.555,5.555,0,0,1,.456-2.376,3.186,3.186,0,0,1,1.356-1.464,4.405,4.405,0,0,1,2.172-.5,5.517,5.517,0,0,1,.716.045,6.442,6.442,0,0,1,.832.179v-.756c0-.592-.008-1.011-.023-1.254a1.99,1.99,0,0,0-.1-.566.654.654,0,0,0-.238-.3,1.727,1.727,0,0,0-.572-.19v-.555l2.3-.116h1.036v9.456Zm-2.4-3.086a2.666,2.666,0,0,0-.34-1.5,1.185,1.185,0,0,0-1.045-.487,1.2,1.2,0,0,0-.883.368,2.327,2.327,0,0,0-.555,1.065,6.431,6.431,0,0,0-.187,1.65,6.342,6.342,0,0,0,.357,2.441,1.173,1.173,0,0,0,1.11.8,1.564,1.564,0,0,0,.711-.178,1.535,1.535,0,0,0,.591-.546,1.516,1.516,0,0,0,.241-.852v-2.76Zm7.672-6.03v2.033h-2.271v-2.033Zm-3.151,10.991a1.142,1.142,0,0,0,.561-.283.969.969,0,0,0,.207-.473,7.1,7.1,0,0,0,.054-1.087v-3.856a4.558,4.558,0,0,0-.037-.657.922.922,0,0,0-.142-.4.661.661,0,0,0-.28-.229,2.521,2.521,0,0,0-.461-.136v-.563l2.282-.068h1.036v5.9c0,.311,0,.549.011.719a3.128,3.128,0,0,0,.037.388,1.327,1.327,0,0,0,.071.246.785.785,0,0,0,.122.2.676.676,0,0,0,.215.167,1.8,1.8,0,0,0,.374.133v.547h-4.049v-.547Zm11.67-1.577.64.77a5.588,5.588,0,0,1-1.571,1.141,3.969,3.969,0,0,1-1.656.345,3.488,3.488,0,0,1-2.744-1.059,4.462,4.462,0,0,1-.945-3.072,5.024,5.024,0,0,1,.518-2.353,3.464,3.464,0,0,1,1.489-1.5,4.7,4.7,0,0,1,2.223-.51,9.26,9.26,0,0,1,1.339.1,8.1,8.1,0,0,1,1.215.261v2h-1.642a2.761,2.761,0,0,0-.374-1.135.813.813,0,0,0-.713-.357,1.187,1.187,0,0,0-.583.153,1.3,1.3,0,0,0-.49.53,3.407,3.407,0,0,0-.337,1.013,8.621,8.621,0,0,0-.125,1.605,6.287,6.287,0,0,0,.184,1.636,2.042,2.042,0,0,0,.589,1.028,1.547,1.547,0,0,0,1.07.362,2.039,2.039,0,0,0,.906-.207,4.375,4.375,0,0,0,1.008-.748Zm6.546,1.036-.122-.04a4.9,4.9,0,0,1-1.325.96,3.169,3.169,0,0,1-1.365.3,2.777,2.777,0,0,1-1.24-.26,1.825,1.825,0,0,1-.8-.728,2.1,2.1,0,0,1-.269-1.07,2.142,2.142,0,0,1,1.2-1.919,8.72,8.72,0,0,1,3.638-.883v-.787a3.216,3.216,0,0,0-.175-1.192,1.081,1.081,0,0,0-1.1-.759,1.527,1.527,0,0,0-.66.133,1.235,1.235,0,0,0-.5.5,3,3,0,0,0-.331,1.025H521.79v-1.509c.507-.227.931-.4,1.268-.524a10.207,10.207,0,0,1,1-.3,8.462,8.462,0,0,1,.883-.17,6.534,6.534,0,0,1,.779-.048,4,4,0,0,1,1.605.266,1.779,1.779,0,0,1,.9.861,3.769,3.769,0,0,1,.3,1.651v3.236c0,.365.009.646.026.847a1.746,1.746,0,0,0,.079.442.668.668,0,0,0,.136.232.618.618,0,0,0,.2.142,3.335,3.335,0,0,0,.453.138v.547h-3.086l.074-1.087Zm-.272-2.828a3.441,3.441,0,0,0-1.906.482,1.523,1.523,0,0,0-.617,1.311,1.033,1.033,0,0,0,.283.784,1.084,1.084,0,0,0,.779.269,1.38,1.38,0,0,0,.722-.2,1.5,1.5,0,0,0,.538-.543,1.4,1.4,0,0,0,.2-.722v-1.376Zm7.565,1.518a8.223,8.223,0,0,0,.048,1.087.975.975,0,0,0,.2.479,1.135,1.135,0,0,0,.577.286v.547h-4.066v-.547a1.488,1.488,0,0,0,.391-.139.669.669,0,0,0,.218-.181,1.014,1.014,0,0,0,.139-.266,1.765,1.765,0,0,0,.074-.447c.011-.19.017-.464.017-.818v-6.469c0-.476,0-.824-.011-1.048a4.549,4.549,0,0,0-.051-.566.99.99,0,0,0-.125-.365.608.608,0,0,0-.244-.218,1.915,1.915,0,0,0-.507-.15v-.546l2.3-.116H533.7v9.479Z" transform="translate(-474.72 -1698.813)" fill="#fff" fill-rule="evenodd"/>
          <g id="Grupo_16" data-name="Grupo 16" transform="translate(23.417 14.1)">
            <path id="Trazado_14" data-name="Trazado 14" d="M680.826,1762.371v1.043h-.489a1.2,1.2,0,0,0-.274-.6.647.647,0,0,0-.489-.193.926.926,0,0,0-.86.545,3.517,3.517,0,0,0-.292,1.618,3.384,3.384,0,0,0,.267,1.51.843.843,0,0,0,.781.512.906.906,0,0,0,.429-.088.658.658,0,0,0,.264-.264,1.867,1.867,0,0,0,.171-.5h.493v1.09c-.263.063-.5.108-.722.138a5.32,5.32,0,0,1-.68.043,2.444,2.444,0,0,1-1.223-.27,1.61,1.61,0,0,1-.7-.815,3.65,3.65,0,0,1-.225-1.381,3.251,3.251,0,0,1,.264-1.359,1.985,1.985,0,0,1,.779-.891,2.326,2.326,0,0,1,1.231-.313,5.084,5.084,0,0,1,.658.039,4.533,4.533,0,0,1,.615.13Zm2.742,4.33-.053-.017a2.128,2.128,0,0,1-.575.417,1.376,1.376,0,0,1-.592.13,1.207,1.207,0,0,1-.538-.113.794.794,0,0,1-.345-.316.911.911,0,0,1-.117-.464.929.929,0,0,1,.52-.833,3.781,3.781,0,0,1,1.579-.383v-.342a1.393,1.393,0,0,0-.076-.517.47.47,0,0,0-.478-.329.664.664,0,0,0-.286.058.537.537,0,0,0-.219.218,1.3,1.3,0,0,0-.144.445h-.679V1764c.22-.1.4-.174.55-.227a4.419,4.419,0,0,1,.433-.132,3.725,3.725,0,0,1,.383-.073,2.806,2.806,0,0,1,.338-.021,1.736,1.736,0,0,1,.7.115.771.771,0,0,1,.391.374,1.632,1.632,0,0,1,.129.716v1.4c0,.158,0,.28.011.367a.766.766,0,0,0,.034.192.287.287,0,0,0,.059.1.27.27,0,0,0,.089.062,1.43,1.43,0,0,0,.2.06v.237h-1.339l.032-.472Zm-.118-1.227a1.492,1.492,0,0,0-.827.209.661.661,0,0,0-.268.569.449.449,0,0,0,.123.341.471.471,0,0,0,.338.116.6.6,0,0,0,.313-.088.653.653,0,0,0,.234-.236.61.61,0,0,0,.087-.313v-.6Zm3.279-1.356.047.01a1.724,1.724,0,0,1,.539-.446,1.349,1.349,0,0,1,.6-.136,2.468,2.468,0,0,1,.461.047v.994h-.652a.809.809,0,0,0-.159-.321.336.336,0,0,0-.264-.112.387.387,0,0,0-.176.049.63.63,0,0,0-.176.136.577.577,0,0,0-.115.179.784.784,0,0,0-.044.185,2.646,2.646,0,0,0-.011.281v1.147a3.169,3.169,0,0,0,.025.479.406.406,0,0,0,.1.214.476.476,0,0,0,.256.11v.237h-1.774v-.237a.491.491,0,0,0,.24-.123.422.422,0,0,0,.09-.205,3.1,3.1,0,0,0,.023-.472v-1.479c0-.177,0-.308-.008-.394a.649.649,0,0,0-.043-.205.3.3,0,0,0-.1-.125.678.678,0,0,0-.243-.085v-.244l.987-.03h.453l-.05.544Zm5.208,2.4a2.358,2.358,0,0,1-.726.551,2,2,0,0,1-.828.162,1.631,1.631,0,0,1-1.262-.46,1.943,1.943,0,0,1-.423-1.362,2.173,2.173,0,0,1,.217-1.005,1.484,1.484,0,0,1,.617-.641,1.916,1.916,0,0,1,.929-.217,1.966,1.966,0,0,1,.574.075,1.323,1.323,0,0,1,.424.211,1.152,1.152,0,0,1,.291.326,1.794,1.794,0,0,1,.205.518,3.182,3.182,0,0,1,.075.724h-2.281a1.628,1.628,0,0,0,.232.958.812.812,0,0,0,.7.308,1.141,1.141,0,0,0,.492-.1,1.7,1.7,0,0,0,.476-.361l.291.317Zm-.972-1.509a2.126,2.126,0,0,0-.144-.821.434.434,0,0,0-.418-.269.5.5,0,0,0-.441.28,1.861,1.861,0,0,0-.2.809Z" transform="translate(-655.638 -1762.201)" fill="#fff" fill-rule="evenodd"/>
            <path id="Trazado_15" data-name="Trazado 15" d="M584.238,1766.47a2.1,2.1,0,0,0,.023.379.337.337,0,0,0,.1.171.609.609,0,0,0,.263.115v.237h-1.878v-.237a.749.749,0,0,0,.269-.108.3.3,0,0,0,.087-.154,2.127,2.127,0,0,0,.024-.4v-1.443H581.5v1.443c0,.084,0,.161.008.234a.748.748,0,0,0,.028.177.318.318,0,0,0,.063.114.343.343,0,0,0,.114.081.922.922,0,0,0,.176.06v.237h-1.89v-.237a1.082,1.082,0,0,0,.211-.077.27.27,0,0,0,.114-.115.515.515,0,0,0,.049-.187c.007-.076.011-.172.011-.286v-3.1c0-.113,0-.208-.01-.284a.469.469,0,0,0-.046-.188.293.293,0,0,0-.114-.117.923.923,0,0,0-.215-.081v-.237h1.889v.237a.694.694,0,0,0-.26.119.359.359,0,0,0-.1.171,1.759,1.759,0,0,0-.028.383v1.2h1.627v-1.2a2.026,2.026,0,0,0-.023-.38.334.334,0,0,0-.093-.173.674.674,0,0,0-.264-.12v-.237h1.878v.237a.859.859,0,0,0-.231.092.261.261,0,0,0-.1.124.586.586,0,0,0-.039.169c-.006.063-.01.159-.01.288v3.1Zm2.786.961a2.071,2.071,0,0,1-.913-.186,1.332,1.332,0,0,1-.6-.594,2.219,2.219,0,0,1-.215-1.039,2.363,2.363,0,0,1,.133-.834,1.559,1.559,0,0,1,.371-.584,1.475,1.475,0,0,1,.567-.34,2.269,2.269,0,0,1,.715-.109,1.743,1.743,0,0,1,1.313.458,1.865,1.865,0,0,1,.442,1.345,2.27,2.27,0,0,1-.219,1.05,1.409,1.409,0,0,1-.626.628,2.133,2.133,0,0,1-.968.205Zm-.634-1.9a2.934,2.934,0,0,0,.171,1.143.552.552,0,0,0,.517.38.509.509,0,0,0,.318-.1.677.677,0,0,0,.205-.28,1.664,1.664,0,0,0,.109-.441,4.585,4.585,0,0,0,.033-.579,2.994,2.994,0,0,0-.171-1.156.546.546,0,0,0-.506-.383.515.515,0,0,0-.392.155.951.951,0,0,0-.216.463,3.8,3.8,0,0,0-.069.8Zm4.424-1.242.043.011a2.53,2.53,0,0,1,.59-.432,1.242,1.242,0,0,1,.537-.125,1.213,1.213,0,0,1,.442.069.789.789,0,0,1,.3.2.972.972,0,0,1,.2.344,2.928,2.928,0,0,1,.631-.476,1.217,1.217,0,0,1,.559-.136,1.3,1.3,0,0,1,.478.075.728.728,0,0,1,.311.235,1.025,1.025,0,0,1,.178.4,2.553,2.553,0,0,1,.055.569v1.313c0,.106,0,.205.006.3a1.055,1.055,0,0,0,.027.221.4.4,0,0,0,.059.135.319.319,0,0,0,.106.089.9.9,0,0,0,.166.061v.237h-1.735v-.237a.411.411,0,0,0,.224-.115.46.46,0,0,0,.085-.209,3.31,3.31,0,0,0,.023-.475v-.964a5.06,5.06,0,0,0-.022-.527.905.905,0,0,0-.082-.318.4.4,0,0,0-.146-.166.42.42,0,0,0-.221-.051.522.522,0,0,0-.173.028.678.678,0,0,0-.16.089.991.991,0,0,0-.139.12.513.513,0,0,0-.092.136.633.633,0,0,0-.047.169,2.862,2.862,0,0,0-.012.306v1.173c0,.163,0,.289.009.375a.82.82,0,0,0,.038.209.305.305,0,0,0,.092.131.533.533,0,0,0,.2.088v.237h-1.714v-.237a.42.42,0,0,0,.228-.115.431.431,0,0,0,.085-.208,3.446,3.446,0,0,0,.021-.477v-.964c0-.159,0-.292-.008-.4a1.741,1.741,0,0,0-.031-.264.711.711,0,0,0-.059-.176.464.464,0,0,0-.086-.123.358.358,0,0,0-.116-.073.5.5,0,0,0-.167-.025.563.563,0,0,0-.279.082.72.72,0,0,0-.246.231.564.564,0,0,0-.1.317v1.392a3.8,3.8,0,0,0,.02.474.349.349,0,0,0,.311.329v.237h-1.724v-.237a.494.494,0,0,0,.24-.123.421.421,0,0,0,.09-.205,3.071,3.071,0,0,0,.023-.472v-1.479c0-.177,0-.308-.009-.395a.654.654,0,0,0-.043-.205.3.3,0,0,0-.1-.125.677.677,0,0,0-.243-.084v-.245l.987-.029h.453l-.054.519Zm8.48,2.427a2.362,2.362,0,0,1-.726.551,2,2,0,0,1-.828.162,1.632,1.632,0,0,1-1.262-.46,1.942,1.942,0,0,1-.423-1.362,2.172,2.172,0,0,1,.217-1.005,1.484,1.484,0,0,1,.617-.641,1.915,1.915,0,0,1,.929-.217,1.962,1.962,0,0,1,.574.075,1.322,1.322,0,0,1,.424.211,1.151,1.151,0,0,1,.291.326,1.792,1.792,0,0,1,.205.519,3.171,3.171,0,0,1,.075.724h-2.281a1.63,1.63,0,0,0,.232.958.812.812,0,0,0,.7.308,1.141,1.141,0,0,0,.493-.1,1.7,1.7,0,0,0,.475-.361l.291.317Zm-.972-1.509a2.131,2.131,0,0,0-.143-.821.434.434,0,0,0-.418-.269.5.5,0,0,0-.441.28,1.859,1.859,0,0,0-.2.809Z" transform="translate(-579.994 -1762.402)" fill="#fff" fill-rule="evenodd"/>
          </g>
        </g>
      </g>
    </g>
  </g>
</svg>
