<svg xmlns="http://www.w3.org/2000/svg" xmlns:xlink="http://www.w3.org/1999/xlink" width="35.128" height="30.472" viewBox="0 0 35.128 30.472">
  <defs>
    <clipPath id="clip-path">
      <rect id="Rectángulo_75" data-name="Rectángulo 75" width="35.128" height="30.472" fill="#b2acdc"/>
    </clipPath>
  </defs>
  <g id="Grupo_391" data-name="Grupo 391" transform="translate(0 0)">
    <g id="Grupo_344" data-name="Grupo 344" transform="translate(0 0)" clip-path="url(#clip-path)">
      <path id="Trazado_393" data-name="Trazado 393" d="M26.8,0H8.332A8.341,8.341,0,0,0,0,8.332V22.14a8.341,8.341,0,0,0,8.332,8.332H26.8a8.341,8.341,0,0,0,8.332-8.332V8.332A8.341,8.341,0,0,0,26.8,0m6.271,22.14A6.278,6.278,0,0,1,26.8,28.412H8.332A6.279,6.279,0,0,1,2.061,22.14V8.332A6.279,6.279,0,0,1,8.332,2.061H26.8a6.278,6.278,0,0,1,6.271,6.271Z" transform="translate(0 0)" fill="#b2acdc"/>
      <path id="Trazado_403" data-name="Trazado 403" d="M41.872,48.923H39.542l-.832-2.154a1.011,1.011,0,0,0-.936-.638,1,1,0,0,0-.93.648l-1.412,3.771-.59-1.1a1,1,0,0,0-.879-.526H28.1a1,1,0,0,0-.889.544L26.179,51.5l-1.966-6.059a1,1,0,0,0-1.829-.162L20.232,49.31H17.043a1,1,0,1,0,0,2h3.788a1,1,0,0,0,.88-.528l1.328-2.491L25.025,54.4a1,1,0,0,0,.87.687c.027,0,.053,0,.079,0a1,1,0,0,0,.889-.544l1.851-3.631h4.653l1.349,2.515a1,1,0,0,0,1.814-.122l1.264-3.377.133.345a1,1,0,0,0,.931.638h3.014a1,1,0,1,0,0-2" transform="translate(-11.893 -32.884)" fill="#b2acdc"/>
    </g>
  </g>
</svg>
