<svg xmlns="http://www.w3.org/2000/svg" xmlns:xlink="http://www.w3.org/1999/xlink" width="35.128" height="30.472" viewBox="0 0 35.128 30.472">
  <defs>
    <clipPath id="clip-path">
      <rect id="Rectángulo_75" data-name="Rectángulo 75" width="35.128" height="30.472" fill="#b2acdc"/>
    </clipPath>
  </defs>
  <g id="Grupo_345" data-name="Grupo 345" transform="translate(0 0)">
    <g id="Grupo_344" data-name="Grupo 344" transform="translate(0 0)" clip-path="url(#clip-path)">
      <path id="Trazado_393" data-name="Trazado 393" d="M26.8,0H8.332A8.341,8.341,0,0,0,0,8.332V22.14a8.341,8.341,0,0,0,8.332,8.332H26.8a8.341,8.341,0,0,0,8.332-8.332V8.332A8.341,8.341,0,0,0,26.8,0m6.271,22.14A6.278,6.278,0,0,1,26.8,28.412H8.332A6.279,6.279,0,0,1,2.061,22.14V8.332A6.279,6.279,0,0,1,8.332,2.061H26.8a6.278,6.278,0,0,1,6.271,6.271Z" transform="translate(0 0)" fill="#b2acdc"/>
      <path id="Trazado_394" data-name="Trazado 394" d="M40.116,20.164a7.623,7.623,0,0,0-.236-1.154,6.984,6.984,0,0,0-4.971-5.057A6.5,6.5,0,0,0,28.345,15.8c-.06.059-.118.12-.175.181a6.491,6.491,0,0,0-3.343-2.048,6.356,6.356,0,0,0-6.737,2.135,7.574,7.574,0,0,0-1.171,8.45A14.354,14.354,0,0,0,19.775,28.6a35.8,35.8,0,0,0,7.487,5.9,1.7,1.7,0,0,0,1.826-.005,33.659,33.659,0,0,0,8.27-6.824,11.991,11.991,0,0,0,2.55-4.531,8.122,8.122,0,0,0,.184-.877c.022-.131.044-.263.071-.393l.021-.1V20.677l-.014-.172c-.019-.113-.036-.227-.053-.34m-1.993,1.4c-.022.118-.043.237-.063.355a6.434,6.434,0,0,1-.134.659,10.03,10.03,0,0,1-2.141,3.762,31.45,31.45,0,0,1-7.615,6.3,33.557,33.557,0,0,1-6.9-5.452,12.4,12.4,0,0,1-2.467-3.5,5.5,5.5,0,0,1,.851-6.28,4.3,4.3,0,0,1,3.368-1.645,5.384,5.384,0,0,1,1.3.169,4.671,4.671,0,0,1,2.855,2.151,1.123,1.123,0,0,0,2-.031,3.959,3.959,0,0,1,.619-.789,4.431,4.431,0,0,1,4.569-1.327,4.977,4.977,0,0,1,3.546,3.678,5.961,5.961,0,0,1,.168.851c.015.1.029.2.045.292Z" transform="translate(-10.597 -8.995)" fill="#b2acdc"/>
      <path id="Trazado_395" data-name="Trazado 395" d="M46.6,37.163H44.8v-1.8a1.03,1.03,0,0,0-2.061,0v1.8h-1.8a1.03,1.03,0,0,0,0,2.061h1.8v1.8a1.03,1.03,0,0,0,2.061,0v-1.8h1.8a1.03,1.03,0,1,0,0-2.061" transform="translate(-26.205 -22.544)" fill="#b2acdc"/>
    </g>
  </g>
</svg>
