<svg xmlns="http://www.w3.org/2000/svg" xmlns:xlink="http://www.w3.org/1999/xlink" width="35.128" height="30.472" viewBox="0 0 35.128 30.472">
  <defs>
    <clipPath id="clip-path">
      <rect id="Rect치ngulo_75" data-name="Rect치ngulo 75" width="35.128" height="30.472" fill="#b2acdc"/>
    </clipPath>
    <clipPath id="clip-path-2">
      <rect id="Rect치ngulo_86" data-name="Rect치ngulo 86" width="18.745" height="17.562" fill="#b2acdc"/>
    </clipPath>
  </defs>
  <g id="Grupo_402" data-name="Grupo 402" transform="translate(0 0)">
    <g id="Grupo_344" data-name="Grupo 344" transform="translate(0 0)" clip-path="url(#clip-path)">
      <path id="Trazado_393" data-name="Trazado 393" d="M26.8,0H8.332A8.341,8.341,0,0,0,0,8.332V22.14a8.341,8.341,0,0,0,8.332,8.332H26.8a8.341,8.341,0,0,0,8.332-8.332V8.332A8.341,8.341,0,0,0,26.8,0m6.271,22.14A6.278,6.278,0,0,1,26.8,28.412H8.332A6.279,6.279,0,0,1,2.061,22.14V8.332A6.279,6.279,0,0,1,8.332,2.061H26.8a6.278,6.278,0,0,1,6.271,6.271Z" transform="translate(0 0)" fill="#b2acdc"/>
      <g id="Grupo_404" data-name="Grupo 404" transform="translate(8.192 6.455)">
        <g id="Grupo_403" data-name="Grupo 403" clip-path="url(#clip-path-2)">
          <path id="Trazado_414" data-name="Trazado 414" d="M313.029,54.657c0-.018-.009-.036-.014-.055s-.009-.035-.01-.041a8.369,8.369,0,0,0-1.426-4.135,12.209,12.209,0,0,0-.936-1.16l-.161-.184a.858.858,0,0,0-1.06-.191.839.839,0,0,0-.456.938,1.256,1.256,0,0,0,.308.55,7.409,7.409,0,0,1,1.21,1.691,6.987,6.987,0,0,1,.174,6A7.164,7.164,0,0,1,309.2,60.2a.892.892,0,0,0,.626,1.517.909.909,0,0,0,.645-.278,8.61,8.61,0,0,0,2.416-4.6c.042-.234.073-.47.1-.7.013-.1.027-.209.042-.313a.288.288,0,0,0,0-.039V54.719a.284.284,0,0,0-.007-.062" transform="translate(-294.292 -46.473)" fill="#b2acdc"/>
          <path id="Trazado_415" data-name="Trazado 415" d="M11.471,10.52V7.676q0-3.3,0-6.6V1.041c0-.069,0-.141-.005-.216a.88.88,0,0,0-.623-.783.971.971,0,0,0-.929.24c-2,1.608-3.81,3.058-5.653,4.528a.248.248,0,0,1-.127.042c-.494,0-1,0-1.483,0-.357,0-.714,0-1.071,0A1.505,1.505,0,0,0,0,6.444Q0,7.273,0,8.1V9.528q0,.8,0,1.594A1.5,1.5,0,0,0,1.568,12.7c.4,0,.814,0,1.211,0,.447,0,.908,0,1.362,0a.219.219,0,0,1,.112.036c.809.642,1.629,1.3,2.422,1.935l1.538,1.234,1.721,1.38a1.061,1.061,0,0,0,.664.269.839.839,0,0,0,.446-.134.956.956,0,0,0,.429-.865c0-2.014,0-4.062,0-6.043M5.415,6.21a.152.152,0,0,1,0-.037.115.115,0,0,1,.024-.023c1.164-.929,2.345-1.876,3.487-2.791l.752-.6V14.8l-.773-.619L8.1,13.538c-.87-.7-1.77-1.42-2.658-2.127a.138.138,0,0,1-.024-.023.132.132,0,0,1,0-.037c0-1.705,0-3.435,0-5.14m-1.794,4.7H1.788V6.651H3.621Z" transform="translate(0 0)" fill="#b2acdc"/>
          <path id="Trazado_416" data-name="Trazado 416" d="M276.281,89.468c-.008-.058-.015-.131-.024-.215a8.836,8.836,0,0,0-.126-.9,6.182,6.182,0,0,0-1.648-3.07.891.891,0,1,0-1.327,1.188c.052.061.105.121.159.181a4.072,4.072,0,0,1,.324.394,4.488,4.488,0,0,1,.456,4.551,4.551,4.551,0,0,1-.935,1.356.914.914,0,0,0-.255.662.9.9,0,0,0,.883.849.928.928,0,0,0,.664-.294,6.4,6.4,0,0,0,1.831-4.664.288.288,0,0,0,0-.04" transform="translate(-259.962 -80.933)" fill="#b2acdc"/>
        </g>
      </g>
    </g>
  </g>
</svg>
