<svg id="Grupo_342" data-name="Grupo 342" xmlns="http://www.w3.org/2000/svg" xmlns:xlink="http://www.w3.org/1999/xlink" width="37.746" height="33.491" viewBox="0 0 37.746 33.491">
  <defs>
    <clipPath id="clip-path">
      <rect id="Rectángulo_72" data-name="Rectángulo 72" width="37.746" height="33.491" fill="#b2acdc"/>
    </clipPath>
  </defs>
  <g id="Grupo_341" data-name="Grupo 341" transform="translate(0 0)" clip-path="url(#clip-path)">
    <path id="Trazado_391" data-name="Trazado 391" d="M37.131,10.5,31.052,6.49,24.309,2.046A10.5,10.5,0,0,0,20.116.093a7.892,7.892,0,0,0-4.739.734,11.776,11.776,0,0,0-1.231.751l-7.283,4.8-6,3.956L.613,10.5A1.276,1.276,0,0,0,.166,12.2a1.26,1.26,0,0,0,1.706.447l.1-.065v13.26a7.492,7.492,0,0,0,7.309,7.647H28.465a7.492,7.492,0,0,0,7.309-7.647V12.585l.1.065A1.247,1.247,0,1,0,37.131,10.5m-8.666,21H9.279a5.5,5.5,0,0,1-5.314-5.651V11.27l3.98-2.622L14.535,4.3l1.244-.819a5.487,5.487,0,0,1,2.255-.945l.159-.026L18.35,2.5q.261-.021.522-.021c.152,0,.3,0,.457.016.068,0,.135.012.2.019.007,0,.244.041.245.041a4.922,4.922,0,0,1,1.809.689c.3.178.581.376.869.566l7.2,4.745,4.125,2.718V25.844A5.5,5.5,0,0,1,28.465,31.5" transform="translate(0 0)" fill="#b2acdc"/>
    <path id="Trazado_392" data-name="Trazado 392" d="M41.872,48.923H39.542l-.832-2.154a1.011,1.011,0,0,0-.936-.638,1,1,0,0,0-.93.648l-1.412,3.771-.59-1.1a1,1,0,0,0-.879-.526H28.1a1,1,0,0,0-.889.544L26.179,51.5l-1.966-6.059a1,1,0,0,0-1.829-.162L20.232,49.31H17.043a1,1,0,1,0,0,2h3.788a1,1,0,0,0,.88-.528l1.328-2.491L25.025,54.4a1,1,0,0,0,.87.687c.027,0,.053,0,.079,0a1,1,0,0,0,.889-.544l1.851-3.631h4.653l1.349,2.515a1,1,0,0,0,1.814-.122l1.264-3.377.133.345a1,1,0,0,0,.931.638h3.014a1,1,0,1,0,0-2" transform="translate(-10.709 -29.866)" fill="#b2acdc"/>
  </g>
</svg>
