<svg xmlns="http://www.w3.org/2000/svg" xmlns:xlink="http://www.w3.org/1999/xlink" width="35.128" height="30.472" viewBox="0 0 35.128 30.472">
  <defs>
    <clipPath id="clip-path">
      <rect id="Rect치ngulo_75" data-name="Rect치ngulo 75" width="35.128" height="30.472" fill="#b2acdc"/>
    </clipPath>
    <clipPath id="clip-path-2">
      <rect id="Rect치ngulo_87" data-name="Rect치ngulo 87" width="16.796" height="19.23" fill="#b2acdc"/>
    </clipPath>
  </defs>
  <g id="Grupo_352" data-name="Grupo 352" transform="translate(0 0)">
    <g id="Grupo_344" data-name="Grupo 344" transform="translate(0 0)" clip-path="url(#clip-path)">
      <path id="Trazado_393" data-name="Trazado 393" d="M26.8,0H8.332A8.341,8.341,0,0,0,0,8.332V22.14a8.341,8.341,0,0,0,8.332,8.332H26.8a8.341,8.341,0,0,0,8.332-8.332V8.332A8.341,8.341,0,0,0,26.8,0m6.271,22.14A6.278,6.278,0,0,1,26.8,28.412H8.332A6.279,6.279,0,0,1,2.061,22.14V8.332A6.279,6.279,0,0,1,8.332,2.061H26.8a6.278,6.278,0,0,1,6.271,6.271Z" transform="translate(0 0)" fill="#b2acdc"/>
      <g id="Grupo_406" data-name="Grupo 406" transform="translate(9.166 5.621)">
        <g id="Grupo_405" data-name="Grupo 405" clip-path="url(#clip-path-2)">
          <path id="Trazado_417" data-name="Trazado 417" d="M16.769,9.865A5.708,5.708,0,0,0,12.854,4.9a6.723,6.723,0,0,0-2.816-.216c-.253.025-.506.061-.752.095l-.077.011-.1-.433c.147-.014.3-.031.449-.06a3.5,3.5,0,0,0,2.8-2.929.851.851,0,0,0-.512-.971c-.244-.1-.495-.178-.738-.252-.1-.03-.2-.06-.294-.092C10.774.038,10.735.028,10.7.02l-.04-.01A.292.292,0,0,0,10.587,0H9.9A.291.291,0,0,0,9.79.02L9.749.038h0A3.459,3.459,0,0,0,7.192,1.782L6.9,1.625C6.477,1.4,6.038,1.162,5.6.941A.892.892,0,0,0,4.9.885a.87.87,0,0,0-.5.469.887.887,0,0,0,.462,1.18l.206.1c.208.1.423.206.625.317A3.988,3.988,0,0,1,7.024,4.031a2.321,2.321,0,0,1,.374.731A7.3,7.3,0,0,0,4.891,4.7,5.555,5.555,0,0,0,.274,8.65a7.127,7.127,0,0,0-.1,3.546A10.734,10.734,0,0,0,2.838,17.6a4.939,4.939,0,0,0,1.7,1.334,4.7,4.7,0,0,0,.667.207c.1.025.189.048.28.075a.292.292,0,0,0,.081.011h.691a.294.294,0,0,0,.051,0l.173-.031a9.048,9.048,0,0,1,2.831-.21,14.753,14.753,0,0,0,1.9.129h.013a2.951,2.951,0,0,0,2.18-.933A11.587,11.587,0,0,0,16.255,13.7a9.673,9.673,0,0,0,.514-3.839m-1.733.662a8.95,8.95,0,0,1-2.329,5.816c-.044.05-.09.1-.138.152-.078.083-.159.17-.234.265a1.7,1.7,0,0,1-1.645.6l-.634-.063c-.331-.033-.674-.067-1.012-.1a8.34,8.34,0,0,0-2.283.162c-.187.035-.38.063-.561.089a1.773,1.773,0,0,1-1.526-.506,8.917,8.917,0,0,1-2.886-6.787A3.925,3.925,0,0,1,4.746,6.518a7.882,7.882,0,0,1,.806-.125c.123-.015.249-.03.378-.048l.467.067c.387.055.787.111,1.175.188a4.308,4.308,0,0,0,1.754-.027,5.857,5.857,0,0,1,2.163-.166,3.965,3.965,0,0,1,3.547,4.12M8.758,2.591a1.7,1.7,0,0,1,.634-.6,1.679,1.679,0,0,1,.993-.217,1.461,1.461,0,0,1-.528.532,1.919,1.919,0,0,1-1.1.285" transform="translate(0)" fill="#b2acdc"/>
        </g>
      </g>
    </g>
  </g>
</svg>
