<svg xmlns="http://www.w3.org/2000/svg" width="35.129" height="30.472" viewBox="0 0 35.129 30.472">
  <path id="Unión_3" data-name="Unión 3" d="M-3625.667-9234.528a8.341,8.341,0,0,1-8.333-8.331v-13.81a8.341,8.341,0,0,1,8.333-8.331h18.464a8.341,8.341,0,0,1,8.331,8.331v13.81a8.341,8.341,0,0,1-8.331,8.331Zm-6.271-22.141v13.81a6.279,6.279,0,0,0,6.271,6.271h18.464a6.279,6.279,0,0,0,6.271-6.271v-13.81a6.278,6.278,0,0,0-6.271-6.271h-18.464A6.278,6.278,0,0,0-3631.938-9256.669Zm20.683,17.063a15.075,15.075,0,0,1-9.45-3.248,15.045,15.045,0,0,1-5.341-8.5,11.116,11.116,0,0,1-.318-3.983,3.82,3.82,0,0,1,1.728-2.714,3.884,3.884,0,0,1,3.237-.49,1.009,1.009,0,0,1,.672.6c.528,1.246,1.142,2.7,1.755,4.118a1,1,0,0,1-.046.932,4.051,4.051,0,0,1-1.53,1.565c.423,2.088,3.383,5.034,5.866,5.839a3.976,3.976,0,0,1,1.588-1.528,1,1,0,0,1,.9-.039c1.393.6,2.779,1.19,4.12,1.758a.97.97,0,0,1,.577.658,3.864,3.864,0,0,1-.614,3.445,3.838,3.838,0,0,1-3.1,1.579Zm-13.358-16.167a3.144,3.144,0,0,0-.228,1.541v.008a13.323,13.323,0,0,0,.591,3.513,13.556,13.556,0,0,0,12.993,9.533h.063a2.3,2.3,0,0,0,1.753-.841,2.3,2.3,0,0,0,.514-1.872.141.141,0,0,0-.016-.056.164.164,0,0,0-.035-.017c-.537-.226-1.081-.458-1.607-.682-.637-.271-1.3-.551-1.944-.82a.159.159,0,0,0-.074.007,2.235,2.235,0,0,0-.874,1.1.81.81,0,0,1-1.158.554,11.364,11.364,0,0,1-7.571-7.55.821.821,0,0,1,.567-1.2,2.27,2.27,0,0,0,1.1-.879.141.141,0,0,0,0-.03c-.5-1.2-1.014-2.4-1.537-3.6a.109.109,0,0,0-.028-.021,1.924,1.924,0,0,0-.4-.04A2.388,2.388,0,0,0-3624.614-9255.773Zm13.907,4.829a4.74,4.74,0,0,0-1.872-3.711,4.7,4.7,0,0,0-2.834-1,.781.781,0,0,1-.863-.665.776.776,0,0,1,.175-.635.845.845,0,0,1,.667-.272,6.157,6.157,0,0,1,3.155.884,6.338,6.338,0,0,1,3.141,5.209v.162a.8.8,0,0,1-.763.909.036.036,0,0,1-.019,0A.819.819,0,0,1-3610.707-9250.944Zm-2.19.818a.79.79,0,0,1-.5-.783,2.106,2.106,0,0,0-2.079-2.058.777.777,0,0,1-.807-.814.785.785,0,0,1,.851-.755h.026a3.705,3.705,0,0,1,3.578,3.536.927.927,0,0,1-.356.812.691.691,0,0,1-.4.126A.833.833,0,0,1-3612.9-9250.126Zm4.89-.7c-.012-.14-.019-.276-.026-.414-.009-.172-.016-.335-.037-.5a7.428,7.428,0,0,0-6.729-6.578c-.186-.019-.384-.032-.625-.042a.791.791,0,0,1-.86-.815.787.787,0,0,1,.865-.754h.023a8.81,8.81,0,0,1,4.927,1.537,9.016,9.016,0,0,1,4.027,7.176v.116q0,.111,0,.223a.788.788,0,0,1-.728.8.582.582,0,0,1-.058,0A.791.791,0,0,1-3608.007-9250.823Z" transform="translate(3634.001 9265)" fill="#b2acdc"/>
</svg>
