<svg id="Grupo_399" data-name="Grupo 399" xmlns="http://www.w3.org/2000/svg" xmlns:xlink="http://www.w3.org/1999/xlink" width="37.746" height="33.491" viewBox="0 0 37.746 33.491">
  <defs>
    <clipPath id="clip-path">
      <rect id="Rect치ngulo_72" data-name="Rect치ngulo 72" width="37.746" height="33.491" fill="#b2acdc"/>
    </clipPath>
    <clipPath id="clip-path-2">
      <rect id="Rect치ngulo_85" data-name="Rect치ngulo 85" width="20.435" height="17.253" fill="#b2acdc"/>
    </clipPath>
  </defs>
  <g id="Grupo_341" data-name="Grupo 341" transform="translate(0 0)" clip-path="url(#clip-path)">
    <path id="Trazado_391" data-name="Trazado 391" d="M37.131,10.5,31.052,6.49,24.309,2.046A10.5,10.5,0,0,0,20.116.093a7.892,7.892,0,0,0-4.739.734,11.776,11.776,0,0,0-1.231.751l-7.283,4.8-6,3.956L.613,10.5A1.276,1.276,0,0,0,.166,12.2a1.26,1.26,0,0,0,1.706.447l.1-.065v13.26a7.492,7.492,0,0,0,7.309,7.647H28.465a7.492,7.492,0,0,0,7.309-7.647V12.585l.1.065A1.247,1.247,0,1,0,37.131,10.5m-8.666,21H9.279a5.5,5.5,0,0,1-5.314-5.651V11.27l3.98-2.622L14.535,4.3l1.244-.819a5.487,5.487,0,0,1,2.255-.945l.159-.026L18.35,2.5q.261-.021.522-.021c.152,0,.3,0,.457.016.068,0,.135.012.2.019.007,0,.244.041.245.041a4.922,4.922,0,0,1,1.809.689c.3.178.581.376.869.566l7.2,4.745,4.125,2.718V25.844A5.5,5.5,0,0,1,28.465,31.5" transform="translate(0 0)" fill="#b2acdc"/>
    <g id="Grupo_401" data-name="Grupo 401" transform="translate(8.656 11.679)">
      <g id="Grupo_400" data-name="Grupo 400" clip-path="url(#clip-path-2)">
        <path id="Trazado_411" data-name="Trazado 411" d="M17.264,0H3.172A3.175,3.175,0,0,0,0,3.171v7.466a3.175,3.175,0,0,0,3.172,3.171h9.741l1.8,3.119a.649.649,0,0,0,1.124,0l1.815-3.143a3.176,3.176,0,0,0,2.783-3.148V3.171A3.175,3.175,0,0,0,17.264,0m1.874,10.637a1.876,1.876,0,0,1-1.874,1.874.649.649,0,0,0-.562.324l-1.427,2.471-1.426-2.471a.649.649,0,0,0-.562-.324H3.172A1.876,1.876,0,0,1,1.3,10.636V3.171A1.876,1.876,0,0,1,3.172,1.3H17.264a1.876,1.876,0,0,1,1.874,1.874Z" transform="translate(0 0.001)" fill="#b2acdc"/>
        <path id="Trazado_412" data-name="Trazado 412" d="M91.784,95.353H80a.649.649,0,0,0,0,1.3H91.784a.649.649,0,0,0,0-1.3" transform="translate(-75.674 -90.934)" fill="#b2acdc"/>
        <path id="Trazado_413" data-name="Trazado 413" d="M189.991,157.353h-7.012a.649.649,0,0,0,0,1.3h7.012a.649.649,0,1,0,0-1.3" transform="translate(-173.881 -150.061)" fill="#b2acdc"/>
      </g>
    </g>
  </g>
</svg>
