<svg xmlns="http://www.w3.org/2000/svg" xmlns:xlink="http://www.w3.org/1999/xlink" width="35.128" height="30.472" viewBox="0 0 35.128 30.472">
  <defs>
    <clipPath id="clip-path">
      <rect id="Rect치ngulo_75" data-name="Rect치ngulo 75" width="35.128" height="30.472" fill="#b2acdc"/>
    </clipPath>
    <clipPath id="clip-path-2">
      <rect id="Rect치ngulo_84" data-name="Rect치ngulo 84" width="22.22" height="18.924" fill="#b2acdc"/>
    </clipPath>
  </defs>
  <g id="Grupo_396" data-name="Grupo 396" transform="translate(0 0)">
    <g id="Grupo_344" data-name="Grupo 344" transform="translate(0 0)" clip-path="url(#clip-path)">
      <path id="Trazado_393" data-name="Trazado 393" d="M26.8,0H8.332A8.341,8.341,0,0,0,0,8.332V22.14a8.341,8.341,0,0,0,8.332,8.332H26.8a8.341,8.341,0,0,0,8.332-8.332V8.332A8.341,8.341,0,0,0,26.8,0m6.271,22.14A6.278,6.278,0,0,1,26.8,28.412H8.332A6.279,6.279,0,0,1,2.061,22.14V8.332A6.279,6.279,0,0,1,8.332,2.061H26.8a6.278,6.278,0,0,1,6.271,6.271Z" transform="translate(0 0)" fill="#b2acdc"/>
      <g id="Grupo_398" data-name="Grupo 398" transform="translate(6.454 5.775)">
        <g id="Grupo_397" data-name="Grupo 397" clip-path="url(#clip-path-2)">
          <path id="Trazado_410" data-name="Trazado 410" d="M21.519,10.523a15.707,15.707,0,0,0-4.242-5.857A4.522,4.522,0,0,0,15.59,3.645a1.964,1.964,0,0,0-2.3.73l-.011-.006c-.2-.12-.4-.234-.6-.34l-.019-.011a.288.288,0,0,1,0-.038c.007-1.024,0-2.066,0-3.072V.8a.7.7,0,0,0-.791-.8c-.456,0-.919,0-1.366,0h-.1c-.6,0-.84.246-.84.846v.508c0,.867,0,1.763,0,2.645,0,.007,0,.013,0,.017h0c-.206.11-.4.225-.613.347l-.018.01a1.955,1.955,0,0,0-2.278-.739,4.628,4.628,0,0,0-1.52.868A15.8,15.8,0,0,0,2.659,7.13,12.393,12.393,0,0,0,.308,11.721a8.143,8.143,0,0,0-.026,4.345,3.96,3.96,0,0,0,3.828,2.857,3.57,3.57,0,0,0,.751-.078A4.892,4.892,0,0,0,7.62,17.092a9.133,9.133,0,0,0,2.03-5.079,26.175,26.175,0,0,0,.156-4.569c.231-.141.471-.279.7-.413.169-.1.338-.195.506-.294a.146.146,0,0,1,.185,0c.164.1.329.192.494.287.237.136.483.277.719.421,0,.122-.009.245-.018.376a5.044,5.044,0,0,0-.017.565q.016.364.031.729c.039.963.08,1.958.168,2.937A9.274,9.274,0,0,0,14.007,16.3a5.9,5.9,0,0,0,2.382,2.218,4,4,0,0,0,3.018.194,3.789,3.789,0,0,0,2.251-1.945,5.636,5.636,0,0,0,.514-1.878,9.04,9.04,0,0,0-.652-4.362M7.861,5.213a3.751,3.751,0,0,1,.492,1.547c-.437.384-.908.8-1.394,1.207a.126.126,0,0,1-.052.019,7.883,7.883,0,0,0-2.359.432.693.693,0,0,0-.536.9.706.706,0,0,0,.957.4c.214-.059.432-.115.648-.171-.15.2-.3.415-.43.638-.436.736-.849,1.5-1.249,2.237l-.118.217a.766.766,0,0,0-.086.609.656.656,0,0,0,.348.39.687.687,0,0,0,.958-.406q.3-.594.609-1.185c.018.084.035.168.051.252.108.557.489.7.783.656a.669.669,0,0,0,.461-.285.783.783,0,0,0,.091-.625c-.068-.285-.144-.571-.218-.848-.059-.222-.121-.451-.177-.676a.186.186,0,0,1,0-.044A11.867,11.867,0,0,1,8.477,8.409a19.565,19.565,0,0,1-.455,4.924,6.384,6.384,0,0,1-2,3.442,2.729,2.729,0,0,1-2.117.772,2.552,2.552,0,0,1-2.371-2.078,7.318,7.318,0,0,1,.343-4.218A12.174,12.174,0,0,1,4.246,7.331,9.988,9.988,0,0,1,6.415,5.26a2.974,2.974,0,0,1,.86-.357.467.467,0,0,1,.119-.017c.117,0,.287.054.467.326M10.92,2.134q0-.379,0-.759H11.3q0,.378,0,.755c0,.7,0,1.423,0,2.134a.839.839,0,0,0,.48.813c.333.176.662.371.946.544-.027.122-.058.244-.091.371-.2-.111-.39-.217-.571-.336a1.578,1.578,0,0,0-1.872-.011c-.185.123-.382.233-.59.348-.032-.126-.063-.25-.091-.372l.106-.064c.263-.159.511-.309.771-.439a.919.919,0,0,0,.548-.924c-.012-.685-.01-1.384-.008-2.059m4.253,7.788c.052.065.107.126.16.185a1.044,1.044,0,0,1,.252.357.878.878,0,0,1-.088.327,2.564,2.564,0,0,0-.1.3c-.1.393-.166.7-.222.986a.778.778,0,0,0,.11.6.668.668,0,0,0,.451.273.7.7,0,0,0,.779-.633c.018-.09.036-.181.055-.272l.528,1.015c.017.033.033.068.049.1a2,2,0,0,0,.1.205.676.676,0,0,0,1.212-.59c-.048-.126-.105-.242-.16-.355l-.044-.089a17.373,17.373,0,0,0-1.666-2.8l.442.1c.043.01.092.027.143.045s.1.034.153.05a.689.689,0,0,0,.871-.414.666.666,0,0,0-.027-.514.739.739,0,0,0-.435-.369,7.633,7.633,0,0,0-2.359-.444.242.242,0,0,1-.185-.077c-.38-.342-.791-.7-1.334-1.154.04-.147.074-.3.108-.44a5.441,5.441,0,0,1,.239-.832.951.951,0,0,1,.483-.586.9.9,0,0,1,.713.141,6.244,6.244,0,0,1,1.343.984,13.954,13.954,0,0,1,3.5,4.961,7.584,7.584,0,0,1,.561,3.746,5.138,5.138,0,0,1-.363,1.384,2.36,2.36,0,0,1-1.349,1.263,2.674,2.674,0,0,1-2.065-.071,4.646,4.646,0,0,1-2.039-2.017,8.493,8.493,0,0,1-1.1-3.737c-.057-.822-.086-1.663-.114-2.477q-.011-.33-.023-.66a11.8,11.8,0,0,1,1.42,1.5" transform="translate(0 0)" fill="#b2acdc"/>
        </g>
      </g>
    </g>
  </g>
</svg>
