<svg xmlns="http://www.w3.org/2000/svg" xmlns:xlink="http://www.w3.org/1999/xlink" width="35.128" height="30.472" viewBox="0 0 35.128 30.472">
  <defs>
    <clipPath id="clip-path">
      <rect id="Rect치ngulo_75" data-name="Rect치ngulo 75" width="35.128" height="30.472" fill="#b2acdc"/>
    </clipPath>
    <clipPath id="clip-path-2">
      <rect id="Rect치ngulo_83" data-name="Rect치ngulo 83" width="16.292" height="23.811" fill="#b2acdc"/>
    </clipPath>
  </defs>
  <g id="Grupo_352" data-name="Grupo 352" transform="translate(0 0)">
    <g id="Grupo_344" data-name="Grupo 344" transform="translate(0 0)" clip-path="url(#clip-path)">
      <path id="Trazado_393" data-name="Trazado 393" d="M26.8,0H8.332A8.341,8.341,0,0,0,0,8.332V22.14a8.341,8.341,0,0,0,8.332,8.332H26.8a8.341,8.341,0,0,0,8.332-8.332V8.332A8.341,8.341,0,0,0,26.8,0m6.271,22.14A6.278,6.278,0,0,1,26.8,28.412H8.332A6.279,6.279,0,0,1,2.061,22.14V8.332A6.279,6.279,0,0,1,8.332,2.061H26.8a6.278,6.278,0,0,1,6.271,6.271Z" transform="translate(0 0)" fill="#b2acdc"/>
      <g id="Grupo_395" data-name="Grupo 395" transform="translate(9.418 5.479)">
        <g id="Grupo_394" data-name="Grupo 394" clip-path="url(#clip-path-2)">
          <path id="Trazado_409" data-name="Trazado 409" d="M15.5,7.316a1.466,1.466,0,0,0-.678-.175,1.555,1.555,0,0,0-.951.355,8.291,8.291,0,0,0-2.09,2.379c0-.177,0-.346.009-.511.023-.451.057-.91.089-1.354.024-.323.048-.657.069-.987q.019-.313.039-.627c.063-1,.127-2.039.169-3.061a1.407,1.407,0,0,0-1.3-1.451c-.043,0-.086-.006-.129-.006A1.424,1.424,0,0,0,9.3,3.088c-.067.392-.129.79-.189,1.176l-.025.159,0-.028C9,3.377,8.914,2.324,8.822,1.288A1.4,1.4,0,0,0,7.933.1,1.477,1.477,0,0,0,7.414,0a1.409,1.409,0,0,0-1.4,1.441c0,1.128,0,2.274,0,3.383q0,.112,0,.223c-.159-.573-.322-1.155-.489-1.729A1.46,1.46,0,0,0,4.11,2.257l-.087,0A1.455,1.455,0,0,0,2.655,3.485a2.6,2.6,0,0,0,0,.829c.129.776.275,1.561.415,2.321l.1.547.006.035c-.233-.334-.472-.676-.713-1.009a1.348,1.348,0,0,0-1.1-.568,1.384,1.384,0,0,0-.461.079,1.313,1.313,0,0,0-.9,1.35,2.94,2.94,0,0,0,.3,1.048c.468.9.957,1.8,1.43,2.681.269.5.548,1.015.819,1.524a.559.559,0,0,1,.066.251c.006.333.006.673,0,1,0,.213,0,.434,0,.651a8.8,8.8,0,0,0,1.813,5.348.3.3,0,0,1,.062.178c.006.928.006,1.873.005,2.786q0,.386,0,.773a.5.5,0,0,0,.5.5h.255a.5.5,0,0,0,.5-.5V23.3q0-.477,0-.954c0-.873,0-1.777.005-2.664a1.248,1.248,0,0,0-.281-.821,7.094,7.094,0,0,1-1.556-3.9c-.037-.495-.039-1-.041-1.5,0-.321,0-.653-.013-.98a1.55,1.55,0,0,0-.171-.663c-.365-.689-.741-1.387-1.1-2.062-.388-.721-.789-1.466-1.178-2.2a1.451,1.451,0,0,1-.156-.543.3.3,0,0,1,.068-.082,1.12,1.12,0,0,1,.163.066l.022.036c.014.023.029.05.048.076L2.3,8.153q.764,1.091,1.529,2.182a.658.658,0,0,0,.544.324.612.612,0,0,0,.274-.068.628.628,0,0,0,.337-.748q-.113-.559-.227-1.118C4.534,7.614,4.3,6.466,4.086,5.334c-.1-.517-.15-1.053-.2-1.6a.2.2,0,0,1,.191-.22l.033,0a.241.241,0,0,1,.22.182c.013.037.025.079.036.118l.978,3.524L5.6,8.24l.129.466q.149.536.3,1.072a.622.622,0,0,0,.619.5h.046a.623.623,0,0,0,.578-.647c0-.05,0-.1,0-.144,0-.018,0-.036,0-.054V6.985q0-2.715,0-5.431c0-.29.086-.3.143-.3h.022c.043,0,.133,0,.158.282.055.609.106,1.229.155,1.829q.025.3.05.6Q7.88,4.983,7.964,6q.152,1.83.3,3.659a.632.632,0,0,0,.594.622h.044a.619.619,0,0,0,.612-.564c.043-.265.085-.535.126-.8q.034-.218.068-.435l.153-.971q.326-2.065.653-4.131c.015-.093.06-.249.193-.249h.024c.052.006.175.018.164.287q-.006.152-.012.3c-.023.591-.047,1.2-.094,1.8a63.2,63.2,0,0,0-.27,6.644.652.652,0,0,0,.645.743.7.7,0,0,0,.59-.421c.2-.366.407-.737.607-1.1q.21-.376.418-.752A6.952,6.952,0,0,1,14.63,8.49a.347.347,0,0,1,.194-.09.192.192,0,0,1,.085.023c.16.079.138.185.129.225l-.029.143a4.114,4.114,0,0,1-.247.88,11.094,11.094,0,0,0-.955,3.159c-.041.3-.082.6-.123.91l-.024.176h-.313c-.117,0-.214,0-.306,0l-.107,0a2.708,2.708,0,0,1-2.022-.872,3.054,3.054,0,0,0-1.768-.908,10.034,10.034,0,0,0-1.392-.1c-.155,0-.31,0-.461.012a5.409,5.409,0,0,0-1.535.3,2.391,2.391,0,0,0-1.611,2.068,1.662,1.662,0,0,0,.378,1.335,1.571,1.571,0,0,0,1.2.531A1.881,1.881,0,0,0,6.3,16.2l.253-.083c.121-.04.246-.082.368-.119a1.547,1.547,0,0,1,.444-.07,1.279,1.279,0,0,1,.928.411,3.655,3.655,0,0,1,1.023,1.911c.006.029.011.06.016.09a3.349,3.349,0,0,1-.932-.373.629.629,0,0,0-.312-.083.62.62,0,0,0-.519.279l0,.006a.628.628,0,0,0-.087.485.611.611,0,0,0,.287.393,4.622,4.622,0,0,0,1.685.6,3.882,3.882,0,0,0,.58.045,3.416,3.416,0,0,0,1.259-.236v3.908a.451.451,0,0,0,.45.45h.348a.451.451,0,0,0,.45-.45V22.307q0-1.381,0-2.761c0-.115-.007-.231-.014-.343a1.75,1.75,0,0,1,.036-.666,1.588,1.588,0,0,1,.381-.494c.083-.084.168-.172.246-.265a7.345,7.345,0,0,0,1.746-3.891,11.867,11.867,0,0,1,1.085-3.947,3.494,3.494,0,0,0,.27-1.2A1.38,1.38,0,0,0,15.5,7.316m-2.19,7.854a5.233,5.233,0,0,1-.711,1.307c-.345.459-.733.928-1.154,1.394a1.59,1.59,0,0,1-.836.484c-.029-.166-.056-.324-.092-.485a4.857,4.857,0,0,0-1.294-2.382,2.529,2.529,0,0,0-1.842-.82,2.953,2.953,0,0,0-.865.137c-.1.031-.2.065-.3.1-.125.042-.244.082-.365.117a.352.352,0,0,1-.1.014.362.362,0,0,1-.357-.378,1.169,1.169,0,0,1,.741-1.1,2.613,2.613,0,0,1,.862-.23l.281-.018c.263-.018.534-.036.8-.036a2.883,2.883,0,0,1,1.3.25,3.047,3.047,0,0,1,.782.54,3.926,3.926,0,0,0,2.724,1.112h.1c.078,0,.163,0,.268,0h.07" transform="translate(0 0)" fill="#b2acdc"/>
        </g>
      </g>
    </g>
  </g>
</svg>
