<svg id="Grupo_232" data-name="Grupo 232" xmlns="http://www.w3.org/2000/svg" width="101.688" height="91.664" viewBox="0 0 101.688 91.664">
  <path id="Trazado_7" data-name="Trazado 7" d="M428.8,1710.033H418.791a22.026,22.026,0,0,1-10.3-2.431l-8.979-4.49a5.592,5.592,0,0,0-5.151,0l-8.98,4.49a22.025,22.025,0,0,1-10.3,2.431H365.071a.23.23,0,0,1-.1-.437l7.318-3.659a.183.183,0,0,0,.035-.021l13.132-9.849a11.081,11.081,0,0,0,4.263-6.42l6.995-27.978a.23.23,0,0,1,.446,0l6.995,27.978a11.083,11.083,0,0,0,4.263,6.42l13.132,9.849a.182.182,0,0,0,.035.021l7.318,3.659a.231.231,0,0,1-.1.437Zm-31.862-5.375a5.194,5.194,0,1,0,5.193,5.194A5.194,5.194,0,0,0,396.934,1704.658Z" transform="translate(-346.09 -1661.494)" fill="#fff" fill-rule="evenodd"/>
  <path id="Trazado_8" data-name="Trazado 8" d="M362.558,1716.214l5,8.666a22.028,22.028,0,0,1,3.041,10.14l.6,10.022a5.592,5.592,0,0,0,2.574,4.461l8.376,5.536a22.025,22.025,0,0,1,7.254,7.708l5,8.667a.23.23,0,0,1-.326.307l-6.826-4.512a.283.283,0,0,0-.037-.019l-15.092-6.454a11.088,11.088,0,0,0-7.692-.485l-27.73,7.919a.23.23,0,0,1-.223-.386l20.74-20.038a11.086,11.086,0,0,0,3.432-6.9l1.969-16.3a.181.181,0,0,0,0-.042l-.487-8.167a.23.23,0,0,1,.43-.128Zm11.263,30.286a5.194,5.194,0,1,0,1.9-7.095A5.194,5.194,0,0,0,373.821,1746.5Z" transform="translate(-336.401 -1680.097)" fill="#fff" fill-rule="evenodd"/>
  <path id="Trazado_9" data-name="Trazado 9" d="M379.213,1725.125l1.632,2.831a23.721,23.721,0,0,1,1.656,3.46,23.823,23.823,0,0,1-3.825.294h-3.268l.494-4.084c0-.008,0-.014,0-.021l.017-.012Z" transform="translate(-349.69 -1683.172)" fill="#fff" fill-rule="evenodd"/>
  <path id="Trazado_10" data-name="Trazado 10" d="M434.492,1716.214l-5,8.667a22.024,22.024,0,0,0-3.041,10.139l-.6,10.022a5.593,5.593,0,0,1-2.574,4.461l-8.376,5.536a22.017,22.017,0,0,0-7.254,7.709l-5,8.667a.23.23,0,0,0,.327.307l6.826-4.511a.286.286,0,0,1,.036-.019l15.092-6.454a11.084,11.084,0,0,1,7.692-.485l27.73,7.92a.23.23,0,0,0,.224-.387l-20.74-20.037a11.082,11.082,0,0,1-3.432-6.9l-1.97-16.3a.214.214,0,0,1,0-.042l.486-8.167a.231.231,0,0,0-.43-.129ZM423.228,1746.5a5.194,5.194,0,1,1-1.9-7.095A5.194,5.194,0,0,1,423.228,1746.5Z" transform="translate(-358.961 -1680.097)" fill="#fff" fill-rule="evenodd"/>
  <path id="Trazado_11" data-name="Trazado 11" d="M411.558,1782.075a23.728,23.728,0,0,0-2.154,3.15l-1.636,2.837,3.754,1.605a.206.206,0,0,1,.036.02.235.235,0,0,1,.036-.02l3.754-1.605-1.637-2.837A23.737,23.737,0,0,0,411.558,1782.075Z" transform="translate(-360.715 -1702.574)" fill="#fff" fill-rule="evenodd"/>
  <path id="Trazado_12" data-name="Trazado 12" d="M444.156,1725.125l-1.632,2.831a23.668,23.668,0,0,0-1.656,3.46,23.8,23.8,0,0,0,3.824.294h3.268l-.494-4.084c0-.008,0-.014,0-.021l-.017-.012Z" transform="translate(-371.991 -1683.172)" fill="#fff" fill-rule="evenodd"/>
</svg>
