<svg xmlns="http://www.w3.org/2000/svg" width="14.898" height="16.395" viewBox="0 0 14.898 16.395">
  <g id="lock_icon" data-name="lock icon" transform="translate(0.699 0.695)">
    <path id="Unión_4" data-name="Unión 4" d="M18627.6,17637.609h-10.824l-.008-.008h-.074v-.012h-.055l-.012-.008h-.055c-.012,0-.012,0-.012-.008h-.035l-.012-.012h-.055v-.008h-.027l-.008-.012h-.02l-.012-.008h-.035l-.012-.008h-.016a.011.011,0,0,0-.012-.012h-.008l-.012-.008h-.027c-.008,0-.008,0-.008-.012h-.02v-.008h-.039c0-.008,0-.008-.008-.008s-.008,0-.008-.012h-.02l-.008-.008h-.02l-.012-.012h-.008a.008.008,0,0,1-.008-.008h-.031c0-.008,0-.008-.008-.008l-.008-.012h-.012v-.008h-.027a.008.008,0,0,0-.008-.008h-.012l-.008-.012h-.02v-.008h-.008l-.012-.012h-.008s0-.008-.012-.008h-.008l-.008-.008h-.012l-.008-.012h-.008s-.012,0-.012-.008-.008,0-.008-.012h-.012a.008.008,0,0,1-.008-.008h-.008l-.012-.008h-.008v-.012h-.02a.008.008,0,0,0-.008-.008l-.012-.012h-.008c0-.008,0-.008-.012-.008s-.008,0-.008-.008h-.008a.011.011,0,0,0-.012-.012.008.008,0,0,1-.008-.008h-.02v-.012l-.008-.008h-.012l-.008-.008h-.012v-.012c-.008,0-.008,0-.008-.008h-.008l-.012-.012c-.008,0-.008,0-.008-.008h-.008l-.012-.008v-.012h-.008c-.012,0-.012-.008-.012-.008h-.008v-.008h-.008l-.012-.012a.008.008,0,0,1-.008-.008h-.012s0-.012-.008-.012v-.008h-.008l-.012-.008-.008-.012-.012-.008h-.008v-.012a.008.008,0,0,1-.008-.008h-.012l-.008-.008c0-.012,0-.012-.012-.012h-.008v-.008l-.008-.012-.012-.008h-.008V17637h-.012v-.012a.008.008,0,0,1-.008-.008h-.008v-.012l-.012-.008h-.008v-.008l-.008-.012s-.012,0-.012-.008-.008-.012-.008-.012h-.012v-.008h-.008v-.008l-.008-.012s0-.008-.012-.008v-.008h-.008v-.012h-.012v-.008h-.008v-.012a.008.008,0,0,1-.008-.008h-.012v-.008l-.008-.012-.012-.008v-.012h-.008v-.008h-.008v-.008h-.012v-.012h-.008v-.02h-.012v-.008h-.008v-.008l-.008-.012v-.008h-.012l-.008-.012v-.008c-.012,0-.012-.008-.012-.008v-.012h-.008v-.008c-.008,0-.008,0-.008-.012s-.012-.008-.012-.008v-.008h-.008v-.02h-.008v-.008h-.012v-.02l-.008-.012h-.012v-.008l-.008-.008v-.012l-.008-.008v-.012l-.012-.008v-.008h-.008v-.012c-.012,0-.012,0-.012-.008l-.008-.012v-.016h-.008v-.02h-.012v-.02H18615v-.008l-.012-.012v-.008h-.008v-.02l-.008-.008v-.012l-.012-.008-.008-.008v-.031h-.012v-.008l-.008-.008v-.02l-.008-.012v-.008l-.012-.008v-.012h-.008v-.027h-.012v-.027h-.008v-.02a.008.008,0,0,0-.008-.008v-.02h-.012v-.02h-.008v-.035l-.008-.012v-.02h-.012v-.035l-.008-.012V17636h-.012v-.031h-.008v-.047h-.008v-.035h-.012v-.047l-.008-.008v-.039h-.012v-.047h-.008v-.086l-.008-.008v-.074h-.012v-5.59l.012-.008v-.078l.008-.008v-.074c.008,0,.008-.012.008-.012v-.035h.012v-.047h.008v-.055h.012v-.031l.008-.008v-.039l.008-.008v-.027h.012v-.02l.008-.008v-.027l.012-.012v-.008l.008-.012v-.027a.008.008,0,0,1,.008-.008v-.02l.012-.008v-.012h.008v-.035h.008v-.02h.012v-.027h.008v-.02l.012-.012v-.008h.008v-.027h.008v-.008l.012-.012v-.02l.008-.008v-.008l.012-.012.008-.008v-.02h.008v-.02h.012v-.008c.008,0,.008,0,.008-.012v-.008l.012-.008v-.012l.008-.008v-.012l.008-.008v-.008h.012v-.02h.008v-.012l.012-.008.008-.008v-.02h.008l.012-.008v-.012l.008-.008v-.012s0-.008.012-.008v-.008h.008v-.012c.008,0,.008,0,.008-.008s0-.012.012-.012v-.008h.008v-.02h.008c0-.008.012-.008.012-.008v-.012a.008.008,0,0,1,.008-.008l.012-.008.008-.012v-.008s.008,0,.008-.012l.012-.008v-.008h.008v-.012h.012v-.008l.008-.012.008-.008.012-.008v-.012h.008v-.008h.012v-.008c.008,0,.008-.012.008-.012a.008.008,0,0,0,.008-.008l.012-.012.008-.008.012-.008v-.012h.008v-.008l.008-.012h.012v-.008h.008v-.008a.011.011,0,0,0,.012-.012h.008v-.008h.008v-.012l.012-.008h.008v-.008c.008,0,.008,0,.008-.012h.012v-.008h.008v-.012l.012-.008h.008v-.008h.008l.012-.012v-.008h.02v-.012h.008v-.008c.008,0,.008,0,.008-.008h.012c0-.012,0-.012.008-.012v-.008h.02v-.008l.008-.012.012-.008h.008v-.012c.012,0,.012,0,.012-.008h.008l.008-.008a.011.011,0,0,0,.012-.012h.008l.012-.008.008-.012.008-.008h.02v-.008l.008-.012h.012l.008-.008h.012l.008-.012v-.008h.02v-.008h.008l.012-.012.008-.008h.008l.012-.012h.008v-.008h.02v-.008h.008a.011.011,0,0,1,.012-.012h.008v-.008h.012s.008,0,.008-.012.008,0,.008-.008h.02v-.008h.012l.008-.012h.02v-.008h.016l.012-.008.008-.012h.02v-.008h.008c.012,0,.012,0,.012-.012h.02l.008-.008h.008l.012-.008h.008v-.012h.027s0-.008.012-.008h.008l.012-.012h.008v-.008h.027l.012-.008h.008c0-.012.008-.012.008-.012h.027v-.008h.02l.012-.012h.008a.008.008,0,0,0,.008-.008h.039v-.008h.02c.008,0,.008-.012.008-.012h.02v-.008h.047v-.012h.027l.012-.008h.035l.008-.008h.031l.008-.012h.027l.012-.008h.055l.008-.012h.047c.012,0,.012-.008.012-.008h.1l.008-.008h.973v-2.543h.012v-.121h.008v-.121l.008-.012v-.055h.012v-.086a.008.008,0,0,1,.008-.008v-.047h.012v-.047h.008v-.066l.008-.008v-.039h.012v-.055h.008v-.039h.012v-.027l.008-.008v-.047h.008v-.027c0-.012,0-.012.012-.012v-.047h.008v-.027h.012v-.027h.008v-.039c0-.008,0-.008.008-.008v-.02h.012v-.027l.008-.008v-.031l.012-.008v-.02l.008-.008v-.027l.008-.012v-.02h.012v-.016h.008v-.039h.012v-.02l.008-.008v-.02l.008-.008v-.02l.012-.008v-.012c.008,0,.008,0,.008-.008v-.02l.008-.008v-.02l.012-.012v-.016c.008,0,.008-.012.008-.012v-.008l.012-.012V17624a.008.008,0,0,0,.008-.008v-.02l.008-.008v-.012h.012v-.027l.008-.008v-.012c.012,0,.012-.008.012-.008v-.02h.008v-.02h.008v-.02h.012v-.027h.008v-.008l.012-.012v-.008l.008-.008v-.02h.008v-.02h.012v-.02h.008v-.016h.012v-.02l.008-.012v-.008l.008-.008v-.012h.012v-.02h.008v-.016h.012v-.012l.008-.008v-.02h.008v-.02h.012v-.008h.008v-.02l.008-.008v-.012c.012,0,.012,0,.012-.008v-.012l.008-.008v-.008h.012v-.012l.008-.008v-.008c0-.012.008-.012.008-.012s.012-.008.012-.008v-.02h.008v-.008l.012-.012c0-.008,0-.008.008-.008v-.02h.008v-.008a.011.011,0,0,0,.012-.012v-.008l.008-.012v-.008h.012v-.008h.008v-.02h.008v-.012l.012-.008a.008.008,0,0,1,.008-.008v-.012l.012-.008.008-.012v-.016h.008v-.012l.012-.008.008-.008v-.012h.012v-.008l.008-.012v-.008a.008.008,0,0,0,.008-.008l.012-.012.008-.008v-.012l.008-.008.012-.008v-.012h.008v-.008l.012-.012v-.008h.008v-.008l.008-.012.012-.008v-.012l.008-.008h.012v-.008s0-.012.008-.012v-.008h.008v-.012l.012-.008a.008.008,0,0,1,.008-.008v-.012h.012v-.008h.008v-.02h.008l.012-.008v-.012h.008v-.008h.012v-.008l.008-.012a.008.008,0,0,1,.008-.008v-.012h.012v-.008h.008v-.008l.012-.012.008-.008v-.012c.008,0,.008,0,.008-.008h.012l.008-.008v-.012a.008.008,0,0,1,.008-.008.011.011,0,0,0,.012-.012v-.008h.008v-.008h.012c0-.012,0-.012.008-.012v-.008h.008v-.012l.012-.008.008-.008.012-.012.008-.008v-.008h.008v-.012h.012c0-.008,0-.008.008-.008v-.012h.012v-.008h.008v-.008h.008v-.012h.012v-.008h.008v-.012h.012v-.008h.008v-.008l.008-.012.012-.008h.008v-.012l.012-.008h.008v-.008l.008-.012.012-.008h.008v-.012l.008-.008.012-.008.008-.012.012-.008h.008v-.012l.008-.008h.012v-.008h.008v-.012l.012-.008h.008v-.008h.008c0-.012,0-.012.012-.012v-.008h.008l.012-.012.008-.008h.008v-.008a.011.011,0,0,0,.012-.012h.008v-.008h.012v-.012h.008v-.008h.008v-.008h.012l.008-.012c.012,0,.012-.008.012-.008h.008v-.012l.008-.008h.012l.008-.008v-.012h.008v-.008h.012l.008-.012h.012v-.008h.008c0-.008,0-.008.008-.008a.011.011,0,0,1,.012-.012.008.008,0,0,1,.008-.008c.012,0,.012,0,.012-.012h.008v-.008h.008l.012-.008.008-.012.012-.008h.008v-.008h.008l.012-.012h.008v-.008h.012l.008-.012v-.008h.02v-.008h.008v-.012h.02v-.008l.008-.012h.012v-.008h.008c.008,0,.008,0,.008-.008h.012v-.012h.008l.012-.008h.008v-.012h.008c0-.008.012-.008.012-.008h.008v-.008h.012l.008-.012.008-.008h.012v-.012h.008l.012-.008h.008a.008.008,0,0,1,.008-.008h.012v-.012h.008v-.008h.02v-.012h.008v-.008h.02l.012-.008.008-.012.008-.008h.02v-.008h.008l.012-.012h.008v-.008h.02v-.012h.008v-.008h.02l.012-.008.008-.012h.02v-.008h.008l.012-.012.008-.008h.02v-.008h.008v-.012h.02l.008-.008h.012c0-.012.008-.012.008-.012s.012,0,.012-.008h.016v-.008h.02v-.012h.012l.008-.008h.008l.012-.012h.008a.008.008,0,0,1,.008-.008h.02v-.008h.012s.008,0,.008-.012h.008l.012-.008h.008l.012-.012h.008a.008.008,0,0,1,.008-.008h.02v-.008h.02v-.012h.02v-.008h.02l.008-.008h.008l.012-.012h.008l.012-.008h.008l.008-.012h.02v-.008h.02l.008-.008h.02v-.012h.02l.008-.008h.02v-.012h.02v-.008h.027v-.008h.02s0-.012.008-.012h.02l.008-.008h.012s.008,0,.008-.012h.02v-.008h.027v-.008h.02l.008-.012h.02v-.008h.027a.011.011,0,0,0,.012-.012h.016c0-.008.012-.008.012-.008h.027v-.008h.02l.008-.012h.02v-.008h.047v-.012h.02a.008.008,0,0,0,.008-.008h.027s.012,0,.012-.008h.027v-.012h.02l.008-.008h.039a.008.008,0,0,0,.008-.008h.027v-.012h.047v-.008h.027a.011.011,0,0,0,.012-.012h.027a.008.008,0,0,1,.008-.008h.047v-.008h.039l.008-.012h.059v-.008h.035l.012-.012h.035l.008-.008h.078v-.008h.055v-.012h.094a.008.008,0,0,1,.008-.008h.066l.008-.012h.094l.012-.008h.6l.008.008h.094c0,.012,0,.012.012.012h.063l.012.008h.094l.008.012h.039l.008.008h.074v.008h.047v.012h.039l.008.008h.055l.012.012h.027l.008.008h.047l.012.008h.027v.012h.027s.012,0,.012.008h.035a.011.011,0,0,1,.012.012h.027l.008.008h.039v.008h.016c.012,0,.012,0,.012.012h.027v.008h.039l.008.008h.02l.008.012h.027c0,.008.012.008.012.008h.02c0,.012,0,.012.008.012h.008l.012.008h.027a.008.008,0,0,0,.008.008h.02v.012h.027l.012.008h.016l.012.012h.008s0,.008.012.008h.016l.012.008h.02l.008.012h.008l.012.008h.02l.008.012h.02l.008.008h.008l.012.008h.02l.008.012h.008c0,.008,0,.008.012.008h.008c.012,0,.012,0,.012.012h.016c0,.008,0,.008.012.008h.02v.008h.008l.008.012h.02v.008h.02v.012h.02l.008.008h.02c0,.008,0,.008.008.008s.012,0,.012.012h.008l.008.008h.02v.008h.02v.012h.02l.008.008h.012l.008.012h.008c0,.008,0,.008.012.008h.008l.012.008h.008v.012h.02l.008.008h.012l.008.012.008.008h.02v.008h.02v.012h.008v.008h.02c0,.012,0,.012.008.012s.012,0,.012.008h.02a.008.008,0,0,0,.008.008l.008.012h.012v.008h.02v.012h.008l.008.008h.012a.008.008,0,0,0,.008.008c.012,0,.012,0,.012.012h.008l.008.008h.012s.008,0,.008.012h.012l.008.008a.008.008,0,0,1,.008.008h.012l.008.012v.008h.02a.008.008,0,0,0,.008.008h.012v.012h.008l.008.008h.012v.012h.008c0,.008.012.008.012.008h.008v.008h.008l.012.012h.008v.008h.012l.008.012h.008v.008h.012a.008.008,0,0,0,.008.008h.012v.012h.008v.008h.008l.012.012h.008v.008h.012a.008.008,0,0,1,.008.008l.008.012h.012v.008h.008l.012.012.008.008h.008l.012.008s.008,0,.008.012a.008.008,0,0,1,.008.008h.012v.012h.008l.012.008h.008v.008h.008v.012h.012v.008h.02v.008h.008v.012h.008c0,.008.012.008.012.008s.008.012.008.012v.008h.02v.008c.008,0,.008.012.008.012h.012l.008.008.012.012.008.008.008.008.012.012h.008v.008h.012l.008.012c0,.008,0,.008.008.008s.012,0,.012.008.008,0,.008.012l.008.008h.012v.012h.008v.008h.012l.008.008v.012h.008l.012.008v.012h.008l.012.008h.008v.008h.008v.012l.012.008a.008.008,0,0,1,.008.008h.012v.012h.008v.008h.008v.012h.012v.008h.008v.008h.012v.012h.008l.008.008v.012h.012v.008h.008l.012.008v.012h.008v.008c.008,0,.008,0,.008.012h.012v.008h.008v.008c.008,0,.008,0,.008.012h.012v.008s.008,0,.008.012.012.008.012.008h.008v.008l.008.012c0,.008.012.008.012.008s0,.012.008.012,0,.008.012.008a.008.008,0,0,1,.008.008v.012l.008.008h.012v.008l.008.012h.012v.008l.008.012v.008h.008l.012.008.008.012v.008h.012v.012h.008v.008l.008.008.012.012a.008.008,0,0,0,.008.008v.012h.012v.008h.008v.008l.008.012v.008h.012l.008.012v.008h.008v.008h.012v.02h.008l.012.012v.008h.008v.008l.008.012c0,.008.012.008.012.008v.008l.008.012h.012v.008l.008.012v.008h.008v.008a.011.011,0,0,1,.012.012l.008.008v.012h.012v.008h.008v.02h.008v.008h.012v.012l.008.008.012.008v.012h.008v.02l.008.008.012.008.008.012v.008a.011.011,0,0,1,.012.012.008.008,0,0,0,.008.008v.008l.008.012v.008h.012v.008h.008v.012l.008.008v.012l.012.008v.008l.008.012.012.008.008.012v.016l.008.012.012.008v.012a.008.008,0,0,1,.008.008v.008h.012v.012l.008.008v.012h.008v.008l.012.008v.012c0,.008,0,.008.008.008v.012l.012.008.008.008v.02h.008v.008l.012.012v.008h.008v.02h.012v.008c0,.012,0,.012.008.012v.02h.008v.008l.012.008v.012l.008.008v.02h.012v.008h.008v.02l.008.012v.008s.012,0,.012.008v.012l.008.008v.02h.008v.008h.012v.027c.008,0,.008,0,.008.012l.012.008v.012l.008.008v.02h.008v.02h.012v.027h.008v.008l.012.012v.008l.008.008v.02l.008.012v.008h.012v.027l.008.012v.008c.012,0,.012,0,.012.008v.012l.008.008v.02l.008.008v.012l.012.008v.02h.008v.027h.012v.02l.008.008v.027h.008v.02h.012v.02l.008.008v.031l.012.008v.02h.008v.027l.008.008v.02h.012v.02a.008.008,0,0,0,.008.008v.039l.008.008v.02h.012v.027l.008.012v.027h.012v.027h.008v.035l.008.012v.027h.012v.047h.008v.027l.012.012v.027h.008v.055h.008v.027a.7.7,0,1,1-1.363.281.008.008,0,0,0-.008-.008v-.027c0-.012,0-.012-.012-.012v-.027h-.008v-.047h-.012v-.027c0-.012,0-.012-.008-.012v-.035h-.008v-.027l-.012-.012v-.02l-.008-.008v-.027a.008.008,0,0,1-.008-.008v-.02h-.012v-.039h-.008v-.02l-.012-.008v-.02h-.008v-.027h-.008v-.027h-.012v-.02c0-.008,0-.008-.008-.008v-.02h-.012v-.02h-.008v-.027h-.008v-.02H18625v-.02c-.008,0-.008,0-.008-.008v-.02h-.012v-.02h-.008v-.016c0-.012-.008-.012-.008-.012v-.008a.011.011,0,0,1-.012-.012v-.008h-.008v-.027h-.012v-.012a.008.008,0,0,0-.008-.008v-.02h-.008v-.008a.011.011,0,0,0-.012-.012v-.008h-.008v-.027h-.012v-.008h-.008v-.031h-.008v-.008h-.012v-.02h-.008v-.02h-.008v-.008s-.012,0-.012-.008v-.012a.008.008,0,0,1-.008-.008v-.012c-.012,0-.012,0-.012-.008h-.008v-.02a.008.008,0,0,0-.008-.008c0-.012,0-.012-.012-.012v-.008a.008.008,0,0,0-.008-.008v-.012c-.012,0-.012-.008-.012-.008s-.008-.012-.008-.012V17624c-.008,0-.008,0-.008-.008v-.012h-.012v-.008h-.008v-.02h-.012v-.008h-.008v-.02h-.008v-.008c-.012,0-.012,0-.012-.012h-.008v-.02h-.012v-.008h-.008v-.02h-.008c0-.008,0-.008-.012-.008v-.012h-.008v-.016h-.012v-.012c-.008,0-.008,0-.008-.008l-.008-.012v-.008h-.012v-.008h-.008v-.012l-.008-.008c-.012,0-.012,0-.012-.012v-.008h-.008v-.008h-.012v-.012h-.008v-.008h-.008v-.008a.011.011,0,0,0-.012-.012v-.008h-.008v-.012h-.012v-.008h-.008v-.008l-.008-.012h-.012v-.008h-.008v-.02h-.012l-.008-.008v-.012h-.008v-.008h-.012v-.012h-.008v-.008h-.012v-.008h-.008v-.012l-.008-.008h-.012v-.012h-.008v-.008h-.012v-.008h-.008v-.02h-.02v-.012c-.008,0-.008,0-.008-.008h-.008v-.008h-.012v-.012l-.008-.008h-.012v-.008h-.008v-.012h-.008c0-.008-.012-.008-.012-.008v-.012h-.008v-.008h-.012l-.008-.008v-.012h-.02v-.008h-.008v-.012s-.012,0-.012-.008h-.008v-.008h-.008c0-.012,0-.012-.012-.012h-.008v-.008l-.012-.012a.008.008,0,0,1-.008-.008h-.008v-.008h-.012v-.012h-.008v-.008h-.012s-.008,0-.008-.012a.008.008,0,0,1-.008-.008h-.012l-.008-.008v-.012h-.008l-.012-.008h-.008a.011.011,0,0,0-.012-.012v-.008h-.016c0-.008,0-.008-.012-.008v-.012H18624c0-.008,0-.008-.012-.008h-.008v-.008c-.008,0-.008,0-.008-.012h-.02c0-.008,0-.008-.012-.008s0-.012-.008-.012a.008.008,0,0,0-.008-.008h-.012l-.008-.008-.012-.012h-.008a.008.008,0,0,0-.008-.008l-.012-.012h-.008v-.008h-.02v-.008c-.008,0-.008-.012-.008-.012h-.02c0-.008,0-.008-.008-.008l-.012-.012a.008.008,0,0,1-.008-.008h-.012c-.008,0-.008,0-.008-.008h-.008l-.012-.012-.008-.008h-.02c0-.012,0-.012-.008-.012l-.012-.008h-.008l-.012-.008h-.008c0-.012,0-.012-.008-.012h-.012c0-.008,0-.008-.008-.008s-.012,0-.012-.012h-.008l-.008-.008h-.02v-.008h-.012c-.008,0-.008-.012-.008-.012h-.008l-.012-.008h-.008a.008.008,0,0,1-.008-.008h-.012l-.008-.012h-.02a.008.008,0,0,0-.008-.008h-.012v-.012h-.008c-.012,0-.012-.008-.012-.008h-.016s-.012,0-.012-.008h-.008v-.012h-.027l-.012-.008h-.008a.011.011,0,0,0-.012-.012h-.008v-.008h-.027c0-.008-.012-.008-.012-.008h-.008l-.008-.012h-.027s0-.008-.012-.008-.008,0-.008-.012h-.02l-.008-.008h-.031c0-.008,0-.008-.008-.008h-.008l-.012-.012h-.008s-.012,0-.012-.008h-.035c0-.012,0-.012-.012-.012h-.008v-.008h-.039a.008.008,0,0,1-.008-.008h-.02s-.008,0-.008-.012h-.02v-.008h-.047c0-.012-.008-.012-.008-.012h-.02a.008.008,0,0,1-.008-.008h-.047s0-.008-.012-.008h-.027v-.012h-.027s-.012,0-.012-.008h-.055v-.008h-.035c-.012,0-.012,0-.012-.012h-.074l-.008-.008h-.059s0-.012-.008-.012h-.066a.008.008,0,0,0-.008-.008h-.18c-.008,0-.008,0-.008-.008h-.168s0,.008-.012.008h-.184c0,.008-.012.008-.012.008h-.055c-.012,0-.012,0-.02.012h-.047l-.008.008h-.074a.011.011,0,0,1-.012.012h-.027a.008.008,0,0,0-.008.008h-.059a.008.008,0,0,1-.008.008h-.027l-.012.012h-.027v.008h-.047a.008.008,0,0,1-.008.008h-.027c0,.012,0,.012-.012.012h-.027a.008.008,0,0,0-.008.008h-.02l-.012.012h-.016s-.012,0-.012.008h-.027a.008.008,0,0,0-.008.008h-.02a.011.011,0,0,1-.012.012h-.027l-.008.008h-.02v.012h-.02l-.008.008h-.02l-.008.008h-.02v.012h-.02v.008h-.027l-.008.012h-.02c0,.008,0,.008-.012.008h-.008a.008.008,0,0,0-.008.008h-.012c-.008,0-.008,0-.008.012h-.02c0,.008,0,.008-.008.008h-.02v.012h-.012a.008.008,0,0,0-.008.008h-.02a.008.008,0,0,0-.008.008c-.008,0-.008,0-.02.012a.008.008,0,0,0-.008.008h-.02l-.008.012h-.012v.008h-.02c-.008,0-.008,0-.008.008h-.008a.011.011,0,0,0-.012.012c-.008,0-.008,0-.008.008h-.02l-.008.008h-.012l-.008.012h-.02v.008h-.008a.011.011,0,0,1-.012.012.008.008,0,0,0-.008.008h-.02v.008h-.008a.011.011,0,0,1-.012.012h-.008l-.008.008a.011.011,0,0,0-.012.012h-.008l-.012.008h-.008v.008h-.008a.011.011,0,0,0-.012.012h-.008c0,.008,0,.008-.012.008h-.008v.012h-.008l-.012.008h-.008l-.012.008h-.008v.012a.008.008,0,0,0-.008.008h-.02v.012c-.012,0-.012,0-.012.008h-.016c0,.008,0,.008-.012.008s-.008.012-.008.012,0,.008-.012.008-.008,0-.008.012h-.008s0,.008-.012.008h-.008v.008h-.008a.011.011,0,0,1-.012.012v.008h-.02a.008.008,0,0,1-.008.008v.012h-.02v.008l-.008.012h-.012v.008h-.008v.008h-.008l-.012.012h-.008v.008h-.012v.012h-.008v.008h-.008c-.012,0-.012.008-.012.008h-.008v.012h-.012v.008h-.008v.012h-.008v.008h-.012c-.008,0-.008,0-.008.008l-.012.012h-.008v.008h-.008v.012h-.012v.008h-.008v.008h-.008c0,.012,0,.012-.012.012v.008h-.008a.011.011,0,0,1-.012.012l-.008.008-.008.008-.012.012v.008h-.008l-.012.008h-.008v.012a.008.008,0,0,0-.008.008h-.012v.02h-.008c-.012,0-.012.008-.012.008l-.008.012-.008.008v.012h-.012l-.008.008v.008h-.012c0,.012,0,.012-.008.012v.008h-.008v.012h-.012v.008h-.008v.008a.011.011,0,0,0-.012.012.008.008,0,0,0-.008.008c0,.012-.008.012-.008.012v.008h-.02v.02h-.012v.008h-.008v.012l-.008.008s-.012,0-.012.008l-.008.012v.008h-.008v.008c-.012,0-.012,0-.012.012l-.008.008v.012h-.012v.008h-.008v.008l-.008.012c-.012,0-.012.008-.012.008v.012a.008.008,0,0,0-.008.008h-.012v.008c-.008,0-.008.012-.008.012v.008h-.008v.012h-.012v.008h-.008v.02c-.012,0-.012.008-.012.008s-.008.012-.008.012v.008h-.008v.008h-.012v.012c0,.008,0,.008-.008.008v.012s0,.008-.012.008a.008.008,0,0,1-.008.008v.02h-.008v.008h-.012v.012h-.008v.02h-.012v.008a.008.008,0,0,0-.008.008v.012a.008.008,0,0,0-.008.008v.012h-.012v.008a.008.008,0,0,0-.008.008v.02h-.008v.012h-.012v.016h-.008v.02h-.012v.012h-.008v.016s-.008,0-.008.012v.008h-.012v.02h-.008v.02h-.012v.008a.008.008,0,0,0-.008.008v.012a.008.008,0,0,1-.008.008v.012s0,.008-.012.008v.008h-.008v.02c0,.012,0,.012-.012.012v.008l-.008.008v.02c-.008,0-.008.012-.008.012v.008h-.012v.02h-.008v.027h-.012v.02h-.008v.027h-.008v.02c-.012,0-.012,0-.012.008v.008h-.008v.031h-.012v.016l-.008.012v.027h-.008v.02h-.012v.02l-.008.008v.027h-.008v.02l-.012.008v.031l-.008.008v.02l-.012.008v.02h-.008v.035s0,.012-.008.012v.027h-.012v.039l-.008.008v.027h-.012v.027l-.008.012v.047a.008.008,0,0,0-.008.008v.027a.011.011,0,0,0-.012.012v.027a.008.008,0,0,1-.008.008v.066h-.012v.055h-.008v.094c-.008,0-.008.012-.008.012v.074s-.012,0-.012.008v.141h-.008v2.395h8.469l.008.008h.113v.008h.047c.008,0,.008.012.008.012h.066l.008.008h.031l.008.012h.027s0,.008.012.008h.035l.012.008h.016a.011.011,0,0,1,.012.012h.035c0,.008.012.008.012.008h.016l.012.012h.008s.012,0,.012.008h.027l.008.008h.02v.012h.02l.008.008h.02l.008.012h.02s0,.008.012.008h.016l.012.008h.008l.012.012h.008l.008.008h.02l.008.012h.012v.008h.027l.008.008h.012v.012h.008l.012.008h.008c.008,0,.008,0,.008.012h.012a.008.008,0,0,1,.008.008h.02c0,.008,0,.008.008.008h.012c0,.012,0,.012.008.012s.012.008.012.008h.008l.008.008h.012l.008.012h.012a.008.008,0,0,0,.008.008v.012h.008l.012.008h.008c.008,0,.008,0,.008.008h.012s0,.012.008.012h.012l.008.008h.008v.012c.012,0,.012,0,.012.008h.008l.012.008h.008l.008.012v.008h.02v.012h.012l.008.008.008.008h.012l.008.012v.008h.02v.012c.008,0,.008,0,.008.008h.02v.008a.011.011,0,0,1,.012.012h.008v.008h.008a.011.011,0,0,0,.012.012l.008.008a.008.008,0,0,1,.008.008l.012.012.008.008h.012l.008.008.008.012.012.008v.012h.008c0,.008.012.008.012.008h.008v.008l.008.012.012.008h.008v.012s.012,0,.012.008h.008v.008h.008v.012l.012.008h.008v.012c.012,0,.012,0,.012.008h.008v.008l.008.012.012.008h.008v.02h.012c.008,0,.008,0,.008.008v.012h.008v.008h.012l.008.012v.008h.008v.008l.012.012.008.008.012.008v.012h.008v.008l.008.012c0,.008.012.008.012.008v.008l.008.012h.012v.008h.008v.02h.008v.008h.012v.012h.008v.02h.012v.008h.008v.02h.008v.008h.012v.012a.008.008,0,0,1,.008.008v.008h.012v.02h.008v.012l.008.008v.008l.012.012h.008v.016l.012.012.008.008v.02h.008v.008h.012v.012a.008.008,0,0,0,.008.008v.02h.008v.008l.012.012v.02h.008v.008l.012.008v.012l.008.008v.02h.008v.008a.011.011,0,0,0,.012.012v.02h.008v.016h.012v.02h.008v.027h.008v.02h.012v.02h.008v.027l.012.008v.02h.008v.027h.008v.02l.012.012v.016h.008v.039h.012v.027h.008v.027l.008.012v.027h.012v.027l.008.008v.047h.012v.039l.008.008v.059l.008.008v.039l.012.008v.055l.008.012v.129h.008v5.469s-.008,0-.008.012v.129a.008.008,0,0,1-.008.008v.059l-.012.008v.039c0,.008,0,.008-.008.008v.059l-.008.008v.027l-.012.008v.039l-.008.008v.031l-.012.008v.02l-.008.008v.039h-.008v.027h-.012v.027l-.008.012v.016a.011.011,0,0,0-.012.012v.008l-.008.008v.031l-.008.008v.008l-.012.012v.027h-.008v.008a.011.011,0,0,1-.012.012v.008l-.008.012v.027l-.008.008-.012.012v.008h-.008v.027l-.012.012v.008h-.008v.02l-.008.008v.008h-.012v.012l-.008.008v.02h-.012v.02h-.008v.02l-.008.008-.012.008v.012l-.008.008v.012c-.008,0-.008,0-.008.008h-.012v.02a.008.008,0,0,1-.008.008v.012h-.012v.008h-.008v.02l-.008.008h-.012v.02h-.008v.008l-.012.012v.008h-.008v.008l-.008.012-.012.008v.012l-.008.008-.012.008v.012h-.008v.008l-.008.012v.008h-.012l-.008.008v.012h-.012v.008c-.008,0-.008,0-.008.012v.008h-.008v.008h-.012l-.008.012v.008a.011.011,0,0,0-.012.012l-.008.008-.008.008v.012h-.012v.008h-.008v.012l-.008.008h-.012v.008l-.008.012-.012.008h-.008v.008l-.008.012h-.012v.02h-.008c0,.008,0,.008-.012.008H18629v.008l-.008.012-.012.008-.008.012-.012.008h-.008v.008l-.008.012-.012.008h-.008v.012h-.012l-.008.008-.008.008v.012h-.012a.008.008,0,0,1-.008.008.011.011,0,0,0-.012.012l-.008.008h-.008c0,.008-.012.008-.012.008l-.008.012-.008.008h-.012v.012h-.008v.008h-.012l-.008.008-.008.012s-.012,0-.012.008h-.008l-.012.008s-.008,0-.008.012h-.008l-.012.008-.008.012s-.012,0-.012.008h-.008l-.008.008h-.012l-.008.012-.012.008h-.008v.012h-.008l-.012.008h-.008c0,.008-.012.008-.012.008l-.008.012-.008.008h-.02v.012h-.008c-.012,0-.012.008-.012.008h-.008l-.012.008h-.008l-.008.012h-.012v.008h-.02s0,.012-.008.012l-.008.008h-.012l-.008.008h-.012l-.008.012h-.008l-.012.008h-.02l-.008.012-.008.008h-.02l-.012.008h-.008l-.008.012h-.02v.008h-.02v.008h-.02c-.008,0-.008.012-.008.012h-.02a.008.008,0,0,0-.008.008h-.02l-.008.012h-.012v.008h-.027a.008.008,0,0,0-.008.008h-.02l-.012.012h-.027l-.008.008h-.02v.012h-.027l-.008.008H18628c-.008,0-.008,0-.008.008h-.02c-.008,0-.008,0-.008.012h-.027l-.012.008h-.055v.012h-.039l-.008.008h-.066v.008h-.047l-.008.012h-.086a.008.008,0,0,1-.008.008Zm-11.449-7.562v5.488h.012v.039h.008v.043l.008.012v.02h.012v.027h.008v.027h.008v.02l.012.008v.02h.008v.02h.012v.008h.008v.02l.008.008v.012c.012,0,.012,0,.012.008v.012c.008,0,.008,0,.008.008h.012v.02h.008v.008l.008.008a.011.011,0,0,0,.012.012v.008h.008v.012c.012,0,.012.008.012.008a.008.008,0,0,1,.008.008v.012h.008l.012.008c0,.012.008.012.008.012v.008h.012v.008h.008v.012a.008.008,0,0,1,.008.008h.012s0,.012.008.012v.008h.012l.008.008s0,.012.008.012l.012.008h.008v.012h.008v.008h.02v.008h.012v.012h.008v.008h.02v.012h.02v.008h.016v.008h.02v.012h.012a.008.008,0,0,0,.008.008h.008c.012,0,.012,0,.012.008h.02v.012h.016c.012,0,.012.008.012.008h.02v.012h.016l.012.008h.035c0,.008,0,.008.012.008h.016l.012.012h.066l.008.008h10.676l.008-.008h.066v-.012h.027l.008-.008h.039v-.008h.02c.008,0,.008,0,.008-.012h.02v-.008h.027v-.012h.02v-.008h.027v-.008h.008a.011.011,0,0,1,.012-.012l.008-.008h.02v-.008h.008a.011.011,0,0,1,.012-.012h.008c0-.008.012-.008.012-.008s.008-.012.008-.012a.008.008,0,0,0,.008-.008h.02v-.008l.012-.012h.008v-.008h.008v-.012h.012v-.008h.008l.012-.008s.008,0,.008-.012.008,0,.008-.008h.012v-.012a.008.008,0,0,0,.008-.008c.012,0,.012-.008.012-.008s.008-.012.008-.012v-.008h.008v-.012h.012v-.008h.008v-.008h.008v-.012l.012-.008v-.012h.008v-.008h.012v-.008s.008,0,.008-.012v-.008h.008v-.02h.012v-.02h.008v-.008h.012v-.008c0-.012,0-.012.008-.012v-.02c.008,0,.008,0,.008-.008v-.008h.012v-.012a.008.008,0,0,1,.008-.008v-.027h.012v-.02h.008v-.039h.008v-.027h.012v-.027a.008.008,0,0,1,.008-.008v-.078h.012v-5.43h-.012v-.074h-.008v-.027h-.012v-.027h-.008v-.039h-.008v-.02c0-.008-.012-.008-.012-.008v-.02l-.008-.008v-.012c0-.008-.012-.008-.012-.008v-.012c-.008,0-.008,0-.008-.008v-.02h-.008v-.008h-.012v-.02h-.008v-.02h-.012v-.008h-.008v-.02h-.008v-.008h-.012v-.012a.008.008,0,0,0-.008-.008v-.008c-.012,0-.012,0-.012-.012h-.008v-.008c0-.012-.008-.012-.008-.012s0-.008-.012-.008l-.008-.008v-.012h-.008v-.008h-.012v-.012a.008.008,0,0,1-.008-.008H18628v-.008H18628v-.012a.008.008,0,0,1-.008-.008h-.012v-.012h-.008v-.008h-.02v-.008s-.008,0-.008-.012h-.012v-.008h-.008c-.012,0-.012-.008-.012-.008h-.008v-.012h-.02v-.008h-.008v-.012h-.012a.008.008,0,0,0-.008-.008h-.008l-.012-.008h-.008v-.012h-.02a.008.008,0,0,0-.008-.008h-.012s0-.012-.008-.012a.008.008,0,0,1-.008-.008h-.02c-.012,0-.012,0-.012-.008h-.016v-.012h-.031c-.008,0-.008,0-.008-.008h-.02s0-.012-.008-.012h-.027c0-.008,0-.008-.012-.008h-.047a.008.008,0,0,1-.008-.008h-.066l-.008-.012h-8.934a.485.485,0,0,1-.105.012.494.494,0,0,1-.109-.012h-1.434l-.008.012h-.066s-.012,0-.012.008h-.055v.008h-.039v.012h-.016l-.012.008h-.027v.012h-.02l-.008.008h-.02v.008h-.02c0,.012-.008.012-.008.012h-.008v.008h-.02a.011.011,0,0,1-.012.012h-.008v.008h-.02a.008.008,0,0,1-.008.008v.012h-.02v.008h-.008l-.012.012h-.008v.008h-.012l-.008.008v.012h-.008l-.012.008h-.008v.008h-.008c0,.012,0,.012-.012.012a.008.008,0,0,1-.008.008v.012h-.012v.008h-.008v.008h-.008c0,.012,0,.012-.012.012v.008h-.008c0,.012,0,.012-.012.012v.008h-.008v.008h-.008v.012l-.012.008v.012h-.008v.008h-.012v.008h-.008v.02h-.008v.012c-.012,0-.012,0-.012.008s-.008,0-.008.008v.012c0,.008-.012.008-.012.008v.012h-.008v.016h-.008v.02h-.012v.02h-.008v.02l-.012.008v.02h-.008v.027h-.008v.02l-.012.008v.02h-.008v.047c-.008,0-.008,0-.008.008v.039h-.012Z" transform="translate(-18615.449 -17621.91)" fill="#7867ea"/>
  </g>
</svg>
