<svg id="Grupo_335" data-name="Grupo 335" xmlns="http://www.w3.org/2000/svg" xmlns:xlink="http://www.w3.org/1999/xlink" width="21.028" height="17.291" viewBox="0 0 21.028 17.291">
  <defs>
    <clipPath id="clip-path">
      <rect id="Rectángulo_68" data-name="Rectángulo 68" width="21.028" height="17.291" transform="translate(0 0)" fill="#7867ea"/>
    </clipPath>
  </defs>
  <g id="Grupo_334" data-name="Grupo 334" transform="translate(0 0)" clip-path="url(#clip-path)">
    <path id="Trazado_388" data-name="Trazado 388" d="M21.028,15.133c-.091.215-.12.448-.232.658a2.777,2.777,0,0,1-2.555,1.5c-.291.01-.584,0-.875,0H2.923A2.785,2.785,0,0,1,.14,15.568,2.341,2.341,0,0,1,0,14.749Q0,8.644,0,2.539A2.627,2.627,0,0,1,2.748,0c.058,0,.117,0,.175,0H18.117A2.8,2.8,0,0,1,20.8,1.5c.112.21.141.442.232.658ZM1.5,4.123v.241q0,5.169,0,10.339a1.213,1.213,0,0,0,1.376,1.233c6.62,0,8.646,0,15.266,0a1.215,1.215,0,0,0,1.382-1.251q0-5.158,0-10.316V4.123c-.13.075-.22.126-.308.179-2.925,1.756-3.328,3.514-6.255,5.269a4.343,4.343,0,0,1-4.447,0C5.577,7.8,4.711,6.04,1.771,4.275,1.7,4.23,1.619,4.189,1.5,4.123m9.242-2.771H5.216c-1.484,0-.9,0-2.38,0a1.256,1.256,0,0,0-1.31.912.258.258,0,0,0,.148.333C4.943,4.554,6.131,6.521,9.4,8.469a2.49,2.49,0,0,0,2.661.006c3.283-1.95,4.027-3.924,7.3-5.884a.247.247,0,0,0,.136-.317,1.264,1.264,0,0,0-1.351-.922H10.744" transform="translate(0 0)" fill="#7867ea"/>
  </g>
</svg>
