<svg id="Grupo_323" data-name="Grupo 323" xmlns="http://www.w3.org/2000/svg" xmlns:xlink="http://www.w3.org/1999/xlink" width="19.36" height="17.719" viewBox="0 0 19.36 17.719">
  <defs>
    <clipPath id="clip-path">
      <rect id="Rectángulo_62" data-name="Rectángulo 62" width="19.36" height="17.719" transform="translate(0 0)" fill="#7867ea"/>
    </clipPath>
  </defs>
  <g id="Grupo_322" data-name="Grupo 322" transform="translate(0 0)" clip-path="url(#clip-path)">
    <path id="Trazado_378" data-name="Trazado 378" d="M9.682,17.71c-2.284,0-4.568-.024-6.852.008A2.789,2.789,0,0,1,0,14.879C.024,11.185.007,7.49.007,3.8A2.718,2.718,0,0,1,2.839.97c.631,0,1.263-.008,1.894,0,.2,0,.3-.035.266-.257A.576.576,0,0,1,5.029.439.644.644,0,0,1,6.283.609c.011.112-.028.266.031.329.082.087.241.031.367.031q3.053,0,6.106,0c.284,0,.284,0,.293-.281a.646.646,0,1,1,1.29-.011c.007.293.007.293.3.293.645,0,1.29,0,1.935,0a2.714,2.714,0,0,1,2.75,2.745q.005,5.622,0,11.245a2.7,2.7,0,0,1-2.743,2.749q-3.466.006-6.932,0m0-11.21q-4.081,0-8.162,0c-.188,0-.23.053-.229.234q.008,4.111,0,8.222a1.424,1.424,0,0,0,1.49,1.5q6.892,0,13.785,0a1.423,1.423,0,0,0,1.495-1.494c0-2.748,0-5.5.005-8.243,0-.187-.057-.217-.226-.216q-4.081.008-8.162,0m-.01-1.29q4.092,0,8.183,0c.162,0,.22-.031.214-.206-.013-.443,0-.887-.006-1.33a1.417,1.417,0,0,0-1.41-1.415c-.705-.008-1.411,0-2.116-.006-.149,0-.184.051-.175.186a.814.814,0,0,1-.048.4.646.646,0,0,1-1.239-.269c-.015-.309-.015-.309-.325-.309H6.627c-.323,0-.323,0-.341.314a.646.646,0,0,1-.962.568A.654.654,0,0,1,5,2.457c.016-.16-.04-.2-.2-.2-.685.009-1.37,0-2.056,0A1.421,1.421,0,0,0,1.3,3.7c0,.423.01.847-.006,1.27-.007.194.044.243.24.243Q5.6,5.2,9.675,5.21" transform="translate(0 0)" fill="#7867ea"/>
  </g>
</svg>
