<svg xmlns="http://www.w3.org/2000/svg" width="15.68" height="17.445" viewBox="0 0 15.68 17.445">
  <g id="user_icon" data-name="user icon" transform="translate(0.703 0.695)">
    <path id="Unión_5" data-name="Unión 5" d="M19052.9,17717.629v-2l-.012-.008v-.078l-.008-.008v-.086s-.008,0-.008-.012v-.047h-.012v-.059l-.008-.008v-.039h-.012v-.039h-.008v-.047l-.012-.012v-.027h-.008v-.047h-.012v-.027h-.008v-.039l-.008-.012v-.02h-.012v-.035h-.008v-.02l-.012-.012v-.027h-.008v-.02h-.012v-.027h-.008v-.031h-.012v-.02h-.008v-.027l-.008-.008v-.012h-.012v-.027h-.008v-.02l-.012-.008v-.02c-.008,0-.008-.012-.008-.012v-.008h-.012v-.02h-.008v-.02l-.012-.012v-.008h-.008v-.027h-.008v-.02h-.012v-.02h-.008v-.02h-.012v-.02h-.008v-.02h-.012v-.008h-.008v-.02a.011.011,0,0,1-.012-.012v-.008h-.008v-.02h-.012v-.02h-.008v-.02h-.008v-.008h-.012v-.02h-.008v-.008a.011.011,0,0,0-.012-.012l-.008-.008v-.012s0-.008-.012-.008v-.012c-.008,0-.008,0-.008-.008v-.012h-.012v-.008h-.008v-.02h-.008v-.008a.011.011,0,0,1-.012-.012v-.008l-.008-.012-.012-.008v-.012h-.008v-.008h-.012v-.012l-.008-.008v-.008h-.012v-.012h-.008v-.02h-.008v-.008h-.012v-.02h-.008v-.012h-.012v-.008h-.008v-.008a.011.011,0,0,1-.012-.012h-.008v-.02h-.012v-.008h-.008v-.012a.008.008,0,0,0-.008-.008l-.012-.012V17714h-.008V17714h-.012v-.012h-.008v-.008l-.012-.012h-.008v-.008l-.012-.012v-.008h-.008v-.012h-.012v-.008h-.008v-.012l-.008-.008h-.012v-.008l-.008-.012h-.012v-.008h-.008v-.012c0-.008-.012-.008-.012-.008l-.008-.012s0-.008-.012-.008h-.008v-.02h-.02v-.02h-.02v-.008l-.008-.012-.012-.008H19052v-.012l-.012-.008h-.008v-.012c-.008,0-.008,0-.008-.008h-.012v-.008h-.008v-.012h-.012l-.008-.008v-.012h-.02v-.008a.011.011,0,0,1-.012-.012h-.008v-.008h-.008v-.012h-.012v-.008h-.008c-.012,0-.012-.008-.012-.008l-.008-.012h-.012v-.008h-.008v-.012h-.02v-.008l-.012-.012h-.008v-.008h-.008a.011.011,0,0,0-.012-.012v-.008h-.02v-.012h-.008v-.008h-.02v-.008h-.012v-.012h-.008l-.008-.008-.012-.012c-.008,0-.008,0-.008-.008h-.012l-.008-.012h-.012v-.008h-.008l-.012-.012h-.008v-.008h-.02v-.008h-.008v-.012h-.02v-.008h-.012v-.012h-.008l-.012-.008h-.008l-.008-.012h-.012v-.008h-.02v-.012h-.008l-.012-.008h-.008l-.012-.008h-.008v-.012h-.02v-.008h-.008l-.012-.012h-.008c-.012,0-.012,0-.012-.008h-.008v-.012h-.02v-.008h-.02v-.012h-.02v-.008h-.02c0-.008,0-.008-.008-.008h-.012c0-.012,0-.012-.008-.012h-.02v-.008h-.008l-.012-.012h-.02v-.008h-.02v-.012h-.008l-.012-.008h-.027v-.012h-.008l-.012-.008h-.02l-.008-.012h-.012a.008.008,0,0,1-.008-.008h-.02l-.008-.008h-.012s-.008,0-.008-.012H19051a.008.008,0,0,0-.008-.008h-.012l-.008-.012h-.02v-.008h-.027l-.012-.012h-.02v-.008h-.035v-.012h-.031v-.008h-.039c0-.008,0-.008-.008-.008h-.02v-.012h-.047v-.008h-.027l-.012-.012h-.027v-.008h-.059v-.012h-.039v-.008h-.066v-.012h-.047V17713h-.1a.008.008,0,0,0-.008-.008h-.078v-.012h-7.59v.012h-.086v.008h-.086v.008h-.059v.012h-.055c-.012,0-.012,0-.012.008h-.035c0,.012,0,.012-.012.012h-.047v.008h-.039v.012h-.02c-.008,0-.008,0-.008.008h-.039l-.012.012h-.027v.008h-.039v.008h-.027v.012h-.039v.008h-.02l-.008.012h-.027v.008h-.02a.011.011,0,0,1-.012.012h-.008l-.012.008h-.027v.012h-.02v.008h-.027v.008h-.02v.012h-.031l-.008.008h-.008a.011.011,0,0,1-.012.012h-.02l-.008.008h-.012v.012h-.008l-.012.008h-.027v.012h-.008c0,.008,0,.008-.012.008h-.02v.012h-.008l-.012.008h-.016v.008h-.012c0,.012-.008.012-.008.012h-.02v.008h-.012l-.008.012h-.012v.008h-.02l-.008.012a.008.008,0,0,0-.008.008h-.02v.012h-.012l-.008.008h-.02v.008h-.012v.012h-.016v.008h-.012l-.008.012h-.012l-.008.008-.012.012h-.008v.008h-.02v.012h-.008l-.012.008-.008.008h-.012v.012h-.02v.008h-.008v.012h-.02v.008h-.008v.012h-.012v.008h-.02v.012h-.008v.008h-.02v.008h-.012v.012h-.008l-.012.008h-.008v.012h-.008v.008h-.012v.012h-.008c0,.008,0,.008-.012.008h-.008v.012h-.012v.008h-.008v.012h-.012a.008.008,0,0,1-.008.008h-.008v.008h-.012v.012h-.008l-.012.008v.012h-.008v.008H19041c-.008,0-.008.012-.008.012l-.012.008h-.008v.012l-.008.008h-.012v.008h-.008v.012h-.012v.008h-.008v.012h-.012a.008.008,0,0,0-.008.008v.012h-.012v.008h-.008v.012h-.008c0,.008,0,.008-.012.008s0,.008-.008.008v.012h-.012c0,.008,0,.008-.008.008v.012h-.02v.02h-.012v.008h-.008v.012h-.012v.008h-.008v.008h-.008v.012h-.012v.008l-.008.012h-.012v.008h-.008v.02h-.012v.012h-.008v.008h-.012v.012h-.008v.008a.008.008,0,0,0-.008.008l-.012.012v.008h-.008v.012h-.012v.008h-.008v.02h-.012l-.008.012v.008h-.012v.008l-.008.012v.008h-.008v.012h-.012v.008l-.008.012v.008h-.012v.012l-.008.008-.012.008v.012h-.008v.008l-.012.012a.008.008,0,0,0-.008.008v.012a.008.008,0,0,1-.008.008v.012h-.012v.008h-.008v.02h-.012v.008s0,.012-.008.012v.008h-.012v.012l-.008.008v.012h-.012v.008h-.008v.02l-.012.008v.012h-.008v.02h-.008v.008l-.012.012v.008l-.008.012v.008h-.012v.008l-.008.012v.02h-.012v.008l-.008.012v.02h-.012v.008h-.008v.02l-.008.008v.012h-.012v.027h-.008v.012s0,.008-.012.008v.008l-.008.012v.02h-.012v.008l-.008.012v.027h-.012v.012a.008.008,0,0,1-.008.008v.02h-.008v.02c0,.008-.012.008-.012.008v.02l-.008.012v.008l-.012.008v.031h-.008v.02l-.012.008v.012l-.008.008v.027h-.012v.02l-.008.012v.027h-.008v.02c0,.008,0,.008-.012.008v.039h-.008v.031h-.012v.047h-.008v.027h-.012v.027c-.008,0-.008.012-.008.012v.047h-.012v.027c0,.012,0,.012-.008.012v.059l-.012.008v.039h-.008v.074l-.008.012v.059h-.012v.133a.008.008,0,0,1-.008.008v1.953a.7.7,0,0,1-1.406,0v-1.934l.008-.008v-.137l.012-.008v-.133h.008v-.066h.012v-.07h.008v-.074h.012v-.047c.008,0,.008-.012.008-.012v-.055a.011.011,0,0,0,.012-.012v-.039h.008v-.047c0-.008,0-.008.008-.008v-.039h.012v-.047h.008v-.039h.012v-.031c.008,0,.008,0,.008-.008v-.027l.012-.012v-.027h.008v-.039l.012-.008v-.02l.008-.012v-.039h.008v-.016l.012-.012v-.027l.008-.012v-.02h.012v-.027h.008v-.027h.012v-.02l.008-.012v-.027h.012v-.02a.008.008,0,0,0,.008-.008v-.02l.008-.012v-.016l.012-.012v-.02h.008v-.02l.012-.008v-.02s0-.012.008-.012v-.008l.012-.008v-.012a.008.008,0,0,1,.008-.008v-.02l.012-.012v-.008s0-.012.008-.012v-.027h.008v-.008l.012-.012v-.02h.008v-.02l.012-.008v-.008l.008-.012v-.02h.012v-.008l.008-.012v-.008l.012-.012V17714a.008.008,0,0,1,.008-.008v-.02h.012v-.02h.008v-.02l.008-.012v-.008h.012v-.02h.008v-.02h.012v-.008l.008-.012v-.02h.012v-.008l.008-.012v-.008h.012v-.02h.008v-.02l.008-.008.012-.012v-.02l.008-.008.012-.008.008-.012v-.02h.012v-.008h.008v-.02l.012-.012.008-.008v-.02h.008v-.008h.012v-.02h.008v-.012l.012-.008v-.012l.008-.008.012-.012v-.008h.008v-.02h.012v-.008h.008v-.02h.008v-.012l.012-.008c0-.012,0-.012.008-.012v-.008h.012v-.02h.008v-.008c.012,0,.012,0,.012-.012l.008-.008v-.012l.012-.008h.008v-.02h.012v-.008h.008v-.012l.008-.008v-.012h.012v-.008l.008-.012v-.008h.012c0-.012.008-.012.008-.012v-.008l.012-.008.008-.012v-.008h.012v-.012h.008v-.02h.008v-.008h.012v-.012l.008-.008h.012v-.02h.008c0-.008,0-.008.012-.008v-.012h.008v-.008l.012-.012.008-.008v-.012c.008,0,.008,0,.008-.008h.012v-.012l.008-.008h.012v-.02h.008l.012-.008s0-.012.008-.012v-.008h.012v-.012h.008v-.008c.008,0,.008-.012.008-.012h.012V17713l.008-.008a.011.011,0,0,1,.012-.012v-.008h.008c0-.012,0-.012.012-.012l.008-.008v-.012l.012-.008h.008v-.012l.012-.008h.008v-.008l.008-.012h.012v-.008l.008-.012h.012v-.008h.008v-.02h.02v-.012l.012-.008h.008v-.012a.008.008,0,0,1,.008-.008c.012,0,.012,0,.012-.008l.008-.012h.012v-.008l.008-.012.012-.008h.008v-.012s.012,0,.012-.008h.008v-.012h.008v-.008h.012v-.008h.008v-.012h.012c0-.008,0-.008.008-.008v-.012h.02v-.008l.012-.012h.008v-.008c.008,0,.008,0,.008-.012h.012v-.008h.008l.012-.008v-.012h.008l.012-.008.008-.012h.012v-.008h.008v-.012l.012-.008h.008v-.012h.008s0-.008.012-.008l.008-.008h.012v-.012h.008c0-.008.012-.008.012-.008l.008-.012s.012,0,.012-.008h.008v-.012c.008,0,.008,0,.008-.008h.012v-.012h.008l.012-.008h.008v-.012h.012a.008.008,0,0,1,.008-.008h.012v-.008h.008v-.012h.008l.012-.008c0-.012.008-.012.008-.012h.012v-.008h.008l.012-.012.008-.008h.012s0-.012.008-.012a.008.008,0,0,1,.008-.008h.012v-.008h.008l.012-.012c.008,0,.008,0,.008-.008h.012l.008-.012.012-.008h.008c0-.012,0-.012.012-.012l.008-.008h.008l.012-.012.008-.008h.012l.008-.008h.012v-.012h.008c0-.008.012-.008.012-.008h.008v-.012h.008l.012-.008h.008c0-.012,0-.012.012-.012a.008.008,0,0,1,.008-.008h.012l.008-.012h.012v-.008h.008l.008-.008h.012v-.012h.02v-.008h.008l.012-.012h.02v-.008h.008v-.012h.02v-.008h.008l.012-.012h.008c0-.008.012-.008.012-.008h.008l.012-.012h.008v-.008h.02a.008.008,0,0,1,.008-.008h.012v-.012h.02l.008-.008h.012l.008-.012.012-.008h.008l.008-.012h.012l.008-.008h.02V17712h.02V17712h.02l.008-.008h.012v-.012h.02a.008.008,0,0,1,.008-.008h.02v-.012h.02v-.008h.02v-.012h.02v-.008h.02l.008-.012h.012a.008.008,0,0,0,.008-.008h.02l.008-.008h.012s0-.012.008-.012h.02l.012-.008h.008l.012-.012h.016l.012-.008h.008a.011.011,0,0,0,.012-.012h.008l.012-.008h.027l.008-.012h.012a.008.008,0,0,1,.008-.008h.02l.012-.008h.02l.008-.012h.027l.012-.008h.008v-.012h.039v-.008h.02l.008-.012h.02s0-.008.012-.008h.027l.012-.012h.016l.012-.008h.027l.012-.012h.027v-.008h.039l.008-.008h.02v-.012h.047l.012-.008h.027v-.012h.031l.008-.008h.047a.011.011,0,0,1,.012-.012h.027a.008.008,0,0,1,.008-.008h.059v-.012h.039v-.008h.066l.012-.008h.055v-.012h.078l.008-.008h.066a.011.011,0,0,1,.012-.012h.125l.008-.008h.133l.012-.012h7.438v.012h.152v.008h.125s.008,0,.008.012h.066l.012.008h.074l.012.012h.047v.008h.066c.012,0,.012.008.012.008h.035l.012.012h.059l.008.008h.027l.012.012h.039l.008.008h.02c.008,0,.008,0,.008.012h.031l.008.008h.039l.008.012h.031v.008h.039l.008.008h.02v.012h.047v.008h.02a.011.011,0,0,1,.012.012h.027l.008.008h.02v.012h.02c.012,0,.012,0,.012.008h.027s.008,0,.008.012h.02s0,.008.012.008h.02l.008.012h.02v.008h.027l.012.008h.02v.012h.027v.008h.02v.012h.027v.008h.031v.012h.008l.008.008h.02l.012.012h.02v.008h.02a.008.008,0,0,1,.008.008h.008l.012.012h.02c0,.008,0,.008.008.008h.012l.008.012h.012a.008.008,0,0,0,.008.008h.02v.012h.008l.012.008h.02l.008.012h.012v.008h.02a.008.008,0,0,1,.008.008h.008l.012.012h.02v.008h.008v.012h.02l.012.008h.008s0,.012.008.012.012,0,.012.008h.02l.008.012h.012v.008h.02l.008.008.008.012h.012l.008.008h.012v.012h.02l.008.008.012.012h.008a.008.008,0,0,0,.008.008h.012v.012h.02v.008h.02v.012h.008v.008h.02l.012.008.008.012h.02v.008h.008v.012h.012l.008.008h.012v.012h.008l.012.008h.008s0,.012.008.012.012.008.012.008h.008l.012.008h.008v.012h.02v.008h.012v.012h.008v.008h.02v.012c.008,0,.008,0,.008.008h.012l.008.012.012.008h.02v.008h.008v.012h.02v.008l.008.012h.012l.008.008.012.012h.008v.008h.012c0,.012.008.012.008.012s.012.008.012.008h.008v.008h.008l.012.012v.008h.008l.012.012h.008v.008h.012l.008.012v.008h.02v.012h.008v.008h.012c0,.012,0,.012.008.012l.012.008h.008v.008c.012,0,.012,0,.012.012h.008l.012.008.008.012.008.008.012.012.008.008h.012v.012h.008v.008h.012l.008.008v.012h.02v.008l.008.012h.012v.008l.008.012h.012v.008h.008c0,.012,0,.012.012.012v.008h.008s0,.008.012.008.008.012.008.012v.008h.012l.008.012.008.008.012.012v.008h.02v.012a.008.008,0,0,1,.008.008l.012.008c.008,0,.008,0,.008.012l.012.008h.008v.012l.008.008.012.012v.008h.008l.012.012.008.008.012.012.008.008v.008h.012l.008.012v.008h.008v.012c.012,0,.012,0,.012.008h.008v.012s.012,0,.012.008l.008.012.012.008h.008v.02h.012l.008.008v.012h.008l.012.008v.012l.008.008c.012,0,.012,0,.012.012v.008h.008s0,.008.012.008v.012h.008v.008h.012v.012h.008v.02h.012v.008h.008v.012h.008v.008h.012v.008l.008.012.012.008v.012h.008v.008a.011.011,0,0,1,.012.012l.008.008v.012l.012.008h.008v.02h.008v.008h.012v.012l.008.008.012.012v.008c.008,0,.008,0,.008.012l.012.008c.008,0,.008.012.008.012v.008h.012v.008l.008.012v.008h.008v.012h.012v.02h.008v.008h.012v.02h.008v.008h.012v.012h.008v.02h.012v.008c.008,0,.008.012.008.012v.008h.008v.012l.012.008v.02h.008l.012.008v.012l.008.008c0,.012,0,.012.012.012v.008l.008.012v.008c.012,0,.012,0,.012.012v.008h.008v.02h.012v.008h.008v.02c.008,0,.008,0,.008.012v.008h.012v.02h.008v.008h.012v.012l.008.008v.02h.012v.012h.008v.027h.012v.008l.008.012v.008h.008v.012l.012.008v.02l.008.012.012.008v.02h.008v.02h.012v.008l.008.012v.02l.012.008.008.012v.016c.008,0,.008,0,.008.012v.008h.012v.02l.008.012v.008h.012v.027h.008v.02h.012v.012l.008.008v.02l.012.012v.008l.008.008v.02c.008,0,.008,0,.008.012v.008l.012.012v.02l.008.008v.008l.012.012v.02c.008,0,.008,0,.008.008v.02h.012v.02h.008v.02l.012.008v.02l.008.012v.027h.012v.02h.008v.027l.008.012v.02l.012.008v.027l.008.012v.008l.012.012v.02l.008.008v.027l.012.012v.02h.008v.039c0,.008,0,.008.012.008v.02h.008v.047h.008v.031l.012.008v.039h.008v.039h.012v.047h.008v.039l.012.008v.027l.008.012v.047c0,.012,0,.012.012.012v.035l.008.012v.066h.008v.047l.012.012v.086h.008v.066l.012.008v.125a.008.008,0,0,0,.008.008v.145l.012.012v1.922a.7.7,0,0,1-1.406,0Zm-6.3-8.215h-.277v-.008h-.152v-.012h-.1l-.008-.008h-.105v-.012h-.059v-.008h-.074c-.012,0-.012-.008-.012-.008h-.047v-.012h-.066v-.008h-.039l-.008-.012h-.047l-.012-.008h-.027l-.012-.012h-.027l-.008-.008h-.039l-.012-.012h-.027v-.008h-.039l-.008-.012h-.031c0-.008,0-.008-.008-.008h-.027v-.008h-.031l-.008-.012h-.031l-.008-.008h-.02v-.012h-.02l-.008-.008h-.031l-.008-.012h-.02v-.008h-.039l-.008-.012h-.012l-.008-.008h-.02a.008.008,0,0,1-.008-.008h-.012l-.008-.012h-.039v-.008h-.012c-.008,0-.008-.012-.008-.012h-.008l-.012-.008h-.027v-.012h-.02c0-.008,0-.008-.012-.008h-.016l-.012-.012h-.008c0-.008-.012-.008-.012-.008h-.02l-.008-.008h-.012v-.012h-.027v-.008h-.02v-.012h-.02l-.008-.008h-.012c-.008,0-.008,0-.008-.012h-.012l-.008-.008h-.02v-.012h-.008c-.012,0-.012,0-.012-.008h-.02l-.008-.008h-.012l-.008-.012h-.008l-.012-.008h-.008l-.012-.012h-.02v-.008h-.008l-.012-.012h-.008v-.008h-.02l-.008-.012h-.012v-.008h-.02l-.008-.012h-.012v-.008h-.016c0-.008,0-.008-.012-.008s0-.012-.008-.012h-.012l-.008-.008h-.012l-.008-.012h-.012v-.008h-.008c-.012,0-.012,0-.012-.012h-.008l-.008-.008h-.012v-.012h-.02l-.008-.008h-.012v-.008h-.008v-.012h-.02c0-.008,0-.008-.008-.008a.011.011,0,0,1-.012-.012.008.008,0,0,1-.008-.008h-.02v-.012h-.012a.008.008,0,0,0-.008-.008h-.012v-.012h-.008v-.008h-.02l-.008-.008-.012-.012h-.008s0-.008-.012-.008-.008,0-.008-.012h-.012l-.008-.008v-.012h-.02v-.008h-.008l-.012-.012-.008-.008h-.012a.008.008,0,0,1-.008-.008l-.012-.012h-.008l-.012-.008-.008-.012h-.008v-.008h-.012v-.012h-.008s0-.008-.012-.008h-.008v-.012h-.012l-.008-.008a.011.011,0,0,1-.012-.012h-.008v-.008h-.008l-.012-.008-.008-.012h-.012v-.008h-.008c0-.012,0-.012-.012-.012a.008.008,0,0,0-.008-.008h-.012v-.012c-.008,0-.008,0-.008-.008h-.008v-.012h-.012v-.008h-.02v-.008c-.008,0-.008-.012-.008-.012h-.012l-.008-.008-.012-.012v-.008h-.008l-.008-.012-.012-.008h-.008c0-.012,0-.012-.012-.012v-.008h-.008l-.012-.008-.008-.012h-.012v-.008h-.008v-.012h-.012v-.008h-.008v-.012h-.008v-.008h-.012v-.012h-.008v-.008h-.012l-.008-.008a.011.011,0,0,0-.012-.012.008.008,0,0,1-.008-.008l-.012-.012c-.008,0-.008,0-.008-.008l-.008-.012-.012-.008-.008-.012s-.012,0-.012-.008l-.008-.012-.012-.008h-.008v-.008h-.012v-.012h-.008v-.008l-.008-.012-.012-.008-.008-.012-.012-.008-.008-.012-.012-.008-.008-.008-.012-.012-.008-.008v-.012h-.008l-.012-.008v-.012h-.008v-.008h-.012v-.012h-.008V17708h-.012v-.008h-.008v-.012l-.012-.008h-.008v-.012l-.012-.008-.008-.012v-.008c-.008,0-.008,0-.008-.012h-.012v-.008a.008.008,0,0,1-.008-.008l-.012-.012c-.008,0-.008,0-.008-.008v-.012h-.012a.008.008,0,0,0-.008-.008v-.012l-.012-.008h-.008v-.02h-.008v-.012h-.012v-.008l-.008-.008-.012-.012-.008-.008v-.012h-.012v-.008h-.008v-.012c0-.008,0-.008-.012-.008v-.012h-.008v-.008h-.008v-.008l-.012-.012v-.008h-.008v-.012h-.012v-.008l-.008-.012v-.008h-.012v-.012H19043v-.008l-.012-.008v-.012h-.008v-.008l-.008-.012-.012-.008v-.012a.008.008,0,0,0-.008-.008l-.012-.012v-.008h-.008v-.02h-.012a.008.008,0,0,0-.008-.008v-.012l-.012-.008-.008-.012v-.008a.011.011,0,0,0-.012-.012v-.008h-.008v-.02h-.008v-.008h-.012v-.012l-.008-.008v-.02h-.012c0-.012-.008-.012-.008-.012v-.008l-.012-.012v-.008h-.008v-.02h-.012v-.008l-.008-.012v-.008l-.008-.012v-.008h-.012v-.02h-.008v-.008l-.012-.012v-.02h-.008l-.012-.008v-.02h-.008v-.012l-.012-.008v-.008h-.008v-.031h-.008v-.008h-.012v-.02h-.008v-.02h-.012v-.02h-.008v-.02h-.012v-.02h-.008v-.02h-.012v-.008c0-.012-.008-.012-.008-.012v-.016h-.008v-.012l-.012-.008v-.02l-.008-.012v-.008a.011.011,0,0,1-.012-.012v-.016h-.008v-.012l-.012-.008v-.012l-.008-.008v-.02l-.012-.012v-.008h-.008v-.027h-.012v-.02h-.008v-.031h-.008v-.02l-.012-.008v-.02h-.008v-.02l-.012-.008v-.02h-.008v-.027h-.012v-.02h-.008v-.031c0-.008,0-.008-.012-.008v-.02h-.008v-.027h-.008v-.02l-.012-.012v-.027l-.008-.008v-.02l-.012-.012v-.027l-.008-.012v-.008l-.012-.012v-.016l-.008-.012v-.039h-.012v-.027h-.008v-.039l-.008-.008v-.02a.011.011,0,0,1-.012-.012v-.035l-.008-.012v-.027h-.012v-.047c-.008,0-.008,0-.008-.012v-.027h-.012v-.039h-.008v-.059l-.012-.008v-.039h-.008v-.066h-.008v-.047a.011.011,0,0,1-.012-.012v-.074l-.008-.012v-.055h-.012v-.117c0-.008,0-.008-.008-.008v-.105l-.012-.012v-.477h.012v-.113h.008v-.125h.012v-.059h.008v-.086h.012v-.047l.008-.012v-.066h.008v-.047h.012v-.047c0-.012,0-.012.008-.012v-.027c0-.008.012-.008.012-.008v-.031l.008-.008v-.039l.012-.008v-.031l.008-.008v-.039h.012v-.027l.008-.012v-.027l.008-.012v-.027h.012v-.039l.008-.008v-.02l.012-.012v-.008l.008-.008v-.039h.012v-.02l.008-.012v-.027h.012v-.02a.008.008,0,0,1,.008-.008v-.02l.008-.012v-.016l.012-.012v-.02l.008-.008v-.02h.012v-.027l.008-.012v-.008a.011.011,0,0,0,.012-.012v-.008h.008v-.039h.012v-.012l.008-.008v-.02a.008.008,0,0,0,.008-.008v-.012l.012-.008v-.02h.008v-.02l.012-.008v-.012l.008-.008v-.02h.012v-.02h.008v-.02h.012v-.02h.008v-.02c0-.008.012-.008.012-.008v-.012l.008-.008v-.02h.008v-.02h.012v-.02h.008v-.02h.012v-.008l.008-.012v-.008l.012-.012v-.008a.008.008,0,0,0,.008-.008v-.012l.012-.008v-.012h.008v-.027h.008v-.012h.012v-.016h.008v-.012l.012-.008v-.012h.008v-.02l.012-.008v-.012h.008v-.016h.012v-.012l.008-.008v-.012h.008v-.008c0-.012,0-.012.012-.012v-.008c0-.012.008-.012.008-.012v-.008h.012v-.02h.008v-.008a.011.011,0,0,0,.012-.012l.008-.008v-.012l.012-.008v-.012h.008v-.02h.008v-.008h.012v-.02h.008v-.008h.012v-.02h.008v-.012c.012,0,.012-.008.012-.008s.008,0,.008-.012v-.008h.012v-.008l.008-.012v-.008h.012v-.012h.008v-.008l.008-.012v-.008h.012v-.012c0-.008,0-.008.008-.008s0-.008.012-.008v-.012h.008v-.008l.012-.012.008-.008v-.012c0-.008,0-.008.012-.008l.008-.012v-.008h.008v-.008h.012v-.02h.008v-.012h.012a.008.008,0,0,1,.008-.008v-.012l.012-.008.008-.012v-.008h.012v-.012c.008,0,.008,0,.008-.008h.008v-.008l.012-.012v-.008h.008v-.012h.012v-.008c.008,0,.008-.012.008-.012l.012-.008h.008v-.02h.012a.008.008,0,0,1,.008-.008v-.012h.008c0-.008,0-.008.012-.008v-.012h.008v-.008l.012-.012v-.008h.008l.012-.012.008-.008v-.008h.012v-.012h.008v-.008h.012v-.012h.008v-.008l.008-.012h.012v-.008l.008-.012.012-.008h.008v-.008l.012-.012.008-.008.012-.012.008-.008.008-.012.012-.008v-.012h.008l.012-.008h.008v-.012l.012-.008h.008v-.02h.02v-.008l.008-.012h.012v-.008c.008,0,.008-.012.008-.012h.012v-.008c.008,0,.008,0,.008-.012h.012V17702h.008l.012-.008.008-.012.008-.008.012-.012h.008v-.008h.012v-.012l.008-.008h.012v-.012h.008v-.008h.012l.008-.008v-.012h.02v-.008l.008-.012h.012v-.008h.008c0-.012,0-.012.012-.012v-.008h.008a.011.011,0,0,0,.012-.012c.008,0,.008,0,.008-.008h.012l.008-.008v-.012h.02v-.008h.008v-.012h.02v-.008l.012-.012.008-.008.012-.012h.008v-.008h.008c.012,0,.012,0,.012-.012a.008.008,0,0,0,.008-.008h.012v-.008h.008l.012-.012h.008v-.008h.012l.008-.012.008-.008h.012v-.012h.008v-.008h.012c.008,0,.008,0,.008-.012h.012l.008-.008h.012c0-.008,0-.008.008-.008s0-.012.012-.012h.008v-.008h.008l.012-.012c.008,0,.008,0,.008-.008h.012l.008-.012.012-.008h.008l.012-.012a.008.008,0,0,0,.008-.008h.008l.012-.008h.008v-.012h.012l.008-.008h.012v-.012h.02l.008-.008.008-.012h.012v-.008h.02v-.012h.008l.012-.008h.008v-.008h.02v-.012h.008c.012,0,.012,0,.012-.008h.008l.012-.012h.008l.012-.008h.008v-.012h.012l.008-.008h.012l.008-.012.008-.008h.02l.012-.012h.008v-.008h.02c0-.008.012-.008.012-.008h.008v-.012h.02v-.008h.02v-.012h.008l.012-.008h.02c0-.012.008-.012.008-.012a.008.008,0,0,0,.008-.008h.02v-.012h.012l.008-.008h.02l.012-.008h.008l.008-.012h.02l.012-.008.008-.012h.031v-.008h.008l.012-.012h.008l.008-.008h.031v-.012h.008l.012-.008h.02a.008.008,0,0,0,.008-.008h.02v-.012h.027v-.008h.02v-.012h.027l.012-.008h.008l.012-.012h.02v-.008h.027v-.012h.02l.008-.008h.031v-.012h.02c.008,0,.008,0,.008-.008h.027l.012-.008h.02s0-.012.008-.012h.031a.008.008,0,0,1,.008-.008h.008c.012,0,.012,0,.012-.012h.027v-.008h.039v-.012h.027c0-.008.012-.008.012-.008h.039V17701h.027c0-.008,0-.008.008-.008h.039v-.008h.039v-.012h.047l.012-.008h.027l.008-.012h.031l.008-.008h.059l.008-.012h.039v-.008h.066l.012-.012h.047a.008.008,0,0,1,.008-.008h.1v-.008h.066l.008-.012h.156v-.008h.477v.008h.164c0,.012,0,.012.008.012h.066v.008h.1v.008h.055v.012h.066c.012,0,.012.008.012.008h.039l.008.012h.059v.008h.039l.008.012h.027l.012.008h.039l.008.012h.027l.012.008h.039a.008.008,0,0,1,.008.008h.02l.008.012h.039s0,.008.012.008h.02l.008.012h.027l.012.008h.027v.012h.02c0,.008.012.008.012.008h.027s0,.012.008.012h.02v.008h.039v.008h.02v.012h.039v.008h.02l.008.012h.02a.008.008,0,0,1,.008.008h.012l.008.012h.02l.012.008h.02c.008,0,.008.012.008.012h.008l.012.008h.027v.012h.012l.008.008h.02c.008,0,.008,0,.008.008h.012l.008.012h.031v.008h.008l.012.012h.008l.008.008h.02l.012.012h.008v.008h.031c0,.012,0,.012.008.012a.008.008,0,0,1,.008.008h.02l.012.008h.008a.011.011,0,0,0,.012.012h.02v.008h.008v.012h.02a.008.008,0,0,1,.008.008h.012l.008.012h.012a.008.008,0,0,0,.008.008h.02v.012h.012v.008h.016l.012.008h.008l.012.012h.008v.008h.02v.012h.02l.008.008.012.012h.008c0,.008.012.008.012.008h.008v.012h.02v.008h.02v.012h.008v.008h.02l.012.008.008.012h.02v.008h.012v.012h.008v.008h.02l.008.012h.012v.008h.008a.011.011,0,0,1,.012.012h.008v.008h.02v.008h.012s0,.012.008.012l.008.008h.012v.012h.008l.012.008h.008l.012.012.008.008h.012l.008.012.008.008h.012v.008h.008l.012.012c.008,0,.008,0,.008.008h.02v.012h.012a.008.008,0,0,0,.008.008c0,.012,0,.012.008.012l.012.008h.008l.012.012v.008h.02v.008h.008v.012h.02v.008l.012.012h.008v.008h.008v.012h.012v.008h.008c.012,0,.012,0,.012.012h.008v.008h.012l.008.012.012.008h.008v.008h.008v.012h.012v.008h.008l.012.012v.008h.02v.012h.008v.008h.012v.012h.008v.008h.008c.012,0,.012.008.012.008s.008.012.008.012h.012v.008s.008,0,.008.012.012.008.012.008h.008v.012h.012l.008.008v.012h.008l.012.008.008.008.012.012a.008.008,0,0,1,.008.008h.012v.012h.008v.008h.012v.012h.008v.008c.012,0,.012,0,.012.012h.008v.008h.008l.012.008v.012h.008v.008h.012l.008.012v.008h.012l.008.012v.008h.012v.012h.008v.008h.008v.012h.012v.008h.008v.008h.012v.012l.008.008.012.012h.008v.008l.012.012.008.008.008.012.012.008v.008h.008l.012.012v.008h.008v.012s.012,0,.012.008h.008v.012l.012.008h.008v.02h.008l.012.008v.012h.008v.008h.012v.012a.008.008,0,0,1,.008.008l.012.012v.008h.008v.012l.012.008h.008v.008l.012.012.008.008v.012h.008v.008h.012v.02h.008v.012h.012v.008h.008v.012l.012.008a.008.008,0,0,1,.008.008v.012h.012v.008l.008.012.008.008.012.012v.008h.008v.02h.012v.008c.008,0,.008.012.008.012s.012.008.012.008v.012h.008v.008l.012.012v.008h.008v.012l.008.008c.012,0,.012.008.012.008v.012h.008v.008l.012.012v.008h.008v.02h.012v.012h.008v.008l.012.008v.012h.008v.008l.008.012v.008h.012v.02h.008v.012l.012.008v.012l.008.008.012.008v.012h.008v.02l.012.008.008.012v.008h.012v.02h.008v.02h.008v.008l.012.012v.008l.008.012v.008h.012v.012l.008.008v.02h.012v.008h.008v.02l.012.012v.008h.008v.02c.008,0,.008,0,.008.008v.012h.012v.02h.008v.02l.012.008v.012l.008.008.012.012v.016h.008v.02a.011.011,0,0,1,.012.012v.008h.008v.02l.008.012v.008c.012,0,.012.008.012.008v.02h.008v.02h.012v.031h.008v.008l.012.008v.012l.008.008v.02l.012.012v.008l.008.012v.027h.008v.008l.012.012v.027h.008v.012l.012.008v.027l.008.012v.008a.011.011,0,0,1,.012.012v.008l.008.012v.027h.012v.02h.008v.039h.012v.02l.008.008v.02l.008.008v.02l.012.012v.027l.008.008v.02h.012v.031a.008.008,0,0,1,.008.008v.031c0,.008.012.008.012.008v.02l.008.008v.039h.012v.027l.008.012v.047h.008v.02l.012.008v.051l.008.008v.027l.012.012v.047s.008,0,.008.012v.035h.012v.039c.008,0,.008.012.008.012v.066h.012v.047l.008.008v.086l.008.012v.066h.012v.125a.008.008,0,0,0,.008.008v.145h.012v.3l-.012.008v.145s-.008,0-.008.012v.133h-.012v.066h-.008v.086l-.008.008v.051c-.012,0-.012,0-.012.008v.066h-.008v.039c-.012,0-.012,0-.012.008v.039h-.008v.059h-.012v.039h-.008v.047h-.012v.039h-.008v.047h-.008v.027l-.012.012v.039h-.008v.016a.011.011,0,0,1-.012.012v.039l-.008.008v.02h-.012v.02l-.008.008v.031l-.012.008v.02h-.008v.039h-.008v.02l-.012.008v.031h-.008v.016c-.012,0-.012,0-.012.012v.027h-.008v.02h-.012v.02h-.008v.027l-.012.012v.008l-.008.012v.02l-.012.008v.02h-.008v.02l-.008.008v.02h-.012v.02l-.008.012v.008c-.012,0-.012.008-.012.008v.012l-.008.008v.02h-.012v.02h-.008v.02l-.012.008v.012l-.008.008v.02h-.008v.02h-.012v.02a.008.008,0,0,0-.008.008v.012h-.012v.02h-.008v.02c-.012,0-.012.008-.012.008v.012h-.008v.016h-.012v.02h-.008v.02l-.008.012v.008h-.012v.02h-.008v.012l-.012.008v.008l-.008.012-.012.008v.02h-.008v.02h-.012v.012l-.008.008v.008h-.008v.012c0,.008-.012.008-.012.008v.02h-.008v.012c-.012,0-.012.008-.012.008v.012l-.008.008-.012.008v.012h-.008v.02h-.012v.008h-.008v.02l-.012.012-.008.008v.008s-.008,0-.008.012-.012,0-.012.008v.012a.008.008,0,0,0-.008.008v.012h-.012v.008h-.008v.02H19050l-.008.012v.008s0,.008-.012.008v.012h-.008v.02h-.008v.008h-.012v.02h-.008v.012h-.012v.008h-.008v.008l-.012.012-.008.008v.012l-.012.008-.008.012v.008h-.008v.012c-.012,0-.012.008-.012.008v.008h-.008v.012h-.012v.008l-.008.012c-.012,0-.012.008-.012.008l-.008.012v.008h-.012v.012h-.008v.008l-.008.008v.012h-.012v.008c-.008,0-.008,0-.008.012h-.012v.008l-.008.012v.008h-.012s0,.012-.008.012v.008h-.012v.012l-.008.008-.012.008-.008.012a.008.008,0,0,1-.008.008v.012h-.012v.008l-.008.012h-.012v.008h-.008v.012l-.012.008-.008.008-.012.012-.008.008v.012h-.008l-.012.008v.012h-.008v.008h-.012v.012h-.008v.008h-.012v.008h-.008v.012h-.012v.008h-.008v.012l-.008.008h-.012v.012l-.008.008-.012.012-.008.008-.012.008h-.008v.012h-.012v.008l-.008.012h-.008v.008h-.012v.012l-.008.008h-.012v.012h-.008v.008h-.012v.012h-.008v.008h-.012l-.008.008v.012h-.012l-.008.008-.008.012-.012.008-.008.012-.012.008h-.008v.012h-.012c0,.008,0,.008-.008.008v.008h-.012l-.008.012h-.008v.008h-.012v.012h-.008v.008h-.012l-.008.012v.008h-.02v.012c-.012,0-.012.008-.012.008h-.008l-.008.008-.012.012-.008.008-.012.012h-.008v.008h-.012l-.008.012s0,.008-.012.008h-.008v.012h-.008v.008h-.012a.008.008,0,0,1-.008.008h-.012v.012h-.008l-.012.008-.008.012H19049c0,.008,0,.008-.008.008s0,.012-.012.012a.008.008,0,0,1-.008.008h-.008v.012h-.012v.008h-.02v.012h-.008v.008h-.02v.008l-.012.012h-.008a.008.008,0,0,0-.008.008c-.012,0-.012,0-.012.012s-.008,0-.008.008h-.02v.012h-.012c0,.008,0,.008-.008.008h-.012v.012h-.008v.008h-.02l-.008.008-.012.012h-.008s0,.008-.012.008-.008,0-.008.012h-.02v.008h-.008v.012h-.012v.008h-.02c0,.012,0,.012-.008.012s-.012.008-.012.008h-.008l-.012.008h-.008v.012h-.02v.008h-.02v.012h-.008l-.012.008h-.008c0,.012,0,.012-.012.012a.008.008,0,0,0-.008.008h-.02v.012h-.008l-.012.008h-.008c-.012,0-.012.008-.012.008s-.008,0-.008.012h-.02l-.012.008h-.008v.012h-.02l-.008.008h-.012v.012h-.008c-.012,0-.012.008-.012.008h-.02s0,.012-.008.012h-.008v.008h-.02l-.012.012-.008.008h-.02l-.012.008h-.008v.012h-.027l-.012.008h-.008v.012h-.02v.008h-.02l-.012.012h-.008a.008.008,0,0,1-.008.008h-.012c-.008,0-.008,0-.008.012h-.02c0,.008-.012.008-.012.008h-.02v.008h-.008l-.008.012h-.031v.008h-.02l-.008.012h-.02v.008h-.02l-.008.012h-.012l-.008.008h-.031v.012h-.02a.008.008,0,0,0-.008.008h-.02l-.008.008h-.02l-.012.012h-.027l-.008.008h-.02v.012h-.039v.008h-.02l-.008.012h-.02l-.012.008h-.027v.012h-.02l-.008.008h-.039s-.012,0-.012.008h-.027v.012h-.039l-.008.008h-.031v.012h-.047v.008h-.039l-.008.012h-.02a.008.008,0,0,0-.008.008h-.059v.012h-.039a.008.008,0,0,1-.008.008h-.059l-.012.012h-.035c-.012,0-.012.008-.012.008h-.066c-.008,0-.008,0-.008.008h-.059l-.008.012h-.105l-.012.008h-.086c0,.012-.008.012-.008.012h-.145l-.008.008Zm-3-4.348v.152a.008.008,0,0,0,.008.008v.191h.008v.066a.011.011,0,0,1,.012.012v.074h.008v.051s0,.008.012.008v.059l.008.008v.027l.012.012v.027h.008v.059h.012v.02c0,.008,0,.008.008.008v.039l.012.012v.016l.008.012v.039h.008v.02l.012.008v.027l.008.012v.02h.012v.02a.008.008,0,0,1,.008.008v.02c0,.008,0,.008.012.008v.012c0,.008,0,.008.008.008v.031l.012.008v.012a.008.008,0,0,0,.008.008v.02a.008.008,0,0,1,.008.008v.02h.012v.02l.008.012v.008h.012v.02h.008v.027h.012v.02h.008v.02l.012.008v.012h.008v.02a.008.008,0,0,0,.008.008v.012c0,.008.012.008.012.008v.02h.008v.012c0,.008.012.008.012.008v.02h.008v.008h.012v.02h.008v.02h.012v.012c0,.008,0,.008.008.008v.02h.008v.008h.012v.02h.008v.02h.012v.02h.008v.008h.012v.012h.008v.02h.012v.008l.008.012v.008a.011.011,0,0,1,.012.012v.008h.008v.02h.008c0,.008,0,.008.012.008v.012l.008.008v.012h.012v.008h.008v.02h.012v.012h.008v.008h.012v.008c0,.012,0,.012.008.012v.008c.008,0,.008,0,.008.012v.008h.012v.012h.008v.008h.012v.012c0,.008,0,.008.008.008l.012.008v.012h.008v.008h.012v.012l.008.008v.012h.008v.008h.012v.012h.008v.008h.012v.02h.02v.008s0,.012.008.012,0,.008.012.008v.012h.008v.008h.008v.012h.012v.008h.008v.008a.011.011,0,0,1,.012.012l.008.008.012.012h.008v.008l.012.012a.008.008,0,0,0,.008.008.011.011,0,0,0,.012.012v.008h.008s0,.012.008.012v.008h.012v.008h.008a.011.011,0,0,0,.012.012h.008v.008l.012.012.008.008h.012v.012a.008.008,0,0,1,.008.008h.008v.012h.012v.008h.008v.008h.012v.012h.008l.012.008c.008,0,.008.012.008.012v.008h.02v.012a.008.008,0,0,1,.008.008h.012v.012h.008v.008h.012l.008.008a.011.011,0,0,1,.012.012h.008v.008h.012v.012h.008a.008.008,0,0,1,.008.008h.012v.012a.008.008,0,0,1,.008.008h.012c0,.012.008.012.008.012l.012.008h.008v.008h.012s0,.012.008.012h.012c0,.008,0,.008.008.008s.008.012.008.012h.012v.008c.008,0,.008,0,.008.012h.012l.008.008c.012,0,.012,0,.012.012h.008c0,.008,0,.008.012.008h.008v.012h.008c0,.008.012.008.012.008s.008,0,.008.008h.012l.008.012h.012l.008.008a.011.011,0,0,1,.012.012h.008c0,.008,0,.008.008.008h.012v.012h.008l.012.008h.008l.012.012c.008,0,.008,0,.008.008h.02v.008h.008a.011.011,0,0,1,.012.012h.02v.008c.008,0,.008,0,.008.012h.012c.008,0,.008,0,.008.008h.02v.012h.012a.008.008,0,0,1,.008.008h.02v.012h.008c.012,0,.012.008.012.008h.02l.008.008a.011.011,0,0,1,.012.012h.016s.012,0,.012.008h.008v.012h.031a.008.008,0,0,0,.008.008h.012c0,.012,0,.012.008.012a.008.008,0,0,1,.008.008h.031c0,.012,0,.012.008.012h.012c0,.008,0,.008.008.008h.012c.008,0,.008,0,.008.008h.02v.012h.027c0,.008.012.008.012.008h.008l.012.012h.02c.008,0,.008,0,.008.008h.02s0,.012.008.012h.02v.008h.031c.008,0,.008.012.008.012h.02v.008h.039l.008.012h.02a.008.008,0,0,0,.008.008h.031a.008.008,0,0,1,.008.008h.031l.008.012h.039a.008.008,0,0,0,.008.008h.031c0,.012.008.012.008.012h.02c.008,0,.008.008.02.008h.047l.012.012h.035l.012.008h.066c.008.012.008.012.02.012h.047a.008.008,0,0,1,.008.008h.137a.008.008,0,0,1,.008.008h.324c.012,0,.012-.008.012-.008h.133l.012-.008h.066c0-.012,0-.012.008-.012h.066s0-.008.012-.008h.027c.012,0,.012,0,.012-.012h.055l.012-.008h.027c0-.012.008-.012.008-.012h.031a.008.008,0,0,1,.008-.008h.039c0-.012.008-.012.008-.012h.02s.012,0,.012-.008h.027c.012,0,.012,0,.012-.008h.027c0-.012,0-.012.008-.012h.02c.012,0,.012,0,.02-.008h.012c.008,0,.008,0,.008-.012h.039v-.008h.02l.008-.012h.012a.008.008,0,0,0,.008-.008h.02c.008,0,.008,0,.008-.012h.02c0-.008.012-.008.012-.008h.027v-.012h.012a.008.008,0,0,0,.008-.008h.02l.008-.008h.012l.008-.012h.02l.012-.008h.008l.012-.012h.008l.008-.008h.012c.008,0,.008-.012.02-.012h.008v-.008h.02l.012-.012h.008v-.008h.02l.008-.008h.012l.008-.012h.012c.008,0,.008,0,.008-.008h.012l.008-.012h.008c.012,0,.012-.008.012-.008h.008a.011.011,0,0,1,.012-.012.008.008,0,0,0,.008-.008h.02c0-.012,0-.012.012-.012l.008-.008h.008c.012,0,.012-.008.012-.008h.008a.011.011,0,0,1,.012-.012.008.008,0,0,0,.008-.008h.012s.008,0,.008-.012h.012l.008-.008a.011.011,0,0,0,.012-.012h.008v-.008h.02c0-.012,0-.012.008-.012l.012-.008h.008c0-.008.012-.008.012-.008s.008,0,.008-.012h.012l.008-.008c0-.012.008-.012.008-.012h.012v-.008h.008l.012-.012c.008,0,.008,0,.008-.008h.02v-.012l.012-.008h.008v-.012h.008c0-.008.012-.008.012-.008a.008.008,0,0,0,.008-.008h.012v-.012h.02v-.008h.008v-.012h.012v-.008h.008c0-.012,0-.012.008-.012l.012-.008h.008c0-.012,0-.012.012-.012v-.008h.008c0-.008.012-.008.012-.008h.008v-.012h.012v-.008h.008v-.012h.012l.008-.008v-.012h.008v-.008h.012s0-.012.008-.012l.012-.008h.008v-.008a.011.011,0,0,0,.012-.012h.008v-.008c.012,0,.012,0,.012-.012h.008v-.008h.008v-.012h.012v-.008h.008v-.012h.012v-.008h.008c0-.008,0-.008.012-.008v-.012h.008v-.008h.012v-.012h.008v-.008h.008v-.012h.012v-.008h.008v-.012h.012v-.008h.008v-.012h.012v-.008h.008v-.008l.012-.012h.008v-.02h.008v-.008h.012v-.012h.008v-.008h.012V17707l.008-.008c.012,0,.012,0,.012-.008s.008-.012.008-.012l.012-.008c0-.012,0-.012.008-.012v-.008c.012,0,.012,0,.012-.012h.008v-.02h.008v-.008h.012v-.008l.008-.012c.012,0,.012-.008.012-.008v-.012h.008v-.008h.012v-.012l.008-.008v-.012h.012v-.008h.008v-.02h.008v-.008h.012v-.012h.008v-.02h.012v-.008s0-.012.008-.012v-.008h.012v-.012h.008v-.016h.012v-.012h.008v-.02c.008,0,.008,0,.008-.008a.011.011,0,0,0,.012-.012v-.008h.008v-.012c0-.008,0-.008.012-.008v-.008s0-.012.008-.012v-.008h.012v-.012h.008v-.027h.012v-.012h.008v-.016c.008,0,.008,0,.008-.012l.012-.008v-.02h.008v-.02h.012v-.02h.008v-.008a.011.011,0,0,0,.012-.012v-.008h.008v-.02a.011.011,0,0,0,.012-.012v-.008h.008v-.02l.012-.012v-.008h.008v-.027h.008v-.02h.012v-.031h.008v-.008s.012,0,.012-.008v-.012a.008.008,0,0,0,.008-.008v-.02l.012-.012v-.008l.008-.012v-.027h.012v-.008s0-.012.008-.012v-.027h.008v-.02c.012,0,.012-.008.012-.008v-.031h.008v-.02s0-.008.012-.008V17706l.008-.008v-.02h.012v-.02c0-.008,0-.008.008-.008v-.039h.012v-.027h.008v-.051h.008v-.027h.012v-.047s0-.012.008-.012v-.027l.012-.008v-.059h.008v-.047h.012v-.051a.008.008,0,0,1,.008-.008v-.086h.012v-.086c.008,0,.008,0,.008-.012v-.437l-.008-.012v-.074a.011.011,0,0,1-.012-.012v-.086l-.008-.008v-.039l-.012-.008v-.039l-.008-.012v-.055c-.012,0-.012,0-.012-.012v-.027h-.008v-.047l-.012-.012v-.027h-.008v-.039l-.008-.008v-.031h-.012v-.035h-.008v-.02c0-.012,0-.012-.012-.012v-.027h-.008v-.027l-.012-.012v-.02h-.008v-.027a.011.011,0,0,1-.012-.012v-.008l-.008-.008v-.031h-.008v-.02s-.012,0-.012-.008v-.02h-.008v-.02h-.012v-.027h-.008v-.02c-.012,0-.012,0-.012-.012V17704h-.008v-.027h-.012v-.012a.008.008,0,0,0-.008-.008v-.02h-.008v-.02c-.012,0-.012,0-.012-.012v-.016h-.008v-.012c-.012,0-.012,0-.012-.008v-.02h-.008v-.02h-.012v-.012h-.008v-.016a.011.011,0,0,1-.012-.012v-.008h-.008v-.02h-.012v-.02h-.008v-.02h-.008v-.008a.011.011,0,0,1-.012-.012v-.008l-.008-.012-.012-.008v-.012h-.008v-.02h-.012v-.008a.008.008,0,0,1-.008-.008v-.012h-.012v-.02h-.008v-.02h-.008v-.008h-.012v-.02h-.008v-.012h-.012v-.008h-.008v-.02h-.012v-.008h-.008v-.02h-.012v-.012h-.008v-.008c0-.012,0-.012-.008-.012v-.008h-.012v-.02h-.008l-.012-.008v-.012h-.008v-.008h-.012v-.012a.008.008,0,0,0-.008-.008v-.012h-.012v-.008h-.008v-.008s0-.012-.008-.012-.012,0-.012-.008v-.012h-.008v-.008h-.012v-.012c0-.008,0-.008-.008-.008l-.012-.012v-.008h-.008v-.008h-.012v-.012h-.008v-.008h-.012v-.012h-.008v-.008l-.008-.012v-.008h-.012s0-.012-.008-.012v-.008h-.012c-.008,0-.008-.012-.008-.012v-.008h-.012a.008.008,0,0,0-.008-.008v-.012h-.012v-.008h-.008v-.012h-.008v-.008h-.012v-.012c-.008,0-.008,0-.008-.008h-.012v-.012h-.008v-.008h-.012v-.008h-.008v-.012h-.012a.008.008,0,0,0-.008-.008v-.012h-.008s-.012,0-.012-.008v-.012h-.008c0-.008-.012-.008-.012-.008v-.012h-.008l-.012-.008h-.008v-.008h-.012v-.012h-.008v-.008h-.008a.011.011,0,0,0-.012-.012l-.008-.008a.011.011,0,0,1-.012-.012.008.008,0,0,0-.008-.008h-.012v-.012h-.008v-.008h-.012a.008.008,0,0,1-.008-.008l-.012-.012h-.008v-.008h-.008v-.012h-.012l-.008-.008h-.012v-.012h-.008v-.008h-.02v-.012l-.012-.008h-.008v-.012h-.008l-.012-.008h-.008s0-.008-.012-.008-.008-.012-.008-.012h-.012a.008.008,0,0,0-.008-.008v-.012h-.012l-.008-.008h-.008v-.012h-.012l-.008-.008h-.012v-.012h-.008l-.012-.008H19048l-.012-.008c-.008,0-.008-.012-.008-.012h-.02v-.008c-.008,0-.008,0-.008-.012h-.02s0-.008-.012-.008h-.008v-.012c-.012,0-.012,0-.012-.008h-.02s0-.012-.008-.012a.008.008,0,0,0-.008-.008h-.02v-.008c-.012,0-.012,0-.02-.012h-.012l-.008-.008h-.012v-.012h-.016l-.012-.008c-.008,0-.008-.012-.008-.012h-.012a.008.008,0,0,0-.008-.008h-.02c0-.012,0-.012-.012-.012h-.008v-.008h-.02a.008.008,0,0,0-.008-.008h-.012v-.012h-.02c-.008,0-.008,0-.008-.008h-.012s-.008,0-.008-.012h-.02a.008.008,0,0,0-.008-.008h-.012s0-.012-.008-.012h-.012l-.008-.008h-.02a.011.011,0,0,0-.012-.012h-.008v-.008h-.027l-.012-.012h-.008l-.012-.008h-.02c-.008,0-.008,0-.008-.008h-.02s0-.012-.008-.012h-.02c-.012,0-.012-.008-.02-.008h-.012c-.008,0-.008-.012-.008-.012h-.02c0-.008,0-.008-.008-.008h-.02c-.012,0-.012,0-.012-.012h-.027c0-.008,0-.008-.008-.008h-.02c-.012,0-.012,0-.012-.012h-.027l-.012-.008h-.027c-.008,0-.008,0-.008-.008h-.031c-.008,0-.008,0-.008-.012h-.047l-.012-.008h-.027l-.012-.012h-.055l-.012-.008h-.039l-.008-.012h-.039a.008.008,0,0,1-.008-.008h-.105v-.012h-.105v-.008h-.336a.008.008,0,0,0-.008.008h-.1l-.008.012h-.1l-.008.008h-.047a.011.011,0,0,1-.012.012H19046c-.012,0-.012,0-.012.008h-.066s0,.012-.008.012h-.02a.008.008,0,0,0-.008.008h-.059v.012h-.031a.008.008,0,0,1-.008.008h-.039a.008.008,0,0,1-.008.008h-.02a.011.011,0,0,1-.012.012h-.027v.008h-.027l-.012.012h-.027l-.008.008h-.012c-.008,0-.008.012-.008.012h-.02l-.012.008h-.027v.012h-.02a.008.008,0,0,1-.008.008h-.031c0,.008,0,.008-.008.008s-.012,0-.012.012h-.027a.008.008,0,0,1-.008.008h-.012v.012h-.027c0,.008,0,.008-.012.008h-.008v.012h-.012c-.008,0-.008,0-.008.008h-.027c0,.012,0,.012-.012.012h-.008v.008h-.02a.011.011,0,0,1-.012.012h-.008v.008h-.02a.008.008,0,0,0-.008.008h-.012v.012h-.02c-.008,0-.008,0-.008.008h-.012s-.008,0-.008.012h-.008s0,.008-.012.008h-.008l-.012.012h-.008s0,.008-.012.008h-.008a.011.011,0,0,1-.012.012h-.008v.008h-.012c-.008,0-.008,0-.008.008h-.008l-.012.012h-.008l-.012.008c-.008,0-.008,0-.008.012H19045a.008.008,0,0,1-.008.008h-.012l-.008.012-.008.008h-.012l-.008.012h-.012v.008h-.008s-.012,0-.012.008h-.008v.012h-.02c0,.008,0,.008-.008.008a.011.011,0,0,1-.012.012.008.008,0,0,0-.008.008h-.012c0,.012,0,.012-.008.012s0,.008-.012.008h-.008v.012h-.012l-.008.008h-.008c0,.008,0,.008-.012.008v.012h-.008s-.012,0-.012.008-.008.012-.008.012h-.02v.008l-.012.012h-.008v.008h-.012l-.008.012v.008h-.02v.012h-.008v.008h-.012l-.008.008a.011.011,0,0,1-.012.012h-.008v.008h-.012v.012h-.008v.008h-.008c0,.012,0,.012-.012.012v.008h-.008a.011.011,0,0,0-.012.012h-.008v.008h-.012v.008h-.008v.012h-.012a.008.008,0,0,1-.008.008v.012h-.008v.008h-.012v.012h-.008v.008h-.012v.012h-.008v.008h-.012a.008.008,0,0,0-.008.008v.012h-.02v.02h-.02v.02h-.008v.008h-.012c0,.012,0,.012-.008.012v.008h-.012l-.008.008v.012h-.012a.008.008,0,0,1-.008.008v.012h-.012v.008h-.008v.012l-.008.008h-.012v.02h-.008a.011.011,0,0,1-.012.012v.008h-.008v.008h-.012v.012h-.008v.008l-.012.012a.008.008,0,0,1-.008.008v.012h-.008v.008h-.012v.02h-.02v.008c0,.012,0,.012-.008.012v.008c-.012,0-.012,0-.012.012h-.008v.02h-.012v.008h-.008v.012c0,.008,0,.008-.008.008s0,.008-.012.008v.012c-.008,0-.008,0-.008.008l-.012.012v.008h-.008v.012l-.012.008v.012h-.008v.008h-.012v.02h-.008v.008l-.008.012v.008h-.012v.012c0,.008,0,.008-.008.008v.012h-.012v.02h-.008v.008h-.012v.008l-.008.012v.008l-.012.012v.008h-.008v.02h-.012v.012l-.008.008v.008c0,.012-.008.012-.008.012v.008h-.012v.02h-.008v.02h-.012v.012l-.008.008v.02h-.012v.008h-.008v.02c0,.012,0,.012-.012.012v.008h-.008v.02c0,.008,0,.008-.008.008v.012l-.012.008v.02c-.008,0-.008,0-.008.012v.008h-.012v.031h-.008v.008c0,.008-.012.008-.012.008v.012l-.008.008v.031h-.012v.008l-.008.012v.027h-.008v.008c0,.012,0,.012-.012.012v.027h-.008v.02h-.012v.039h-.008v.02l-.012.008v.02h-.008v.027c0,.012,0,.012-.012.012v.027h-.008v.039h-.008v.02c0,.008-.012.008-.012.008v.039h-.008v.039h-.012v.047h-.008v.039h-.012v.039h-.008v.066h-.012v.047h-.008v.086h-.012v.066h-.008v.191h-.008Z" transform="translate(-19039.328 -17701.574)" fill="#7867ea"/>
  </g>
</svg>
