<svg xmlns="http://www.w3.org/2000/svg" width="19.36" height="27.1" viewBox="0 0 19.36 27.1">
  <g id="Grupo_364" data-name="Grupo 364" transform="translate(-930.829 -306.536)">
    <path id="Trazado_407" data-name="Trazado 407" d="M944.379,306.536h-7.74a5.817,5.817,0,0,0-5.81,5.81v15.479a5.817,5.817,0,0,0,5.81,5.81h7.74a5.817,5.817,0,0,0,5.81-5.81V312.346A5.817,5.817,0,0,0,944.379,306.536Zm4.373,21.289a4.378,4.378,0,0,1-4.373,4.373h-7.74a4.378,4.378,0,0,1-4.373-4.373V312.346a4.378,4.378,0,0,1,4.373-4.373h7.74a4.378,4.378,0,0,1,4.373,4.373Z" transform="translate(0 0)" fill="#7867ea"/>
    <path id="Trazado_408" data-name="Trazado 408" d="M962.975,402.3H957.4a.719.719,0,0,0,0,1.437h5.578A.719.719,0,0,0,962.975,402.3Z" transform="translate(-19.677 -72.828)" fill="#7867ea"/>
    <path id="Trazado_409" data-name="Trazado 409" d="M967.582,318.768l.145.112a.715.715,0,0,0,.363.1h.419a.739.739,0,0,0,.719-.719l-.026-.191a.717.717,0,0,0-.185-.317l-.146-.112a.715.715,0,0,0-.363-.1h-.419a.738.738,0,0,0-.719.719l.026.191A.72.72,0,0,0,967.582,318.768Z" transform="translate(-27.79 -8.37)" fill="#7867ea"/>
  </g>
</svg>
