<svg xmlns="http://www.w3.org/2000/svg" xmlns:xlink="http://www.w3.org/1999/xlink" width="19.424" height="18.294" viewBox="0 0 19.424 18.294">
  <defs>
    <clipPath id="clip-path">
      <rect id="Rectángulo_91" data-name="Rectángulo 91" width="19.424" height="18.294" transform="translate(0 0)" fill="#7867ea"/>
    </clipPath>
  </defs>
  <g id="Grupo_363" data-name="Grupo 363" transform="translate(-1345.487 -453.72)">
    <g id="Grupo_447" data-name="Grupo 447" transform="translate(1345.487 453.72)">
      <g id="Grupo_446" data-name="Grupo 446" transform="translate(0 0)" clip-path="url(#clip-path)">
        <path id="Trazado_432" data-name="Trazado 432" d="M15.163,0H4.261A4.266,4.266,0,0,0,0,4.261v9.772a4.266,4.266,0,0,0,4.261,4.261h10.9a4.266,4.266,0,0,0,4.261-4.261V4.261A4.266,4.266,0,0,0,15.163,0m2.911,14.033a2.915,2.915,0,0,1-2.911,2.911H4.261a2.915,2.915,0,0,1-2.911-2.911V4.261A2.915,2.915,0,0,1,4.261,1.349h10.9a2.915,2.915,0,0,1,2.911,2.911Z" transform="translate(0 0)" fill="#7867ea"/>
        <path id="Trazado_433" data-name="Trazado 433" d="M34.789,18.63a4.629,4.629,0,0,0-4.624,4.624c0,1.3,1.071,3.525,3.184,6.624a1.742,1.742,0,0,0,2.88,0c2.113-3.1,3.184-5.328,3.184-6.624a4.629,4.629,0,0,0-4.624-4.624m.325,10.488a.393.393,0,0,1-.65,0c-1.847-2.709-2.949-4.9-2.949-5.864a3.274,3.274,0,1,1,6.548,0c0,.963-1.1,3.155-2.949,5.864" transform="translate(-25.077 -15.487)" fill="#7867ea"/>
        <path id="Trazado_434" data-name="Trazado 434" d="M46.31,33.446A2.286,2.286,0,1,0,48.6,35.732a2.289,2.289,0,0,0-2.286-2.286m0,3.222a.936.936,0,1,1,.936-.936.937.937,0,0,1-.936.936" transform="translate(-36.598 -27.804)" fill="#7867ea"/>
      </g>
    </g>
  </g>
</svg>
