<svg xmlns="http://www.w3.org/2000/svg" width="18.648" height="17.57" viewBox="0 0 18.648 17.57">
  <path id="Unión_15" data-name="Unión 15" d="M19589.111,18409.994a4.118,4.118,0,0,1-4.109-4.125v-9.336a4.1,4.1,0,0,1,4.109-4.109h10.414a4.118,4.118,0,0,1,4.125,4.109v9.336a4.131,4.131,0,0,1-4.125,4.125Zm8.445-1.359h1.969a2.761,2.761,0,0,0,2.766-2.766v-9.336a2.757,2.757,0,0,0-2.766-2.75h-7.484Zm-11.2-4.3v1.539a2.757,2.757,0,0,0,2.75,2.766h6.969l-2.594-6.914Zm0-7.8v6.344l6.688-2.461-2.461-6.633h-1.477A2.754,2.754,0,0,0,19586.361,18396.533Z" transform="translate(-19585.002 -18392.424)" fill="#7867ea"/>
</svg>
